<svg width="748" height="520" viewBox="0 0 748 520" fill="none" xmlns="http://www.w3.org/2000/svg">
<path d="M706.766 102.788C707.542 102.788 708.171 102.155 708.171 101.373C708.171 100.592 707.542 99.959 706.766 99.959C705.99 99.959 705.361 100.592 705.361 101.373C705.361 102.155 705.99 102.788 706.766 102.788Z" fill="#C7B3FF"/>
<path d="M717.872 101.373C717.872 102.157 717.246 102.788 716.468 102.788C715.69 102.788 715.063 102.157 715.063 101.373C715.063 100.59 715.69 99.959 716.468 99.959C717.246 99.959 717.872 100.59 717.872 101.373Z" fill="#C7B3FF"/>
<path d="M726.191 102.788C726.967 102.788 727.596 102.155 727.596 101.373C727.596 100.592 726.967 99.959 726.191 99.959C725.416 99.959 724.787 100.592 724.787 101.373C724.787 102.155 725.416 102.788 726.191 102.788Z" fill="#C7B3FF"/>
<path d="M735.893 102.788C736.669 102.788 737.298 102.155 737.298 101.373C737.298 100.592 736.669 99.959 735.893 99.959C735.118 99.959 734.489 100.592 734.489 101.373C734.489 102.155 735.118 102.788 735.893 102.788Z" fill="#C7B3FF"/>
<path d="M745.617 102.788C746.393 102.788 747.022 102.155 747.022 101.373C747.022 100.592 746.393 99.959 745.617 99.959C744.841 99.959 744.212 100.592 744.212 101.373C744.212 102.155 744.841 102.788 745.617 102.788Z" fill="#C7B3FF"/>
<path d="M697.064 102.788C697.84 102.788 698.468 102.155 698.468 101.373C698.468 100.592 697.84 99.959 697.064 99.959C696.288 99.959 695.659 100.592 695.659 101.373C695.659 102.155 696.288 102.788 697.064 102.788Z" fill="#C7B3FF"/>
<path d="M687.362 102.788C688.137 102.788 688.766 102.155 688.766 101.373C688.766 100.592 688.137 99.959 687.362 99.959C686.586 99.959 685.957 100.592 685.957 101.373C685.957 102.155 686.586 102.788 687.362 102.788Z" fill="#C7B3FF"/>
<path d="M638.809 102.788C639.584 102.788 640.213 102.155 640.213 101.373C640.213 100.592 639.584 99.959 638.809 99.959C638.033 99.959 637.404 100.592 637.404 101.373C637.404 102.155 638.033 102.788 638.809 102.788Z" fill="#C7B3FF"/>
<path d="M649.915 101.373C649.915 102.157 649.288 102.788 648.51 102.788C647.732 102.788 647.106 102.157 647.106 101.373C647.106 100.59 647.732 99.959 648.51 99.959C649.288 99.959 649.915 100.59 649.915 101.373Z" fill="#C7B3FF"/>
<path d="M658.234 102.788C659.01 102.788 659.639 102.155 659.639 101.373C659.639 100.592 659.01 99.959 658.234 99.959C657.458 99.959 656.829 100.592 656.829 101.373C656.829 102.155 657.458 102.788 658.234 102.788Z" fill="#C7B3FF"/>
<path d="M667.936 102.788C668.712 102.788 669.341 102.155 669.341 101.373C669.341 100.592 668.712 99.959 667.936 99.959C667.16 99.959 666.532 100.592 666.532 101.373C666.532 102.155 667.16 102.788 667.936 102.788Z" fill="#C7B3FF"/>
<path d="M677.66 102.788C678.435 102.788 679.064 102.155 679.064 101.373C679.064 100.592 678.435 99.959 677.66 99.959C676.884 99.959 676.255 100.592 676.255 101.373C676.255 102.155 676.884 102.788 677.66 102.788Z" fill="#C7B3FF"/>
<path d="M629.107 102.788C629.882 102.788 630.511 102.155 630.511 101.373C630.511 100.592 629.882 99.959 629.107 99.959C628.331 99.959 627.702 100.592 627.702 101.373C627.702 102.155 628.331 102.788 629.107 102.788Z" fill="#C7B3FF"/>
<path d="M619.405 102.788C620.18 102.788 620.809 102.155 620.809 101.373C620.809 100.592 620.18 99.959 619.405 99.959C618.629 99.959 618 100.592 618 101.373C618 102.155 618.629 102.788 619.405 102.788Z" fill="#C7B3FF"/>
<path d="M706.766 115.822C707.542 115.822 708.171 115.188 708.171 114.407C708.171 113.626 707.542 112.993 706.766 112.993C705.99 112.993 705.361 113.626 705.361 114.407C705.361 115.188 705.99 115.822 706.766 115.822Z" fill="#C7B3FF"/>
<path d="M717.872 114.407C717.872 115.191 717.246 115.822 716.468 115.822C715.69 115.822 715.063 115.191 715.063 114.407C715.063 113.624 715.69 112.993 716.468 112.993C717.246 112.993 717.872 113.624 717.872 114.407Z" fill="#C7B3FF"/>
<path d="M726.191 115.822C726.967 115.822 727.596 115.188 727.596 114.407C727.596 113.626 726.967 112.993 726.191 112.993C725.416 112.993 724.787 113.626 724.787 114.407C724.787 115.188 725.416 115.822 726.191 115.822Z" fill="#C7B3FF"/>
<path d="M735.893 115.822C736.669 115.822 737.298 115.188 737.298 114.407C737.298 113.626 736.669 112.993 735.893 112.993C735.118 112.993 734.489 113.626 734.489 114.407C734.489 115.188 735.118 115.822 735.893 115.822Z" fill="#C7B3FF"/>
<path d="M745.617 115.822C746.393 115.822 747.022 115.188 747.022 114.407C747.022 113.626 746.393 112.993 745.617 112.993C744.841 112.993 744.212 113.626 744.212 114.407C744.212 115.188 744.841 115.822 745.617 115.822Z" fill="#C7B3FF"/>
<path d="M697.064 115.822C697.84 115.822 698.468 115.188 698.468 114.407C698.468 113.626 697.84 112.993 697.064 112.993C696.288 112.993 695.659 113.626 695.659 114.407C695.659 115.188 696.288 115.822 697.064 115.822Z" fill="#C7B3FF"/>
<path d="M687.362 115.822C688.137 115.822 688.766 115.188 688.766 114.407C688.766 113.626 688.137 112.993 687.362 112.993C686.586 112.993 685.957 113.626 685.957 114.407C685.957 115.188 686.586 115.822 687.362 115.822Z" fill="#C7B3FF"/>
<path d="M638.809 115.822C639.584 115.822 640.213 115.188 640.213 114.407C640.213 113.626 639.584 112.993 638.809 112.993C638.033 112.993 637.404 113.626 637.404 114.407C637.404 115.188 638.033 115.822 638.809 115.822Z" fill="#C7B3FF"/>
<path d="M649.915 114.407C649.915 115.191 649.288 115.822 648.51 115.822C647.732 115.822 647.106 115.191 647.106 114.407C647.106 113.624 647.732 112.993 648.51 112.993C649.288 112.993 649.915 113.624 649.915 114.407Z" fill="#C7B3FF"/>
<path d="M658.234 115.822C659.01 115.822 659.639 115.188 659.639 114.407C659.639 113.626 659.01 112.993 658.234 112.993C657.458 112.993 656.829 113.626 656.829 114.407C656.829 115.188 657.458 115.822 658.234 115.822Z" fill="#C7B3FF"/>
<path d="M667.936 115.822C668.712 115.822 669.341 115.188 669.341 114.407C669.341 113.626 668.712 112.993 667.936 112.993C667.16 112.993 666.532 113.626 666.532 114.407C666.532 115.188 667.16 115.822 667.936 115.822Z" fill="#C7B3FF"/>
<path d="M677.66 115.822C678.435 115.822 679.064 115.188 679.064 114.407C679.064 113.626 678.435 112.993 677.66 112.993C676.884 112.993 676.255 113.626 676.255 114.407C676.255 115.188 676.884 115.822 677.66 115.822Z" fill="#C7B3FF"/>
<path d="M629.107 115.822C629.882 115.822 630.511 115.188 630.511 114.407C630.511 113.626 629.882 112.993 629.107 112.993C628.331 112.993 627.702 113.626 627.702 114.407C627.702 115.188 628.331 115.822 629.107 115.822Z" fill="#C7B3FF"/>
<path d="M619.405 115.822C620.18 115.822 620.809 115.188 620.809 114.407C620.809 113.626 620.18 112.993 619.405 112.993C618.629 112.993 618 113.626 618 114.407C618 115.188 618.629 115.822 619.405 115.822Z" fill="#C7B3FF"/>
<path d="M706.766 128.856C707.542 128.856 708.171 128.222 708.171 127.441C708.171 126.66 707.542 126.027 706.766 126.027C705.99 126.027 705.361 126.66 705.361 127.441C705.361 128.222 705.99 128.856 706.766 128.856Z" fill="#C7B3FF"/>
<path d="M717.872 127.441C717.872 128.225 717.246 128.856 716.468 128.856C715.69 128.856 715.063 128.225 715.063 127.441C715.063 126.658 715.69 126.027 716.468 126.027C717.246 126.027 717.872 126.658 717.872 127.441Z" fill="#C7B3FF"/>
<path d="M726.191 128.856C726.967 128.856 727.596 128.222 727.596 127.441C727.596 126.66 726.967 126.027 726.191 126.027C725.416 126.027 724.787 126.66 724.787 127.441C724.787 128.222 725.416 128.856 726.191 128.856Z" fill="#C7B3FF"/>
<path d="M735.893 128.856C736.669 128.856 737.298 128.222 737.298 127.441C737.298 126.66 736.669 126.027 735.893 126.027C735.118 126.027 734.489 126.66 734.489 127.441C734.489 128.222 735.118 128.856 735.893 128.856Z" fill="#C7B3FF"/>
<path d="M745.617 128.856C746.393 128.856 747.022 128.222 747.022 127.441C747.022 126.66 746.393 126.027 745.617 126.027C744.841 126.027 744.212 126.66 744.212 127.441C744.212 128.222 744.841 128.856 745.617 128.856Z" fill="#C7B3FF"/>
<path d="M697.064 128.856C697.84 128.856 698.468 128.222 698.468 127.441C698.468 126.66 697.84 126.027 697.064 126.027C696.288 126.027 695.659 126.66 695.659 127.441C695.659 128.222 696.288 128.856 697.064 128.856Z" fill="#C7B3FF"/>
<path d="M687.362 128.856C688.137 128.856 688.766 128.222 688.766 127.441C688.766 126.66 688.137 126.027 687.362 126.027C686.586 126.027 685.957 126.66 685.957 127.441C685.957 128.222 686.586 128.856 687.362 128.856Z" fill="#C7B3FF"/>
<path d="M638.809 128.856C639.584 128.856 640.213 128.222 640.213 127.441C640.213 126.66 639.584 126.027 638.809 126.027C638.033 126.027 637.404 126.66 637.404 127.441C637.404 128.222 638.033 128.856 638.809 128.856Z" fill="#C7B3FF"/>
<path d="M649.915 127.441C649.915 128.225 649.288 128.856 648.51 128.856C647.732 128.856 647.106 128.225 647.106 127.441C647.106 126.658 647.732 126.027 648.51 126.027C649.288 126.027 649.915 126.658 649.915 127.441Z" fill="#C7B3FF"/>
<path d="M658.234 128.856C659.01 128.856 659.639 128.222 659.639 127.441C659.639 126.66 659.01 126.027 658.234 126.027C657.458 126.027 656.829 126.66 656.829 127.441C656.829 128.222 657.458 128.856 658.234 128.856Z" fill="#C7B3FF"/>
<path d="M667.936 128.856C668.712 128.856 669.341 128.222 669.341 127.441C669.341 126.66 668.712 126.027 667.936 126.027C667.16 126.027 666.532 126.66 666.532 127.441C666.532 128.222 667.16 128.856 667.936 128.856Z" fill="#C7B3FF"/>
<path d="M677.66 128.856C678.435 128.856 679.064 128.222 679.064 127.441C679.064 126.66 678.435 126.027 677.66 126.027C676.884 126.027 676.255 126.66 676.255 127.441C676.255 128.222 676.884 128.856 677.66 128.856Z" fill="#C7B3FF"/>
<path d="M629.107 128.856C629.882 128.856 630.511 128.222 630.511 127.441C630.511 126.66 629.882 126.027 629.107 126.027C628.331 126.027 627.702 126.66 627.702 127.441C627.702 128.222 628.331 128.856 629.107 128.856Z" fill="#C7B3FF"/>
<path d="M619.405 128.856C620.18 128.856 620.809 128.222 620.809 127.441C620.809 126.66 620.18 126.027 619.405 126.027C618.629 126.027 618 126.66 618 127.441C618 128.222 618.629 128.856 619.405 128.856Z" fill="#C7B3FF"/>
<path d="M706.766 141.891C707.542 141.891 708.171 141.258 708.171 140.477C708.171 139.696 707.542 139.062 706.766 139.062C705.99 139.062 705.361 139.696 705.361 140.477C705.361 141.258 705.99 141.891 706.766 141.891Z" fill="#C7B3FF"/>
<path d="M717.872 140.477C717.872 141.26 717.246 141.891 716.468 141.891C715.69 141.891 715.063 141.26 715.063 140.477C715.063 139.693 715.69 139.062 716.468 139.062C717.246 139.084 717.872 139.693 717.872 140.477Z" fill="#C7B3FF"/>
<path d="M726.191 141.891C726.967 141.891 727.596 141.258 727.596 140.477C727.596 139.696 726.967 139.062 726.191 139.062C725.416 139.062 724.787 139.696 724.787 140.477C724.787 141.258 725.416 141.891 726.191 141.891Z" fill="#C7B3FF"/>
<path d="M735.893 141.891C736.669 141.891 737.298 141.258 737.298 140.477C737.298 139.696 736.669 139.062 735.893 139.062C735.118 139.062 734.489 139.696 734.489 140.477C734.489 141.258 735.118 141.891 735.893 141.891Z" fill="#C7B3FF"/>
<path d="M745.617 141.891C746.393 141.891 747.022 141.258 747.022 140.477C747.022 139.696 746.393 139.062 745.617 139.062C744.841 139.062 744.212 139.696 744.212 140.477C744.212 141.258 744.841 141.891 745.617 141.891Z" fill="#C7B3FF"/>
<path d="M697.064 141.891C697.84 141.891 698.468 141.258 698.468 140.477C698.468 139.696 697.84 139.062 697.064 139.062C696.288 139.062 695.659 139.696 695.659 140.477C695.659 141.258 696.288 141.891 697.064 141.891Z" fill="#C7B3FF"/>
<path d="M687.362 141.891C688.137 141.891 688.766 141.258 688.766 140.477C688.766 139.696 688.137 139.062 687.362 139.062C686.586 139.062 685.957 139.696 685.957 140.477C685.957 141.258 686.586 141.891 687.362 141.891Z" fill="#C7B3FF"/>
<path d="M638.809 141.891C639.584 141.891 640.213 141.258 640.213 140.477C640.213 139.696 639.584 139.062 638.809 139.062C638.033 139.062 637.404 139.696 637.404 140.477C637.404 141.258 638.033 141.891 638.809 141.891Z" fill="#C7B3FF"/>
<path d="M649.915 140.477C649.915 141.26 649.288 141.891 648.51 141.891C647.732 141.891 647.106 141.26 647.106 140.477C647.106 139.693 647.732 139.062 648.51 139.062C649.288 139.084 649.915 139.693 649.915 140.477Z" fill="#C7B3FF"/>
<path d="M658.234 141.891C659.01 141.891 659.639 141.258 659.639 140.477C659.639 139.696 659.01 139.062 658.234 139.062C657.458 139.062 656.829 139.696 656.829 140.477C656.829 141.258 657.458 141.891 658.234 141.891Z" fill="#C7B3FF"/>
<path d="M667.936 141.891C668.712 141.891 669.341 141.258 669.341 140.477C669.341 139.696 668.712 139.062 667.936 139.062C667.16 139.062 666.532 139.696 666.532 140.477C666.532 141.258 667.16 141.891 667.936 141.891Z" fill="#C7B3FF"/>
<path d="M677.66 141.891C678.435 141.891 679.064 141.258 679.064 140.477C679.064 139.696 678.435 139.062 677.66 139.062C676.884 139.062 676.255 139.696 676.255 140.477C676.255 141.258 676.884 141.891 677.66 141.891Z" fill="#C7B3FF"/>
<path d="M629.107 141.891C629.882 141.891 630.511 141.258 630.511 140.477C630.511 139.696 629.882 139.062 629.107 139.062C628.331 139.062 627.702 139.696 627.702 140.477C627.702 141.258 628.331 141.891 629.107 141.891Z" fill="#C7B3FF"/>
<path d="M619.405 141.891C620.18 141.891 620.809 141.258 620.809 140.477C620.809 139.696 620.18 139.062 619.405 139.062C618.629 139.062 618 139.696 618 140.477C618 141.258 618.629 141.891 619.405 141.891Z" fill="#C7B3FF"/>
<path d="M706.766 154.925C707.542 154.925 708.171 154.292 708.171 153.511C708.171 152.729 707.542 152.096 706.766 152.096C705.99 152.096 705.361 152.729 705.361 153.511C705.361 154.292 705.99 154.925 706.766 154.925Z" fill="#C7B3FF"/>
<path d="M717.872 153.511C717.872 154.294 717.246 154.925 716.468 154.925C715.69 154.925 715.063 154.294 715.063 153.511C715.063 152.727 715.69 152.096 716.468 152.096C717.246 152.118 717.872 152.749 717.872 153.511Z" fill="#C7B3FF"/>
<path d="M726.191 154.925C726.967 154.925 727.596 154.292 727.596 153.511C727.596 152.729 726.967 152.096 726.191 152.096C725.416 152.096 724.787 152.729 724.787 153.511C724.787 154.292 725.416 154.925 726.191 154.925Z" fill="#C7B3FF"/>
<path d="M735.893 154.925C736.669 154.925 737.298 154.292 737.298 153.511C737.298 152.729 736.669 152.096 735.893 152.096C735.118 152.096 734.489 152.729 734.489 153.511C734.489 154.292 735.118 154.925 735.893 154.925Z" fill="#C7B3FF"/>
<path d="M745.617 154.925C746.393 154.925 747.022 154.292 747.022 153.511C747.022 152.729 746.393 152.096 745.617 152.096C744.841 152.096 744.212 152.729 744.212 153.511C744.212 154.292 744.841 154.925 745.617 154.925Z" fill="#C7B3FF"/>
<path d="M697.064 154.925C697.84 154.925 698.468 154.292 698.468 153.511C698.468 152.729 697.84 152.096 697.064 152.096C696.288 152.096 695.659 152.729 695.659 153.511C695.659 154.292 696.288 154.925 697.064 154.925Z" fill="#C7B3FF"/>
<path d="M687.362 154.925C688.137 154.925 688.766 154.292 688.766 153.511C688.766 152.729 688.137 152.096 687.362 152.096C686.586 152.096 685.957 152.729 685.957 153.511C685.957 154.292 686.586 154.925 687.362 154.925Z" fill="#C7B3FF"/>
<path d="M638.809 154.925C639.584 154.925 640.213 154.292 640.213 153.511C640.213 152.729 639.584 152.096 638.809 152.096C638.033 152.096 637.404 152.729 637.404 153.511C637.404 154.292 638.033 154.925 638.809 154.925Z" fill="#C7B3FF"/>
<path d="M649.915 153.511C649.915 154.294 649.288 154.925 648.51 154.925C647.732 154.925 647.106 154.294 647.106 153.511C647.106 152.727 647.732 152.096 648.51 152.096C649.288 152.118 649.915 152.749 649.915 153.511Z" fill="#C7B3FF"/>
<path d="M658.234 154.925C659.01 154.925 659.639 154.292 659.639 153.511C659.639 152.729 659.01 152.096 658.234 152.096C657.458 152.096 656.829 152.729 656.829 153.511C656.829 154.292 657.458 154.925 658.234 154.925Z" fill="#C7B3FF"/>
<path d="M667.936 154.925C668.712 154.925 669.341 154.292 669.341 153.511C669.341 152.729 668.712 152.096 667.936 152.096C667.16 152.096 666.532 152.729 666.532 153.511C666.532 154.292 667.16 154.925 667.936 154.925Z" fill="#C7B3FF"/>
<path d="M677.66 154.925C678.435 154.925 679.064 154.292 679.064 153.511C679.064 152.729 678.435 152.096 677.66 152.096C676.884 152.096 676.255 152.729 676.255 153.511C676.255 154.292 676.884 154.925 677.66 154.925Z" fill="#C7B3FF"/>
<path d="M629.107 154.925C629.882 154.925 630.511 154.292 630.511 153.511C630.511 152.729 629.882 152.096 629.107 152.096C628.331 152.096 627.702 152.729 627.702 153.511C627.702 154.292 628.331 154.925 629.107 154.925Z" fill="#C7B3FF"/>
<path d="M619.405 154.925C620.18 154.925 620.809 154.292 620.809 153.511C620.809 152.729 620.18 152.096 619.405 152.096C618.629 152.096 618 152.729 618 153.511C618 154.292 618.629 154.925 619.405 154.925Z" fill="#C7B3FF"/>
<path d="M706.766 167.959C707.542 167.959 708.171 167.326 708.171 166.545C708.171 165.763 707.542 165.13 706.766 165.13C705.99 165.13 705.361 165.763 705.361 166.545C705.361 167.326 705.99 167.959 706.766 167.959Z" fill="#C7B3FF"/>
<path d="M717.872 166.545C717.872 167.328 717.246 167.959 716.468 167.959C715.69 167.959 715.063 167.328 715.063 166.545C715.063 165.761 715.69 165.13 716.468 165.13C717.246 165.152 717.872 165.783 717.872 166.545Z" fill="#C7B3FF"/>
<path d="M726.191 167.959C726.967 167.959 727.596 167.326 727.596 166.545C727.596 165.763 726.967 165.13 726.191 165.13C725.416 165.13 724.787 165.763 724.787 166.545C724.787 167.326 725.416 167.959 726.191 167.959Z" fill="#C7B3FF"/>
<path d="M735.893 167.959C736.669 167.959 737.298 167.326 737.298 166.545C737.298 165.763 736.669 165.13 735.893 165.13C735.118 165.13 734.489 165.763 734.489 166.545C734.489 167.326 735.118 167.959 735.893 167.959Z" fill="#C7B3FF"/>
<path d="M745.617 167.959C746.393 167.959 747.022 167.326 747.022 166.545C747.022 165.763 746.393 165.13 745.617 165.13C744.841 165.13 744.212 165.763 744.212 166.545C744.212 167.326 744.841 167.959 745.617 167.959Z" fill="#C7B3FF"/>
<path d="M697.064 167.959C697.84 167.959 698.468 167.326 698.468 166.545C698.468 165.763 697.84 165.13 697.064 165.13C696.288 165.13 695.659 165.763 695.659 166.545C695.659 167.326 696.288 167.959 697.064 167.959Z" fill="#C7B3FF"/>
<path d="M687.362 167.959C688.137 167.959 688.766 167.326 688.766 166.545C688.766 165.763 688.137 165.13 687.362 165.13C686.586 165.13 685.957 165.763 685.957 166.545C685.957 167.326 686.586 167.959 687.362 167.959Z" fill="#C7B3FF"/>
<path d="M638.809 167.959C639.584 167.959 640.213 167.326 640.213 166.545C640.213 165.763 639.584 165.13 638.809 165.13C638.033 165.13 637.404 165.763 637.404 166.545C637.404 167.326 638.033 167.959 638.809 167.959Z" fill="#C7B3FF"/>
<path d="M649.915 166.545C649.915 167.328 649.288 167.959 648.51 167.959C647.732 167.959 647.106 167.328 647.106 166.545C647.106 165.761 647.732 165.13 648.51 165.13C649.288 165.152 649.915 165.783 649.915 166.545Z" fill="#C7B3FF"/>
<path d="M658.234 167.959C659.01 167.959 659.639 167.326 659.639 166.545C659.639 165.763 659.01 165.13 658.234 165.13C657.458 165.13 656.829 165.763 656.829 166.545C656.829 167.326 657.458 167.959 658.234 167.959Z" fill="#C7B3FF"/>
<path d="M667.936 167.959C668.712 167.959 669.341 167.326 669.341 166.545C669.341 165.763 668.712 165.13 667.936 165.13C667.16 165.13 666.532 165.763 666.532 166.545C666.532 167.326 667.16 167.959 667.936 167.959Z" fill="#C7B3FF"/>
<path d="M677.66 167.959C678.435 167.959 679.064 167.326 679.064 166.545C679.064 165.763 678.435 165.13 677.66 165.13C676.884 165.13 676.255 165.763 676.255 166.545C676.255 167.326 676.884 167.959 677.66 167.959Z" fill="#C7B3FF"/>
<path d="M629.107 167.959C629.882 167.959 630.511 167.326 630.511 166.545C630.511 165.763 629.882 165.13 629.107 165.13C628.331 165.13 627.702 165.763 627.702 166.545C627.702 167.326 628.331 167.959 629.107 167.959Z" fill="#C7B3FF"/>
<path d="M619.405 167.959C620.18 167.959 620.809 167.326 620.809 166.545C620.809 165.763 620.18 165.13 619.405 165.13C618.629 165.13 618 165.763 618 166.545C618 167.326 618.629 167.959 619.405 167.959Z" fill="#C7B3FF"/>
<circle cx="635.5" cy="277.459" r="7.5" fill="white"/>
<circle cx="409" cy="318.959" r="14" fill="white"/>
<circle cx="399.5" cy="458.459" r="3.5" fill="#6B38F5"/>
<circle cx="40" cy="140.959" r="40" fill="#DAEDF1"/>
<g clip-path="url(#clip0)">
<path d="M303.793 515.854L354.894 464.753C354.568 464.118 354.228 463.498 353.887 462.894L301.934 514.831C302.538 515.187 303.158 515.528 303.793 515.854Z" fill="white"/>
<path d="M309.186 518.084L357.125 470.144C356.893 469.432 356.645 468.719 356.366 468.037L307.078 517.325C307.76 517.604 308.473 517.852 309.186 518.084Z" fill="white"/>
<path d="M299.037 512.971L352.012 459.995C351.609 459.437 351.206 458.895 350.772 458.353L297.41 511.746C297.937 512.165 298.479 512.583 299.037 512.971Z" fill="white"/>
<path d="M353.887 501.01L340.035 514.862C345.783 511.515 350.555 506.743 353.887 501.01Z" fill="white"/>
<path d="M331.714 518.425L357.466 492.674C357.822 491.434 358.132 490.179 358.365 488.908L327.949 519.324C329.22 519.092 330.49 518.782 331.714 518.425Z" fill="white"/>
<path d="M315.352 519.541L358.582 476.312C358.458 475.49 358.303 474.685 358.132 473.879L312.92 519.092C313.725 519.277 314.531 519.417 315.352 519.541Z" fill="white"/>
<path d="M321.008 519.959C321.535 519.959 322.077 519.944 322.604 519.928L358.969 483.563C358.985 483.036 359 482.509 359 481.967C359 481.533 358.985 481.099 358.969 480.681L319.706 519.928C320.14 519.944 320.574 519.959 321.008 519.959Z" fill="white"/>
<path d="M294.853 509.532L348.572 455.813C348.108 455.317 347.627 454.837 347.131 454.372L293.428 508.106C293.893 508.587 294.373 509.067 294.853 509.532Z" fill="white"/>
<path d="M291.212 505.549L344.59 452.171C344.048 451.753 343.506 451.334 342.948 450.931L289.988 503.922C290.375 504.48 290.794 505.022 291.212 505.549Z" fill="white"/>
<path d="M283 481.967C283 482.401 283.015 482.834 283.031 483.253L322.294 443.99C321.86 443.974 321.426 443.959 321.008 443.959C320.481 443.959 319.939 443.974 319.412 443.99L283.031 480.371C283.015 480.898 283 481.424 283 481.967Z" fill="white"/>
<path d="M288.113 462.909L301.95 449.072C296.217 452.403 291.444 457.176 288.113 462.909Z" fill="white"/>
<path d="M283.635 475.01L314.051 444.594C312.765 444.827 311.51 445.137 310.286 445.493L284.534 471.245C284.178 472.469 283.868 473.739 283.635 475.01Z" fill="white"/>
<path d="M283.868 490.04L329.08 444.827C328.274 444.657 327.469 444.502 326.648 444.378L283.418 487.607C283.542 488.428 283.697 489.234 283.868 490.04Z" fill="white"/>
<path d="M288.129 501.025L340.066 449.088C339.462 448.732 338.842 448.391 338.207 448.081L287.106 499.166C287.431 499.801 287.772 500.421 288.129 501.025Z" fill="white"/>
<path d="M285.634 495.897L334.937 446.593C334.24 446.315 333.543 446.067 332.83 445.834L284.875 493.774C285.107 494.487 285.355 495.199 285.634 495.897Z" fill="white"/>
</g>
<defs>
<clipPath id="clip0">
<rect width="76" height="76" fill="white" transform="translate(283 443.959)"/>
</clipPath>
</defs>
</svg>
