<svg width="90" height="90" viewBox="0 0 90 90" fill="none" xmlns="http://www.w3.org/2000/svg">
<mask id="mask0" mask-type="alpha" maskUnits="userSpaceOnUse" x="0" y="0" width="90" height="90">
<rect width="90" height="90" rx="45" fill="white"/>
</mask>
<g mask="url(#mask0)">
<rect width="90" height="90" rx="45" fill="white"/>
</g>
<g clip-path="url(#clip0)">
<path d="M10 46.8577C10 45.1077 11.5935 43.9482 14.2541 43.9268C14.8587 43.9268 15.4563 43.9766 16.0539 44.0691L16.1108 43.7632C16.3028 42.5823 15.6484 42.0346 14.3679 42.0346C13.5142 42.0417 12.6677 42.1911 11.8567 42.4614L11.7429 40.5335C12.6463 40.2348 13.6565 40 14.7876 40C17.6189 40 19.1341 41.3587 18.6006 44.1118L17.7185 48.7713C16.8933 49.1484 15.5559 49.5539 13.8486 49.5539C11.4583 49.561 10 48.4512 10 46.8577ZM15.748 45.627C15.2856 45.5346 14.8161 45.4848 14.3465 45.4848C13.2368 45.4848 12.6037 45.9827 12.6037 46.7012C12.6037 47.377 13.1941 47.7896 14.1545 47.7896C14.5742 47.7896 14.9939 47.7043 15.378 47.5407L15.748 45.627Z" fill="#114185"/>
<path d="M26.8882 42.4827C26.2195 42.1982 25.6433 42.0346 24.9176 42.0346C23.1748 42.0346 22.0437 43.4289 22.0437 45.3069C22.0437 46.9004 23.0183 47.5193 24.3628 47.5193C24.9746 47.5193 25.5863 47.3557 26.3546 47.0569L26.4115 49.0417C25.7002 49.3476 24.7825 49.561 23.6727 49.561C20.9339 49.561 19.3262 47.9035 19.3262 45.5772C19.3191 42.2195 21.5955 40 25.067 40C26.1626 40 27.0802 40.2348 27.7276 40.5335L26.8882 42.4827Z" fill="#114185"/>
<path d="M34.8131 42.4827C34.1444 42.1982 33.5682 42.0346 32.8425 42.0346C31.0997 42.0346 29.9686 43.4289 29.9686 45.3069C29.9686 46.9004 30.9432 47.5193 32.2877 47.5193C32.8995 47.5193 33.5112 47.3557 34.2795 47.0569L34.3364 49.0417C33.6251 49.3476 32.7074 49.561 31.5976 49.561C28.8588 49.561 27.2511 47.9035 27.2511 45.5772C27.2511 42.2195 29.5275 40 32.9991 40C34.0946 40 35.0123 40.2348 35.6596 40.5335L34.8131 42.4827Z" fill="#114185"/>
<path d="M43.9897 45.4136H37.9145C37.9927 46.9146 38.8748 47.4837 40.4612 47.4837C41.4999 47.4624 42.5242 47.2774 43.5059 46.936L42.5242 49.2551C41.6635 49.5965 41.0588 49.561 39.8281 49.561C37.0537 49.561 35.1757 48.0244 35.1757 45.4492C35.1757 42.6108 37.3596 40 40.6177 40C42.8017 40 44.4094 41.3587 44.4094 43.3079C44.4094 43.8913 44.2387 44.6809 43.9897 45.4136ZM41.9196 43.2866C41.9196 42.5041 41.3647 41.9634 40.4612 41.9634C39.3515 41.9634 38.4694 42.7317 38.1066 43.9126H41.82C41.884 43.7063 41.9125 43.5 41.9196 43.2866Z" fill="#114185"/>
<path d="M49.2469 42.0417C48.2866 42.0417 47.9238 42.3618 47.9238 42.7886C47.9238 44.0193 52.1209 43.7561 52.0996 46.4309C52.0783 48.3232 50.435 49.561 47.7886 49.561C46.4085 49.561 45.0853 49.3262 44.1321 48.9705L44.8577 46.9431C45.6046 47.2276 46.565 47.5122 47.6748 47.5122C48.9197 47.5122 49.4746 47.2276 49.4746 46.7297C49.4746 45.5488 45.2774 45.8191 45.2774 42.9096C45.2845 41.2663 46.7144 40 49.3252 40C50.6057 40 51.872 40.2134 52.6545 40.5193L51.9858 42.5183C50.9756 42.1982 49.9939 42.0417 49.2469 42.0417Z" fill="#114185"/>
<path d="M57.2361 42.0417C56.2757 42.0417 55.9129 42.3618 55.9129 42.7886C55.9129 44.0193 60.11 43.7561 60.0887 46.4309C60.0674 48.3232 58.4241 49.561 55.7777 49.561C54.3976 49.561 53.0745 49.3262 52.1212 48.9705L52.8468 46.9431C53.5938 47.2276 54.5541 47.5122 55.6639 47.5122C56.9088 47.5122 57.4637 47.2276 57.4637 46.7297C57.4637 45.5488 53.2665 45.8191 53.2665 42.9096C53.2665 41.2663 54.7035 40 57.3072 40C58.5877 40 59.854 40.2134 60.6365 40.5193L59.9678 42.5183C58.9576 42.1982 57.983 42.0417 57.2361 42.0417Z" fill="#114185"/>
<path d="M80.0002 45.1361L78.5774 43.7133L75.1913 40.3271L73.6262 41.8922L77.0124 45.2784L73.7116 48.5863L75.1272 50.002L78.4352 46.7011L80.0002 45.1361Z" fill="#F2802B"/>
<path d="M74.4372 45.1361L73.0216 43.7133L69.6283 40.3271L68.0632 41.8922L71.4565 45.2784L68.1486 48.5863L69.5714 50.002L72.8722 46.7011L74.4372 45.1361Z" fill="#F2802B"/>
<path d="M68.8813 45.1361L67.4585 43.7133L64.0724 40.3271L62.5073 41.8922L65.8935 45.2784L62.5856 48.5863L64.0083 50.002L67.3163 46.7011L68.8813 45.1361Z" fill="#F2802B"/>
</g>
<defs>
<clipPath id="clip0">
<rect width="70" height="10.002" fill="white" transform="translate(10 40)"/>
</clipPath>
</defs>
</svg>
