<svg width="27" height="32" viewBox="0 0 27 32" fill="none" xmlns="http://www.w3.org/2000/svg">
<path d="M22.5326 16.8227C22.4882 12.9383 25.8645 11.0456 26.0274 10.9609C24.1171 8.30543 21.1555 7.93818 20.1189 7.90993C17.6311 7.65569 15.2174 9.32241 13.9587 9.32241C12.6704 9.32241 10.7157 7.92406 8.61293 7.96643C5.90303 8.00881 3.37082 9.50603 1.99366 11.8225C-0.864325 16.5543 1.26806 23.5037 4.00758 27.3315C5.38474 29.2101 6.98402 31.3005 9.08679 31.2158C11.1451 31.131 11.9152 29.9728 14.3881 29.9728C16.8463 29.9728 17.5571 31.2158 19.7043 31.1734C21.9107 31.1452 23.3027 29.2948 24.6206 27.4021C26.2051 25.2551 26.8418 23.1364 26.8714 23.0375C26.7974 23.0234 22.5771 21.4838 22.5326 16.8227Z" fill="white"/>
<path d="M18.4903 5.71128C19.6009 4.39767 20.3561 2.60383 20.134 0.781738C18.5347 0.852362 16.5356 1.84109 15.3806 3.12645C14.3588 4.25643 13.4555 6.12089 13.6925 7.87236C15.4842 7.99949 17.3353 7.01075 18.4903 5.71128Z" fill="white"/>
</svg>
