<svg width="80" height="80" viewBox="0 0 80 80" fill="none" xmlns="http://www.w3.org/2000/svg">
<rect width="80" height="80" fill="white"/>
<path d="M56.4531 39.3087H44.9115C43.8025 39.3087 42.9043 38.4105 42.9043 37.3015V25.7599C42.9043 24.6509 43.8025 23.7527 44.9115 23.7527H56.4531C57.5621 23.7527 58.4603 24.6509 58.4603 25.7599V37.3015C58.4603 38.4105 57.5621 39.3087 56.4531 39.3087Z" stroke="#6B38F5" stroke-width="3" stroke-miterlimit="10" stroke-linecap="round" stroke-linejoin="round"/>
<path d="M15 59.4372L23.4906 43.4194L31.9812 59.4372H15Z" fill="#1DCF9F" fill-opacity="0.4"/>
<path d="M16.9473 59.8431L25.4379 43.8254L33.9285 59.8431H16.9473Z" stroke="#6B38F5" stroke-width="3" stroke-miterlimit="10" stroke-linecap="round" stroke-linejoin="round"/>
<path d="M24.4316 22.377L33.7126 31.6579" stroke="#1DCF9F" stroke-miterlimit="10" stroke-linecap="round" stroke-linejoin="round"/>
<path d="M19.9473 24.916L31.1752 36.144" stroke="#1DCF9F" stroke-miterlimit="10" stroke-linecap="round" stroke-linejoin="round"/>
<path d="M17.4053 29.4023L26.6862 38.6832" stroke="#1DCF9F" stroke-miterlimit="10" stroke-linecap="round" stroke-linejoin="round"/>
<path d="M25.438 39.0615C30.1494 39.0615 33.9687 35.2421 33.9687 30.5307C33.9687 25.8193 30.1494 22 25.438 22C20.7266 22 16.9072 25.8193 16.9072 30.5307C16.9072 35.2421 20.7266 39.0615 25.438 39.0615Z" stroke="#6B38F5" stroke-miterlimit="10" stroke-linecap="round" stroke-linejoin="round"/>
<path d="M41.1037 51.5971L49.2656 43.4352C50.0484 42.6524 51.3205 42.6524 52.1033 43.4352L60.2653 51.5971C61.0481 52.3799 61.0481 53.652 60.2653 54.4348L52.1033 62.5967C51.3205 63.3796 50.0484 63.3796 49.2656 62.5967L41.1037 54.4348C40.3209 53.652 40.3209 52.3824 41.1037 51.5971Z" stroke="#1DCF9F" stroke-miterlimit="10" stroke-linecap="round" stroke-linejoin="round"/>
<path d="M46.9191 54.1477C47.5427 54.1477 48.0482 53.6422 48.0482 53.0187C48.0482 52.3951 47.5427 51.8896 46.9191 51.8896C46.2955 51.8896 45.79 52.3951 45.79 53.0187C45.79 53.6422 46.2955 54.1477 46.9191 54.1477Z" fill="#6B38F5"/>
<path d="M50.6838 54.1469C51.3073 54.1469 51.8128 53.6414 51.8128 53.0179C51.8128 52.3943 51.3073 51.8888 50.6838 51.8888C50.0602 51.8888 49.5547 52.3943 49.5547 53.0179C49.5547 53.6414 50.0602 54.1469 50.6838 54.1469Z" fill="#6B38F5"/>
<path d="M54.4465 54.1464C55.07 54.1464 55.5755 53.6409 55.5755 53.0174C55.5755 52.3938 55.07 51.8883 54.4465 51.8883C53.8229 51.8883 53.3174 52.3938 53.3174 53.0174C53.3174 53.6409 53.8229 54.1464 54.4465 54.1464Z" fill="#6B38F5"/>
<circle cx="8.06231" cy="17.0619" r="2.5" transform="rotate(75 8.06231 17.0619)" fill="#8EE7CF"/>
<circle cx="64.7735" cy="60.7739" r="1.86486" transform="rotate(75 64.7735 60.7739)" stroke="#1A1038" stroke-width="0.8"/>
<path d="M2.34405 57.681L1.98599 54.6218L4.81441 55.8413L2.34405 57.681Z" stroke="#210F60" stroke-width="0.4"/>
<path d="M70.1464 34.1363L72.517 35.3006L70.3233 36.7714L70.1464 34.1363Z" stroke="#210F60" stroke-width="0.4"/>
</svg>
