<svg width="80" height="80" viewBox="0 0 80 80" fill="none" xmlns="http://www.w3.org/2000/svg">
<rect width="80" height="80" fill="white"/>
<path opacity="0.4" d="M34.1382 48.9904C38.4936 48.9904 42.0244 45.4943 42.0244 41.1818C42.0244 36.8692 38.4936 33.3732 34.1382 33.3732C29.7827 33.3732 26.252 36.8692 26.252 41.1818C26.252 45.4943 29.7827 48.9904 34.1382 48.9904Z" fill="#41D9AF"/>
<path d="M34.1382 48.9904C38.4936 48.9904 42.0244 45.4943 42.0244 41.1818C42.0244 36.8692 38.4936 33.3732 34.1382 33.3732C29.7827 33.3732 26.252 36.8692 26.252 41.1818C26.252 45.4943 29.7827 48.9904 34.1382 48.9904Z" stroke="#6B38F5" stroke-width="3" stroke-miterlimit="10"/>
<path d="M34.1375 43.2276C35.2786 43.2276 36.2037 42.3117 36.2037 41.1818C36.2037 40.0519 35.2786 39.1359 34.1375 39.1359C32.9964 39.1359 32.0713 40.0519 32.0713 41.1818C32.0713 42.3117 32.9964 43.2276 34.1375 43.2276Z" stroke="#6B38F5" stroke-width="4" stroke-miterlimit="10"/>
<path d="M34.1375 43.2276C35.2786 43.2276 36.2037 42.3117 36.2037 41.1818C36.2037 40.0519 35.2786 39.1359 34.1375 39.1359C32.9964 39.1359 32.0713 40.0519 32.0713 41.1818C32.0713 42.3117 32.9964 43.2276 34.1375 43.2276Z" fill="white"/>
<path d="M52.2767 40.9598C52.2767 50.8793 44.1565 58.9195 34.1383 58.9195C24.1202 58.9195 16 50.8793 16 40.9598C16 31.0402 24.1202 23 34.1383 23" stroke="#6B38F5" stroke-width="3" stroke-miterlimit="10" stroke-linecap="round" stroke-linejoin="round"/>
<path d="M46.2889 28.7118L45.2109 24.9535L49.7774 20.4231L50.8971 24.1516L46.2889 28.7118Z" stroke="#6B38F5" stroke-width="2" stroke-miterlimit="10" stroke-linecap="round" stroke-linejoin="round"/>
<path d="M46.2891 28.7121L50.09 29.7847L54.6538 25.2543L50.8973 24.1519L46.2891 28.7121Z" stroke="#6B38F5" stroke-width="2" stroke-miterlimit="10" stroke-linecap="round" stroke-linejoin="round"/>
<path d="M50.8618 24.1331L35.3574 39.4847" stroke="#6B38F5" stroke-width="2" stroke-miterlimit="10"/>
<circle cx="18.0623" cy="17.0619" r="2.5" transform="rotate(75 18.0623 17.0619)" fill="#8EE7CF"/>
<circle cx="55.4116" cy="60.4121" r="3.20248" transform="rotate(75 55.4116 60.4121)" stroke="#8EE7CF" stroke-width="0.8"/>
<path d="M7.82693 61.7965L7.37197 57.9094L10.9658 59.4589L7.82693 61.7965Z" stroke="#210F60" stroke-width="0.4"/>
<path d="M64.2001 29.783L66.5707 30.9473L64.3771 32.4181L64.2001 29.783Z" stroke="#210F60" stroke-width="0.4"/>
</svg>
