<svg width="90" height="90" viewBox="0 0 90 90" fill="none" xmlns="http://www.w3.org/2000/svg">
<mask id="mask0" mask-type="alpha" maskUnits="userSpaceOnUse" x="0" y="0" width="90" height="90">
<rect width="90" height="90" rx="45" fill="white"/>
</mask>
<g mask="url(#mask0)">
<rect width="90" height="90" rx="45" fill="white"/>
</g>
<g clip-path="url(#clip0)">
<path d="M27.0866 64.777H25.2638L25.2873 63.8967V58.3928C25.2826 58.1467 25.2685 57.9006 25.2402 57.6545C25.2308 57.5362 25.2025 57.4227 25.1649 57.3091C25.1178 57.2144 25.0612 57.1292 25 57.0441L25.0942 56.7932H27.1149L29.3428 56.7554C29.4841 56.9636 29.5688 57.205 29.5877 57.4558C29.6159 57.7113 29.583 57.9669 29.4982 58.2082H29.2203C29.1826 58.0379 29.0507 57.8912 28.8246 57.7681C28.5986 57.6498 28.3536 57.5788 28.0993 57.5694L27.0348 57.522C26.983 58.4449 26.9594 59.363 26.9594 60.2764H28.4714C28.5938 60.2764 28.688 60.2764 28.754 60.2716C28.8388 60.2622 28.9188 60.2432 28.9989 60.2148C29.0884 60.1817 29.1732 60.1296 29.2438 60.0634C29.2721 60.2006 29.2815 60.3379 29.2862 60.4751C29.2862 60.972 28.9188 61.2229 28.1841 61.2229C28.0333 61.2229 27.8214 61.2181 27.5482 61.2134C27.275 61.2039 27.0725 61.1992 26.95 61.2039C26.9453 61.7245 26.95 62.2971 26.9688 62.9171L26.9877 63.8541L27.0159 64.228C27.0112 64.4126 27.0395 64.5971 27.0866 64.777Z" fill="#11237D"/>
<path d="M32.4844 62.1599C32.4844 63.2815 32.5268 64.1523 32.6162 64.777H30.9206L30.9865 60.6786C30.9912 60.4562 30.9677 60.229 30.9206 60.0113C30.8923 59.8599 30.8405 59.7132 30.7746 59.5807C30.7275 59.4955 30.6615 59.415 30.5909 59.3488C30.5485 59.3015 30.4967 59.2683 30.4402 59.2399C30.4166 59.2305 30.3931 59.2257 30.3695 59.221V59.0033C30.8311 58.7194 31.2644 58.5821 31.6742 58.5821C32.2583 58.5821 32.5503 58.9654 32.5503 59.7274C32.5503 59.8457 32.5409 60.0445 32.522 60.3237C32.5032 60.6029 32.4938 60.8206 32.4938 60.9768V62.1599H32.4844ZM30.7793 57.044C30.7746 56.8169 30.8641 56.6039 31.0289 56.4478C31.1844 56.2868 31.401 56.2017 31.6271 56.2017C31.8438 56.2017 32.051 56.2868 32.197 56.4478C32.3525 56.6039 32.442 56.8216 32.4373 57.044C32.442 57.257 32.3525 57.4652 32.197 57.6119C32.0463 57.7634 31.8438 57.8486 31.6271 57.8486C31.4057 57.8533 31.1891 57.7681 31.0289 57.6119C30.8688 57.4652 30.7793 57.2617 30.7793 57.044Z" fill="#11237D"/>
<path d="M40.1054 64.3087V64.5737C39.6297 64.8151 39.187 64.9381 38.7772 64.9381C38.5699 64.9334 38.3674 64.8719 38.1931 64.763C37.9953 64.6542 37.8399 64.4791 37.7504 64.2709C37.2275 64.711 36.6859 64.9334 36.1207 64.9334C35.8098 64.9334 35.4989 64.8813 35.2069 64.7678C34.9149 64.6542 34.6511 64.4838 34.4203 64.2709C34.1801 64.0484 33.9917 63.7503 33.8551 63.3669C33.7185 62.9836 33.6478 62.5435 33.6478 62.0418C33.6478 61.7106 33.6902 61.3793 33.7703 61.0575C33.8504 60.7262 33.9775 60.4091 34.1471 60.111C34.312 59.8128 34.5145 59.5431 34.75 59.3017C34.9949 59.0604 35.2822 58.8711 35.5978 58.7433C35.937 58.6013 36.3044 58.5303 36.6717 58.535C36.8649 58.5398 37.058 58.5634 37.2464 58.6013C37.4678 58.6439 37.5761 58.677 37.5761 58.6912C37.5761 58.4451 37.5761 58.218 37.5714 58.005C37.5667 57.7968 37.562 57.6027 37.5525 57.4324C37.5478 57.2762 37.529 57.1248 37.5007 56.9733C37.4772 56.8503 37.4442 56.732 37.3971 56.6184C37.317 56.4243 37.1522 56.2729 36.9496 56.2114V55.9937L37.1145 55.9038C37.2605 55.8281 37.4207 55.7665 37.5808 55.7239C37.7692 55.6671 37.9623 55.6388 38.1601 55.634C38.3062 55.6293 38.4522 55.6482 38.5982 55.6813C38.7159 55.7145 38.8196 55.776 38.9091 55.8612C39.0127 55.97 39.0833 56.1073 39.1116 56.254C39.1587 56.4717 39.1823 56.6941 39.1775 56.9165V57.068C39.1775 57.139 39.1681 57.404 39.1493 57.8678C39.1304 58.3316 39.1069 58.8947 39.088 59.5667C39.0645 60.234 39.0551 60.8587 39.0551 61.4408C39.0551 61.7721 39.0551 62.0466 39.0598 62.2595C39.0645 62.4725 39.0692 62.6855 39.0833 62.8984C39.0928 63.0641 39.1069 63.2344 39.1304 63.4001C39.1493 63.5231 39.1775 63.6414 39.2152 63.7597C39.2388 63.8544 39.2812 63.9443 39.3424 64.02C39.3942 64.0816 39.4601 64.1336 39.5308 64.1715C39.6062 64.2188 39.6909 64.2519 39.7804 64.2661C39.8888 64.2945 39.9971 64.3087 40.1054 64.3087ZM36.7424 64.0674C37.0627 64.0674 37.3217 63.9964 37.529 63.8497L37.5431 62.4678V59.4721C37.1098 59.368 36.7848 59.3159 36.5728 59.3159C36.3373 59.3112 36.1065 59.3916 35.9228 59.5431C35.7344 59.704 35.5884 59.9075 35.5036 60.1394C35.4094 60.3807 35.3435 60.6268 35.2964 60.8824C35.254 61.1285 35.2304 61.384 35.2304 61.6348C35.2304 62.3968 35.3717 62.9931 35.6496 63.4237C35.9322 63.8544 36.2949 64.0674 36.7424 64.0674Z" fill="#11237D"/>
<path d="M45.4092 61.4219L45.3008 61.4693C45.0983 61.5497 44.8298 61.5876 44.486 61.5876L41.8059 61.5497C41.8153 61.6396 41.8153 61.7863 41.8153 61.9946C41.8295 62.5767 42.0085 63.0357 42.3429 63.367C42.682 63.6983 43.0541 63.8639 43.4686 63.8639C43.8407 63.8592 44.2081 63.7787 44.5472 63.6226C44.9099 63.4569 45.2302 63.173 45.5081 62.766C45.574 63.0073 45.574 63.2581 45.5081 63.4995C45.4422 63.7267 45.3244 63.9349 45.1548 64.1053C44.9758 64.2851 44.7733 64.4318 44.5472 64.5501C44.307 64.6779 44.0479 64.7773 43.7795 64.8388C43.5063 64.9003 43.2284 64.9335 42.9458 64.9335C42.6066 64.9382 42.2675 64.8814 41.9472 64.7678C41.6364 64.6542 41.3537 64.4839 41.1088 64.2614C40.8592 64.039 40.6566 63.7361 40.5106 63.3528C40.3646 62.9742 40.2845 62.5388 40.2845 62.0419C40.2845 61.3983 40.3976 60.8114 40.619 60.2861C40.8403 59.7608 41.1606 59.3444 41.5845 59.0415C41.999 58.7339 42.503 58.573 43.0211 58.5824C43.3085 58.5777 43.5958 58.6156 43.8737 58.696C44.0951 58.7575 44.307 58.8522 44.5001 58.9847C44.665 59.103 44.8063 59.245 44.924 59.4106C45.0324 59.5573 45.1219 59.7182 45.1972 59.8839C45.2632 60.0448 45.3103 60.2104 45.3385 60.3808C45.3668 60.5228 45.3856 60.6695 45.3998 60.8162C45.4092 60.925 45.4092 61.0339 45.4092 61.1474V61.4219ZM42.9411 59.316C42.7856 59.3112 42.6349 59.3586 42.5077 59.4437C42.3711 59.5431 42.2628 59.6709 42.1874 59.8223C42.1027 59.988 42.0273 60.1631 41.9708 60.3429C41.9048 60.5559 41.853 60.7688 41.8153 60.9865C42.0461 60.9818 42.3994 60.9723 42.8657 60.9534C43.332 60.9345 43.6947 60.9203 43.9537 60.9156C43.949 60.7263 43.9302 60.537 43.8878 60.3571C43.8501 60.1773 43.7889 60.0069 43.7088 59.846C43.6382 59.6946 43.5251 59.5621 43.3885 59.4627C43.2614 59.3633 43.1012 59.316 42.9411 59.316Z" fill="#11237D"/>
<path d="M48.494 64.7771H46.7984C46.8219 63.5467 46.836 62.4062 46.836 61.3603L46.8643 57.5837C46.8643 57.1862 46.7984 56.8739 46.6712 56.6372C46.544 56.4006 46.4027 56.2634 46.2426 56.216V55.9983L46.4074 55.9084C46.5581 55.8327 46.7183 55.7712 46.8878 55.7286C47.081 55.6718 47.2788 55.6434 47.4766 55.6387C47.8534 55.6387 48.1125 55.7381 48.2538 55.9321C48.3951 56.1261 48.4657 56.429 48.4657 56.836C48.4657 57.0821 48.4563 57.366 48.4281 57.6831C48.3763 58.5397 48.3527 59.595 48.3527 60.8444V62.3778C48.3527 62.8179 48.3621 63.2391 48.381 63.6508C48.4092 64.0247 48.4422 64.4033 48.494 64.7771Z" fill="#11237D"/>
<path d="M51.7349 62.1599C51.7349 63.2815 51.7773 64.1523 51.8668 64.777H50.1712L50.2371 60.6786C50.2418 60.4562 50.2183 60.229 50.1712 60.0113C50.1429 59.8599 50.0958 59.7132 50.0251 59.5807C49.978 59.4955 49.9121 59.415 49.8414 59.3488C49.7991 59.3015 49.7472 59.2683 49.686 59.2399C49.6625 59.2305 49.6389 59.2257 49.6154 59.221V59.0033C50.077 58.7194 50.5103 58.5821 50.9201 58.5821C51.5041 58.5821 51.7962 58.9654 51.7914 59.7274C51.7914 59.8457 51.782 60.0445 51.7632 60.3237C51.7443 60.6029 51.7349 60.8206 51.7349 60.9768V62.1599ZM50.0251 57.044C50.0204 56.8216 50.1099 56.6039 50.2748 56.4478C50.4302 56.2868 50.6469 56.2017 50.873 56.2017C51.0896 56.2017 51.2969 56.2868 51.4429 56.4478C51.5983 56.6039 51.6878 56.8216 51.6831 57.044C51.6878 57.257 51.5983 57.4652 51.4429 57.6119C51.2922 57.7634 51.0849 57.8486 50.873 57.8486C50.6516 57.8533 50.4349 57.7681 50.2748 57.6119C50.1146 57.4652 50.0251 57.2617 50.0251 57.044Z" fill="#11237D"/>
<path d="M55.4042 57.707L55.2676 58.7056H56.398C56.5252 58.7056 56.6524 58.6914 56.7795 58.663C56.9161 58.6346 57.0009 58.5825 57.0386 58.5116C57.0621 58.6062 57.0763 58.7009 57.0763 58.8002C57.0763 59.283 56.7277 59.5243 56.0353 59.5243C55.9741 59.5243 55.8422 59.5196 55.6444 59.5054C55.4466 59.4912 55.31 59.4865 55.2393 59.4865V62.1935C55.2346 62.307 55.2346 62.4253 55.2393 62.5531C55.244 62.6809 55.2487 62.8039 55.2534 62.927C55.2582 63.0453 55.277 63.1636 55.3147 63.2772C55.3429 63.3813 55.3853 63.4807 55.4419 63.5706C55.4937 63.6558 55.5737 63.7268 55.6632 63.7741C55.7669 63.8262 55.8846 63.8546 56.0024 63.8498C56.2614 63.8498 56.5158 63.8072 56.7654 63.7315C57.0292 63.6511 57.194 63.547 57.26 63.4097C57.3636 63.6511 57.34 63.9256 57.194 64.148C57.048 64.3893 56.8219 64.5786 56.5111 64.7253C56.2002 64.8673 55.8611 64.943 55.5172 64.9383C55.1498 64.9383 54.8437 64.8957 54.5987 64.8105C54.3774 64.7395 54.1842 64.5976 54.0477 64.413C53.9205 64.2284 53.831 64.0249 53.7886 63.8072C53.7368 63.5328 53.7132 63.2488 53.7179 62.9696C53.7179 62.6714 53.7368 62.2313 53.7745 61.6445C53.8121 61.0577 53.831 60.6317 53.831 60.3572C53.831 59.8935 53.7933 59.619 53.7274 59.529C53.5719 59.3303 53.36 59.1788 53.1198 59.0937L53.1763 58.734C53.2234 58.734 53.2705 58.7245 53.3176 58.7103C53.4118 58.6819 53.5013 58.6441 53.5908 58.6015C53.7462 58.521 53.8875 58.4169 54.0053 58.2891C54.1748 58.1188 54.3161 57.9247 54.4339 57.7118H55.4042V57.707Z" fill="#11237D"/>
<path d="M61.0375 64.763L60.8962 64.7062C60.7785 64.6542 60.6701 64.5785 60.5806 64.4838C60.4676 64.3797 60.3875 64.2472 60.3404 64.1005L59.2853 60.7593C59.2194 60.5322 59.1299 60.3097 59.0263 60.0968C58.9509 59.9359 58.8614 59.7844 58.7578 59.6425C58.6872 59.5431 58.6071 59.4532 58.5176 59.3727C58.4611 59.3206 58.4045 59.2733 58.3386 59.2307C58.3103 59.2118 58.2821 59.1976 58.2491 59.1881L58.235 58.9704C58.3998 58.8569 58.5741 58.7669 58.7625 58.7007C58.9509 58.625 59.1488 58.5871 59.3513 58.5824C59.6904 58.5824 59.9401 58.6628 60.0955 58.8237C60.2509 58.9846 60.3781 59.2402 60.4723 59.5904C60.5524 60.0447 60.868 61.0385 61.419 62.5719L61.5651 62.87C61.6546 63.0499 61.7017 63.154 61.7111 63.1776L61.7676 62.9315C61.8006 62.7896 61.843 62.6523 61.8901 62.5151L62.6531 60.3476C62.7614 60.04 62.818 59.7844 62.818 59.5904C62.818 59.3964 62.752 59.2591 62.6154 59.1834L62.5919 58.9657C62.8651 58.7291 63.2089 58.5966 63.5669 58.5776C63.8495 58.5776 63.9908 58.7243 63.9908 59.0225C63.9908 59.2307 63.8919 59.5809 63.6893 60.0778L61.2824 65.9745C61.1977 66.1875 61.1223 66.3579 61.0658 66.4904C61.0046 66.6229 60.9292 66.7743 60.8397 66.9542C60.7643 67.1056 60.6654 67.2523 60.5524 67.3801C60.4488 67.4937 60.3357 67.5978 60.2132 67.6972C60.0861 67.8013 59.9353 67.8818 59.7752 67.9243C59.6009 67.9717 59.4219 67.9953 59.243 67.9953C58.8803 67.9953 58.5977 67.8581 58.3904 67.5836C58.1832 67.3091 58.1219 66.9684 58.202 66.5614C58.2821 66.6608 58.4093 66.7412 58.5835 66.8027C58.7531 66.8643 58.9321 66.8974 59.1111 66.8974C59.4078 66.8974 59.6669 66.8406 59.8741 66.7318C60.0767 66.6324 60.2321 66.462 60.3216 66.2538L60.8868 65.0138L61.0375 64.763Z" fill="#11237D"/>
<path d="M57.2882 22.0852C56.9915 22.0284 56.6853 22 56.3792 22H27.8404C27.6991 22 27.5861 22.1136 27.5861 22.2556V46.3014C27.5861 47.442 27.9723 48.5494 28.6788 49.4438C36.9121 46.2399 51.3911 35.0523 57.9241 22.2414C57.7169 22.1751 57.5049 22.123 57.2882 22.0852Z" fill="#11237D"/>
<path d="M61.419 27.0638V51.1049C61.419 51.2469 61.3059 51.3605 61.1646 51.3605H32.6211C31.8628 51.3605 31.1139 51.1901 30.4309 50.8588C38.8197 47.4845 53.3458 36.136 59.6903 23.2446C60.7925 24.2101 61.419 25.6014 61.419 27.0638Z" fill="#4DC247"/>
</g>
<defs>
<clipPath id="clip0">
<rect width="39" height="46" fill="white" transform="translate(25 22)"/>
</clipPath>
</defs>
</svg>
