<svg width="90" height="90" viewBox="0 0 90 90" fill="none" xmlns="http://www.w3.org/2000/svg">
<mask id="mask0" mask-type="alpha" maskUnits="userSpaceOnUse" x="0" y="0" width="90" height="90">
<rect width="90" height="90" rx="45" fill="white"/>
</mask>
<g mask="url(#mask0)">
<rect width="90" height="90" rx="45" fill="white"/>
<path d="M25 25H64.5238V65H25V25Z" fill="#D94F00"/>
<path d="M47.4899 32.7549H57.6191V42.9046H47.4899V32.7549ZM35.2382 48.0474V49.0406H36.9865V54.2923H38.1906V48.9998H39.8164V48.0066L35.2382 48.0474ZM34.3402 49.2787V48.2855C33.3742 47.8501 32.2654 47.7141 31.1293 48.2855C29.2654 49.1222 29.1974 53.2515 31.0613 54.0542C32.1361 54.5984 34.3674 54.3467 34.5919 53.8705V50.5984H32.3674V51.4556H33.347V53.1767C30.1293 54.7413 29.5375 47.2379 34.3402 49.2787ZM41.7756 51.408H42.9253C43.8776 51.4488 44.1293 53.2447 42.8844 53.2379H41.7756V51.408ZM41.7756 48.8773H42.9253C43.8776 49.0474 43.5375 50.4692 42.8844 50.5032H41.7756V48.8773ZM40.5851 47.9114V54.2379H43.7484C45.3606 53.6529 45.4287 51.1563 43.7484 50.891C45.2994 50.7209 45.3742 47.8705 42.7008 47.8705L40.5851 47.9114ZM46.1634 49.6869V50.6256C47.0069 50.3876 48.8504 49.7277 48.6736 51.129C47.0613 51.0202 45.9593 51.3127 45.7756 52.3195C45.4695 54.4896 47.8028 54.7005 48.7756 53.6325V54.1495H49.8844V50.3399C49.6191 49.1018 47.7756 48.9454 46.1634 49.6869ZM47.1021 52.1359C47.3538 51.8025 48.1633 51.8161 48.7008 51.9794V52.8161C47.8164 53.7617 46.3878 53.3263 47.1021 52.1359ZM52.1974 50.8093C52.4899 50.4896 54.0341 49.8978 54.2722 50.8093V54.1699H55.5171V50.612C55.2518 49.129 53.8368 48.8637 52.1157 49.8705V49.3127H50.9389V54.1971H52.1838L52.1974 50.8093ZM59.4151 49.2583L57.7892 51.4488L59.5103 54.1359L61.0069 54.095L59.1157 51.5168L60.8232 49.3059L59.4151 49.2583ZM56.4423 47.6597H57.6736V54.1291H56.4423V47.6597Z" fill="white"/>
<path d="M47.4896 32.7549H57.6189V42.9045H47.4896V32.7549Z" fill="white"/>
</g>
</svg>
