<svg width="80" height="80" viewBox="0 0 80 80" fill="none" xmlns="http://www.w3.org/2000/svg">
<rect width="80" height="80" fill="white"/>
<path d="M42.5891 35.3707C42.4621 31.9264 39.9659 29.2226 37.0137 29.3315" stroke="#1DCF9F" stroke-linecap="round" stroke-linejoin="round"/>
<rect opacity="0.4" x="31.165" y="51.603" width="8.84164" height="3.68402" fill="#41D9AF"/>
<path d="M47.366 35.8111C47.534 39.9827 45.5799 43.7098 42.4896 46.009C40.8428 47.2345 39.8591 49.1509 39.8591 51.1992V54.1299C39.8591 55.1024 39.0678 55.89 38.0907 55.89H32.3434C31.3664 55.89 30.575 55.1024 30.575 54.1299V51.197C30.575 49.1487 29.5891 47.2323 27.9401 46.0046C24.978 43.7978 23.0615 40.2753 23.0615 36.3083C23.0615 29.4349 28.8155 23.9037 35.7896 24.2205C42.0475 24.5043 47.1162 29.5802 47.366 35.8111Z" stroke="#6B38F5" stroke-width="3" stroke-miterlimit="10" stroke-linecap="round" stroke-linejoin="round"/>
<path d="M31.165 51.4692H39.2699" stroke="#6B38F5" stroke-miterlimit="10" stroke-linecap="round" stroke-linejoin="round"/>
<path d="M35.5889 55.89V57.3636" stroke="#6B38F5" stroke-width="3" stroke-miterlimit="10" stroke-linecap="round" stroke-linejoin="round"/>
<path opacity="0.4" d="M53.3389 24.809C54.2909 24.809 55.0626 24.0372 55.0626 23.0853C55.0626 22.1333 54.2909 21.3616 53.3389 21.3616C52.387 21.3616 51.6152 22.1333 51.6152 23.0853C51.6152 24.0372 52.387 24.809 53.3389 24.809Z" fill="#41D9AF"/>
<path opacity="0.4" d="M53.3389 51.1569C54.2909 51.1569 55.0626 50.3851 55.0626 49.4332C55.0626 48.4812 54.2909 47.7095 53.3389 47.7095C52.387 47.7095 51.6152 48.4812 51.6152 49.4332C51.6152 50.3851 52.387 51.1569 53.3389 51.1569Z" fill="#41D9AF"/>
<path d="M58.5128 37.8597C59.4647 37.8597 60.2365 37.088 60.2365 36.136C60.2365 35.1841 59.4647 34.4124 58.5128 34.4124C57.5608 34.4124 56.7891 35.1841 56.7891 36.136C56.7891 37.088 57.5608 37.8597 58.5128 37.8597Z" fill="#41D9AF"/>
<path opacity="0.4" d="M16.8936 24.809C17.8456 24.809 18.6173 24.0372 18.6173 23.0853C18.6173 22.1333 17.8456 21.3616 16.8936 21.3616C15.9416 21.3616 15.1699 22.1333 15.1699 23.0853C15.1699 24.0372 15.9416 24.809 16.8936 24.809Z" fill="#41D9AF"/>
<path opacity="0.4" d="M16.8936 51.1569C17.8456 51.1569 18.6173 50.3851 18.6173 49.4332C18.6173 48.4812 17.8456 47.7095 16.8936 47.7095C15.9416 47.7095 15.1699 48.4812 15.1699 49.4332C15.1699 50.3851 15.9416 51.1569 16.8936 51.1569Z" fill="#41D9AF"/>
<path d="M11.7237 37.8597C12.6757 37.8597 13.4474 37.088 13.4474 36.136C13.4474 35.1841 12.6757 34.4124 11.7237 34.4124C10.7717 34.4124 10 35.1841 10 36.136C10 37.088 10.7717 37.8597 11.7237 37.8597Z" fill="#41D9AF"/>
<circle cx="14.1966" cy="11.4659" r="1.37642" transform="rotate(75 14.1966 11.4659)" fill="#1A1038"/>
<circle cx="56.7166" cy="60.677" r="2.01822" transform="rotate(75 56.7166 60.677)" stroke="#1A1038" stroke-width="0.4"/>
<path d="M10.6518 65.7166L5.75833 62.2457L11.2109 59.7433L10.6518 65.7166Z" stroke="#6B38F5" stroke-width="0.4"/>
<path d="M48.4566 9.98565L52.1726 11.8108L48.734 14.1164L48.4566 9.98565Z" stroke="#6B38F5" stroke-width="0.4"/>
</svg>
