<svg width="497" height="167" viewBox="0 0 497 167" fill="none" xmlns="http://www.w3.org/2000/svg">
<g clip-path="url(#clip0)">
<path d="M474.209 28.3794L494.38 8.20819C494.251 7.95742 494.117 7.71278 493.982 7.47424L473.475 27.9758C473.713 28.1164 473.958 28.251 474.209 28.3794Z" fill="#41D9AF"/>
<path d="M476.338 29.2599L495.261 10.3363C495.169 10.055 495.072 9.77363 494.962 9.50452L475.506 28.9602C475.775 29.0703 476.056 29.1681 476.338 29.2599Z" fill="#41D9AF"/>
<path d="M472.33 27.2414L493.241 6.33008C493.082 6.1099 492.923 5.89583 492.752 5.68176L471.688 26.7582C471.895 26.9234 472.11 27.0885 472.33 27.2414Z" fill="#41D9AF"/>
<path d="M493.982 22.5201L488.514 27.988C490.783 26.6669 492.667 24.7831 493.982 22.5201Z" fill="#41D9AF"/>
<path d="M485.228 29.3947L495.394 19.2295C495.534 18.7402 495.657 18.2448 495.748 17.7433L483.742 29.7494C484.244 29.6577 484.745 29.5353 485.228 29.3947Z" fill="#41D9AF"/>
<path d="M478.771 29.835L495.835 12.7708C495.786 12.4466 495.725 12.1286 495.658 11.8105L477.811 29.6576C478.129 29.731 478.447 29.7861 478.771 29.835Z" fill="#41D9AF"/>
<path d="M481.004 30.0001C481.212 30.0001 481.426 29.994 481.634 29.9878L495.989 15.6331C495.995 15.4251 496.001 15.2172 496.001 15.0031C496.001 14.8319 495.995 14.6606 495.989 14.4955L480.49 29.9878C480.661 29.994 480.833 30.0001 481.004 30.0001Z" fill="#41D9AF"/>
<path d="M470.68 25.8841L491.885 4.67916C491.701 4.48344 491.512 4.29384 491.316 4.11035L470.117 25.3214C470.301 25.511 470.49 25.7006 470.68 25.8841Z" fill="#41D9AF"/>
<path d="M469.241 24.312L490.311 3.24162C490.097 3.07648 489.883 2.91134 489.663 2.75232L468.758 23.6698C468.911 23.8899 469.076 24.104 469.241 24.312Z" fill="#41D9AF"/>
<path d="M466 15.0031C466 15.1743 466.006 15.3456 466.012 15.5107L481.511 0.0122324C481.339 0.00611621 481.168 0 481.003 0C480.795 0 480.581 0.00611621 480.373 0.0122324L466.012 14.3731C466.006 14.581 466 14.789 466 15.0031Z" fill="#41D9AF"/>
<path d="M468.02 7.48008L473.481 2.01831C471.218 3.3333 469.335 5.21709 468.02 7.48008Z" fill="#41D9AF"/>
<path d="M466.252 12.257L478.258 0.250854C477.75 0.342598 477.255 0.464922 476.772 0.605594L466.607 10.7707C466.466 11.2539 466.344 11.7554 466.252 12.257Z" fill="#41D9AF"/>
<path d="M466.343 18.1899L484.19 0.342775C483.872 0.275497 483.554 0.214335 483.23 0.165405L466.166 17.2296C466.215 17.5538 466.276 17.8718 466.343 18.1899Z" fill="#41D9AF"/>
<path d="M468.025 22.5262L488.526 2.02463C488.288 1.88396 488.043 1.7494 487.792 1.62708L467.621 21.7922C467.75 22.043 467.884 22.2876 468.025 22.5262Z" fill="#41D9AF"/>
<path d="M467.04 20.5017L486.502 1.03993C486.226 0.929837 485.951 0.831977 485.67 0.740234L466.74 19.6638C466.832 19.9451 466.93 20.2265 467.04 20.5017Z" fill="#41D9AF"/>
</g>
<g clip-path="url(#clip1)">
<path d="M449.058 196.435L493.435 152.058C493.152 151.506 492.856 150.968 492.56 150.443L447.443 195.547C447.968 195.856 448.506 196.152 449.058 196.435Z" fill="white"/>
<path d="M453.74 198.372L495.372 156.74C495.17 156.121 494.955 155.502 494.713 154.91L451.91 197.712C452.502 197.955 453.121 198.17 453.74 198.372Z" fill="white"/>
<path d="M444.927 193.931L490.931 147.926C490.582 147.442 490.232 146.971 489.855 146.5L443.514 192.868C443.971 193.231 444.442 193.595 444.927 193.931Z" fill="white"/>
<path d="M459.095 199.637L496.636 162.096C496.529 161.383 496.394 160.683 496.246 159.983L456.982 199.247C457.682 199.408 458.382 199.529 459.095 199.637Z" fill="white"/>
<path d="M464.007 200C464.465 200 464.936 199.987 465.393 199.973L496.974 168.393C496.987 167.935 497 167.478 497 167.007C497 166.63 496.987 166.253 496.974 165.89L462.877 199.973C463.254 199.987 463.63 200 464.007 200Z" fill="white"/>
<path d="M441.295 190.945L487.945 144.294C487.542 143.864 487.125 143.446 486.694 143.043L440.057 189.707C440.46 190.124 440.877 190.541 441.295 190.945Z" fill="white"/>
<path d="M438.131 187.486L484.486 141.131C484.015 140.768 483.544 140.405 483.06 140.055L437.068 186.073C437.405 186.558 437.768 187.029 438.131 187.486Z" fill="white"/>
<path d="M431 167.007C431 167.383 431.013 167.76 431.027 168.124L465.124 134.027C464.747 134.013 464.37 134 464.007 134C463.549 134 463.078 134.013 462.621 134.027L431.027 165.621C431.013 166.078 431 166.536 431 167.007Z" fill="white"/>
<path d="M435.439 150.456L447.455 138.44C442.477 141.333 438.332 145.478 435.439 150.456Z" fill="white"/>
<path d="M431.551 160.965L457.964 134.552C456.847 134.754 455.758 135.023 454.695 135.332L432.331 157.696C432.022 158.759 431.753 159.862 431.551 160.965Z" fill="white"/>
<path d="M431.753 174.018L471.017 134.754C470.317 134.606 469.618 134.471 468.905 134.364L431.363 171.905C431.471 172.618 431.605 173.318 431.753 174.018Z" fill="white"/>
<path d="M435.454 183.558L480.558 138.454C480.033 138.145 479.495 137.849 478.943 137.58L434.566 181.943C434.849 182.495 435.145 183.033 435.454 183.558Z" fill="white"/>
<path d="M433.288 179.104L476.104 136.288C475.499 136.046 474.893 135.83 474.274 135.628L432.629 177.26C432.831 177.879 433.046 178.498 433.288 179.104Z" fill="white"/>
</g>
<g clip-path="url(#clip2)">
<path d="M106.656 59.4112C107.588 59.4112 108.344 58.6476 108.344 57.7056C108.344 56.7636 107.588 56 106.656 56C105.724 56 104.969 56.7636 104.969 57.7056C104.969 58.6476 105.724 59.4112 106.656 59.4112Z" fill="#41D9AF"/>
<path d="M120.002 57.7056C120.002 58.6502 119.249 59.4112 118.315 59.4112C117.38 59.4112 116.627 58.6502 116.627 57.7056C116.627 56.761 117.38 56 118.315 56C119.249 56 120.002 56.761 120.002 57.7056Z" fill="#41D9AF"/>
<path d="M129.998 59.4112C130.93 59.4112 131.686 58.6476 131.686 57.7056C131.686 56.7636 130.93 56 129.998 56C129.066 56 128.311 56.7636 128.311 57.7056C128.311 58.6476 129.066 59.4112 129.998 59.4112Z" fill="#41D9AF"/>
<path d="M141.654 59.4112C142.586 59.4112 143.342 58.6476 143.342 57.7056C143.342 56.7636 142.586 56 141.654 56C140.722 56 139.967 56.7636 139.967 57.7056C139.967 58.6476 140.722 59.4112 141.654 59.4112Z" fill="#41D9AF"/>
<path d="M153.338 59.4112C154.27 59.4112 155.026 58.6476 155.026 57.7056C155.026 56.7636 154.27 56 153.338 56C152.406 56 151.65 56.7636 151.65 57.7056C151.65 58.6476 152.406 59.4112 153.338 59.4112Z" fill="#41D9AF"/>
<path d="M95.0001 59.4112C95.9321 59.4112 96.6877 58.6476 96.6877 57.7056C96.6877 56.7636 95.9321 56 95.0001 56C94.0681 56 93.3125 56.7636 93.3125 57.7056C93.3125 58.6476 94.0681 59.4112 95.0001 59.4112Z" fill="#41D9AF"/>
<path d="M83.3419 59.4112C84.2739 59.4112 85.0295 58.6476 85.0295 57.7056C85.0295 56.7636 84.2739 56 83.3419 56C82.4099 56 81.6543 56.7636 81.6543 57.7056C81.6543 58.6476 82.4099 59.4112 83.3419 59.4112Z" fill="#41D9AF"/>
<path d="M25.0021 59.4112C25.9341 59.4112 26.6897 58.6476 26.6897 57.7056C26.6897 56.7636 25.9341 56 25.0021 56C24.07 56 23.3145 56.7636 23.3145 57.7056C23.3145 58.6476 24.07 59.4112 25.0021 59.4112Z" fill="#41D9AF"/>
<path d="M38.3479 57.7056C38.3479 58.6502 37.5949 59.4112 36.6603 59.4112C35.7256 59.4112 34.9727 58.6502 34.9727 57.7056C34.9727 56.761 35.7256 56 36.6603 56C37.5949 56 38.3479 56.761 38.3479 57.7056Z" fill="#41D9AF"/>
<path d="M48.3439 59.4112C49.2759 59.4112 50.0315 58.6476 50.0315 57.7056C50.0315 56.7636 49.2759 56 48.3439 56C47.4118 56 46.6562 56.7636 46.6562 57.7056C46.6562 58.6476 47.4118 59.4112 48.3439 59.4112Z" fill="#41D9AF"/>
<path d="M60.0001 59.4112C60.9321 59.4112 61.6877 58.6476 61.6877 57.7056C61.6877 56.7636 60.9321 56 60.0001 56C59.0681 56 58.3125 56.7636 58.3125 57.7056C58.3125 58.6476 59.0681 59.4112 60.0001 59.4112Z" fill="#41D9AF"/>
<path d="M71.6837 59.4112C72.6157 59.4112 73.3713 58.6476 73.3713 57.7056C73.3713 56.7636 72.6157 56 71.6837 56C70.7517 56 69.9961 56.7636 69.9961 57.7056C69.9961 58.6476 70.7517 59.4112 71.6837 59.4112Z" fill="#41D9AF"/>
<path d="M13.3458 59.4112C14.2778 59.4112 15.0334 58.6476 15.0334 57.7056C15.0334 56.7636 14.2778 56 13.3458 56C12.4138 56 11.6582 56.7636 11.6582 57.7056C11.6582 58.6476 12.4138 59.4112 13.3458 59.4112Z" fill="#41D9AF"/>
<path d="M1.6876 59.4112C2.61964 59.4112 3.37521 58.6476 3.37521 57.7056C3.37521 56.7636 2.61964 56 1.6876 56C0.755566 56 0 56.7636 0 57.7056C0 58.6476 0.755566 59.4112 1.6876 59.4112Z" fill="#41D9AF"/>
<path d="M106.656 75.1286C107.588 75.1286 108.344 74.365 108.344 73.423C108.344 72.481 107.588 71.7174 106.656 71.7174C105.724 71.7174 104.969 72.481 104.969 73.423C104.969 74.365 105.724 75.1286 106.656 75.1286Z" fill="#41D9AF"/>
<path d="M120.002 73.423C120.002 74.3676 119.249 75.1286 118.315 75.1286C117.38 75.1286 116.627 74.3676 116.627 73.423C116.627 72.4784 117.38 71.7174 118.315 71.7174C119.249 71.7174 120.002 72.4784 120.002 73.423Z" fill="#41D9AF"/>
<path d="M129.998 75.1286C130.93 75.1286 131.686 74.365 131.686 73.423C131.686 72.481 130.93 71.7174 129.998 71.7174C129.066 71.7174 128.311 72.481 128.311 73.423C128.311 74.365 129.066 75.1286 129.998 75.1286Z" fill="#41D9AF"/>
<path d="M141.654 75.1286C142.586 75.1286 143.342 74.365 143.342 73.423C143.342 72.481 142.586 71.7174 141.654 71.7174C140.722 71.7174 139.967 72.481 139.967 73.423C139.967 74.365 140.722 75.1286 141.654 75.1286Z" fill="#41D9AF"/>
<path d="M153.338 75.1286C154.27 75.1286 155.026 74.365 155.026 73.423C155.026 72.481 154.27 71.7174 153.338 71.7174C152.406 71.7174 151.65 72.481 151.65 73.423C151.65 74.365 152.406 75.1286 153.338 75.1286Z" fill="#41D9AF"/>
<path d="M95.0001 75.1286C95.9321 75.1286 96.6877 74.365 96.6877 73.423C96.6877 72.481 95.9321 71.7174 95.0001 71.7174C94.0681 71.7174 93.3125 72.481 93.3125 73.423C93.3125 74.365 94.0681 75.1286 95.0001 75.1286Z" fill="#41D9AF"/>
<path d="M83.3419 75.1286C84.2739 75.1286 85.0295 74.365 85.0295 73.423C85.0295 72.481 84.2739 71.7174 83.3419 71.7174C82.4099 71.7174 81.6543 72.481 81.6543 73.423C81.6543 74.365 82.4099 75.1286 83.3419 75.1286Z" fill="#41D9AF"/>
<path d="M25.0021 75.1286C25.9341 75.1286 26.6897 74.365 26.6897 73.423C26.6897 72.481 25.9341 71.7174 25.0021 71.7174C24.07 71.7174 23.3145 72.481 23.3145 73.423C23.3145 74.365 24.07 75.1286 25.0021 75.1286Z" fill="#41D9AF"/>
<path d="M38.3479 73.423C38.3479 74.3676 37.5949 75.1286 36.6603 75.1286C35.7256 75.1286 34.9727 74.3676 34.9727 73.423C34.9727 72.4784 35.7256 71.7174 36.6603 71.7174C37.5949 71.7174 38.3479 72.4784 38.3479 73.423Z" fill="#41D9AF"/>
<path d="M48.3439 75.1286C49.2759 75.1286 50.0315 74.365 50.0315 73.423C50.0315 72.481 49.2759 71.7174 48.3439 71.7174C47.4118 71.7174 46.6562 72.481 46.6562 73.423C46.6562 74.365 47.4118 75.1286 48.3439 75.1286Z" fill="#41D9AF"/>
<path d="M60.0001 75.1286C60.9321 75.1286 61.6877 74.365 61.6877 73.423C61.6877 72.481 60.9321 71.7174 60.0001 71.7174C59.0681 71.7174 58.3125 72.481 58.3125 73.423C58.3125 74.365 59.0681 75.1286 60.0001 75.1286Z" fill="#41D9AF"/>
<path d="M71.6837 75.1286C72.6157 75.1286 73.3713 74.365 73.3713 73.423C73.3713 72.481 72.6157 71.7174 71.6837 71.7174C70.7517 71.7174 69.9961 72.481 69.9961 73.423C69.9961 74.365 70.7517 75.1286 71.6837 75.1286Z" fill="#41D9AF"/>
<path d="M13.3458 75.1286C14.2778 75.1286 15.0334 74.365 15.0334 73.423C15.0334 72.481 14.2778 71.7174 13.3458 71.7174C12.4138 71.7174 11.6582 72.481 11.6582 73.423C11.6582 74.365 12.4138 75.1286 13.3458 75.1286Z" fill="#41D9AF"/>
<path d="M1.6876 75.1286C2.61964 75.1286 3.37521 74.365 3.37521 73.423C3.37521 72.481 2.61964 71.7174 1.6876 71.7174C0.755566 71.7174 0 72.481 0 73.423C0 74.365 0.755566 75.1286 1.6876 75.1286Z" fill="#41D9AF"/>
<path d="M106.656 90.846C107.588 90.846 108.344 90.0824 108.344 89.1404C108.344 88.1984 107.588 87.4348 106.656 87.4348C105.724 87.4348 104.969 88.1984 104.969 89.1404C104.969 90.0824 105.724 90.846 106.656 90.846Z" fill="#41D9AF"/>
<path d="M120.002 89.1404C120.002 90.0851 119.249 90.846 118.315 90.846C117.38 90.846 116.627 90.0851 116.627 89.1404C116.627 88.1958 117.38 87.4348 118.315 87.4348C119.249 87.4348 120.002 88.1958 120.002 89.1404Z" fill="#41D9AF"/>
<path d="M129.998 90.846C130.93 90.846 131.686 90.0824 131.686 89.1404C131.686 88.1984 130.93 87.4348 129.998 87.4348C129.066 87.4348 128.311 88.1984 128.311 89.1404C128.311 90.0824 129.066 90.846 129.998 90.846Z" fill="#41D9AF"/>
<path d="M141.654 90.846C142.586 90.846 143.342 90.0824 143.342 89.1404C143.342 88.1984 142.586 87.4348 141.654 87.4348C140.722 87.4348 139.967 88.1984 139.967 89.1404C139.967 90.0824 140.722 90.846 141.654 90.846Z" fill="#41D9AF"/>
<path d="M153.338 90.846C154.27 90.846 155.026 90.0824 155.026 89.1404C155.026 88.1984 154.27 87.4348 153.338 87.4348C152.406 87.4348 151.65 88.1984 151.65 89.1404C151.65 90.0824 152.406 90.846 153.338 90.846Z" fill="#41D9AF"/>
<path d="M95.0001 90.846C95.9321 90.846 96.6877 90.0824 96.6877 89.1404C96.6877 88.1984 95.9321 87.4348 95.0001 87.4348C94.0681 87.4348 93.3125 88.1984 93.3125 89.1404C93.3125 90.0824 94.0681 90.846 95.0001 90.846Z" fill="#41D9AF"/>
<path d="M83.3419 90.846C84.2739 90.846 85.0295 90.0824 85.0295 89.1404C85.0295 88.1984 84.2739 87.4348 83.3419 87.4348C82.4099 87.4348 81.6543 88.1984 81.6543 89.1404C81.6543 90.0824 82.4099 90.846 83.3419 90.846Z" fill="#41D9AF"/>
<path d="M25.0021 90.846C25.9341 90.846 26.6897 90.0824 26.6897 89.1404C26.6897 88.1984 25.9341 87.4348 25.0021 87.4348C24.07 87.4348 23.3145 88.1984 23.3145 89.1404C23.3145 90.0824 24.07 90.846 25.0021 90.846Z" fill="#41D9AF"/>
<path d="M38.3479 89.1404C38.3479 90.0851 37.5949 90.846 36.6603 90.846C35.7256 90.846 34.9727 90.0851 34.9727 89.1404C34.9727 88.1958 35.7256 87.4348 36.6603 87.4348C37.5949 87.4348 38.3479 88.1958 38.3479 89.1404Z" fill="#41D9AF"/>
<path d="M48.3439 90.846C49.2759 90.846 50.0315 90.0824 50.0315 89.1404C50.0315 88.1984 49.2759 87.4348 48.3439 87.4348C47.4118 87.4348 46.6562 88.1984 46.6562 89.1404C46.6562 90.0824 47.4118 90.846 48.3439 90.846Z" fill="#41D9AF"/>
<path d="M60.0001 90.846C60.9321 90.846 61.6877 90.0824 61.6877 89.1404C61.6877 88.1984 60.9321 87.4348 60.0001 87.4348C59.0681 87.4348 58.3125 88.1984 58.3125 89.1404C58.3125 90.0824 59.0681 90.846 60.0001 90.846Z" fill="#41D9AF"/>
<path d="M71.6837 90.846C72.6157 90.846 73.3713 90.0824 73.3713 89.1404C73.3713 88.1984 72.6157 87.4348 71.6837 87.4348C70.7517 87.4348 69.9961 88.1984 69.9961 89.1404C69.9961 90.0824 70.7517 90.846 71.6837 90.846Z" fill="#41D9AF"/>
<path d="M13.3458 90.846C14.2778 90.846 15.0334 90.0824 15.0334 89.1404C15.0334 88.1984 14.2778 87.4348 13.3458 87.4348C12.4138 87.4348 11.6582 88.1984 11.6582 89.1404C11.6582 90.0824 12.4138 90.846 13.3458 90.846Z" fill="#41D9AF"/>
<path d="M1.6876 90.846C2.61964 90.846 3.37521 90.0824 3.37521 89.1404C3.37521 88.1984 2.61964 87.4348 1.6876 87.4348C0.755566 87.4348 0 88.1984 0 89.1404C0 90.0824 0.755566 90.846 1.6876 90.846Z" fill="#41D9AF"/>
<path d="M106.656 106.565C107.588 106.565 108.344 105.802 108.344 104.86C108.344 103.918 107.588 103.154 106.656 103.154C105.724 103.154 104.969 103.918 104.969 104.86C104.969 105.802 105.724 106.565 106.656 106.565Z" fill="#41D9AF"/>
<path d="M120.002 104.86C120.002 105.804 119.249 106.565 118.315 106.565C117.38 106.565 116.627 105.804 116.627 104.86C116.627 103.915 117.38 103.154 118.315 103.154C119.249 103.18 120.002 103.915 120.002 104.86Z" fill="#41D9AF"/>
<path d="M129.998 106.565C130.93 106.565 131.686 105.802 131.686 104.86C131.686 103.918 130.93 103.154 129.998 103.154C129.066 103.154 128.311 103.918 128.311 104.86C128.311 105.802 129.066 106.565 129.998 106.565Z" fill="#41D9AF"/>
<path d="M141.654 106.565C142.586 106.565 143.342 105.802 143.342 104.86C143.342 103.918 142.586 103.154 141.654 103.154C140.722 103.154 139.967 103.918 139.967 104.86C139.967 105.802 140.722 106.565 141.654 106.565Z" fill="#41D9AF"/>
<path d="M153.338 106.565C154.27 106.565 155.026 105.802 155.026 104.86C155.026 103.918 154.27 103.154 153.338 103.154C152.406 103.154 151.65 103.918 151.65 104.86C151.65 105.802 152.406 106.565 153.338 106.565Z" fill="#41D9AF"/>
<path d="M95.0001 106.565C95.9321 106.565 96.6877 105.802 96.6877 104.86C96.6877 103.918 95.9321 103.154 95.0001 103.154C94.0681 103.154 93.3125 103.918 93.3125 104.86C93.3125 105.802 94.0681 106.565 95.0001 106.565Z" fill="#41D9AF"/>
<path d="M83.3419 106.565C84.2739 106.565 85.0295 105.802 85.0295 104.86C85.0295 103.918 84.2739 103.154 83.3419 103.154C82.4099 103.154 81.6543 103.918 81.6543 104.86C81.6543 105.802 82.4099 106.565 83.3419 106.565Z" fill="#41D9AF"/>
<path d="M25.0021 106.565C25.9341 106.565 26.6897 105.802 26.6897 104.86C26.6897 103.918 25.9341 103.154 25.0021 103.154C24.07 103.154 23.3145 103.918 23.3145 104.86C23.3145 105.802 24.07 106.565 25.0021 106.565Z" fill="#41D9AF"/>
<path d="M38.3479 104.86C38.3479 105.804 37.5949 106.565 36.6603 106.565C35.7256 106.565 34.9727 105.804 34.9727 104.86C34.9727 103.915 35.7256 103.154 36.6603 103.154C37.5949 103.18 38.3479 103.915 38.3479 104.86Z" fill="#41D9AF"/>
<path d="M48.3439 106.565C49.2759 106.565 50.0315 105.802 50.0315 104.86C50.0315 103.918 49.2759 103.154 48.3439 103.154C47.4118 103.154 46.6562 103.918 46.6562 104.86C46.6562 105.802 47.4118 106.565 48.3439 106.565Z" fill="#41D9AF"/>
<path d="M60.0001 106.565C60.9321 106.565 61.6877 105.802 61.6877 104.86C61.6877 103.918 60.9321 103.154 60.0001 103.154C59.0681 103.154 58.3125 103.918 58.3125 104.86C58.3125 105.802 59.0681 106.565 60.0001 106.565Z" fill="#41D9AF"/>
<path d="M71.6837 106.565C72.6157 106.565 73.3713 105.802 73.3713 104.86C73.3713 103.918 72.6157 103.154 71.6837 103.154C70.7517 103.154 69.9961 103.918 69.9961 104.86C69.9961 105.802 70.7517 106.565 71.6837 106.565Z" fill="#41D9AF"/>
<path d="M13.3458 106.565C14.2778 106.565 15.0334 105.802 15.0334 104.86C15.0334 103.918 14.2778 103.154 13.3458 103.154C12.4138 103.154 11.6582 103.918 11.6582 104.86C11.6582 105.802 12.4138 106.565 13.3458 106.565Z" fill="#41D9AF"/>
<path d="M1.6876 106.565C2.61964 106.565 3.37521 105.802 3.37521 104.86C3.37521 103.918 2.61964 103.154 1.6876 103.154C0.755566 103.154 0 103.918 0 104.86C0 105.802 0.755566 106.565 1.6876 106.565Z" fill="#41D9AF"/>
<path d="M106.656 122.283C107.588 122.283 108.344 121.519 108.344 120.577C108.344 119.635 107.588 118.871 106.656 118.871C105.724 118.871 104.969 119.635 104.969 120.577C104.969 121.519 105.724 122.283 106.656 122.283Z" fill="#41D9AF"/>
<path d="M120.002 120.577C120.002 121.522 119.249 122.283 118.315 122.283C117.38 122.283 116.627 121.522 116.627 120.577C116.627 119.632 117.38 118.871 118.315 118.871C119.249 118.898 120.002 119.659 120.002 120.577Z" fill="#41D9AF"/>
<path d="M129.998 122.283C130.93 122.283 131.686 121.519 131.686 120.577C131.686 119.635 130.93 118.871 129.998 118.871C129.066 118.871 128.311 119.635 128.311 120.577C128.311 121.519 129.066 122.283 129.998 122.283Z" fill="#41D9AF"/>
<path d="M141.654 122.283C142.586 122.283 143.342 121.519 143.342 120.577C143.342 119.635 142.586 118.871 141.654 118.871C140.722 118.871 139.967 119.635 139.967 120.577C139.967 121.519 140.722 122.283 141.654 122.283Z" fill="#41D9AF"/>
<path d="M153.338 122.283C154.27 122.283 155.026 121.519 155.026 120.577C155.026 119.635 154.27 118.871 153.338 118.871C152.406 118.871 151.65 119.635 151.65 120.577C151.65 121.519 152.406 122.283 153.338 122.283Z" fill="#41D9AF"/>
<path d="M95.0001 122.283C95.9321 122.283 96.6877 121.519 96.6877 120.577C96.6877 119.635 95.9321 118.871 95.0001 118.871C94.0681 118.871 93.3125 119.635 93.3125 120.577C93.3125 121.519 94.0681 122.283 95.0001 122.283Z" fill="#41D9AF"/>
<path d="M83.3419 122.283C84.2739 122.283 85.0295 121.519 85.0295 120.577C85.0295 119.635 84.2739 118.871 83.3419 118.871C82.4099 118.871 81.6543 119.635 81.6543 120.577C81.6543 121.519 82.4099 122.283 83.3419 122.283Z" fill="#41D9AF"/>
<path d="M25.0021 122.283C25.9341 122.283 26.6897 121.519 26.6897 120.577C26.6897 119.635 25.9341 118.871 25.0021 118.871C24.07 118.871 23.3145 119.635 23.3145 120.577C23.3145 121.519 24.07 122.283 25.0021 122.283Z" fill="#41D9AF"/>
<path d="M38.3479 120.577C38.3479 121.522 37.5949 122.283 36.6603 122.283C35.7256 122.283 34.9727 121.522 34.9727 120.577C34.9727 119.632 35.7256 118.871 36.6603 118.871C37.5949 118.898 38.3479 119.659 38.3479 120.577Z" fill="#41D9AF"/>
<path d="M48.3439 122.283C49.2759 122.283 50.0315 121.519 50.0315 120.577C50.0315 119.635 49.2759 118.871 48.3439 118.871C47.4118 118.871 46.6562 119.635 46.6562 120.577C46.6562 121.519 47.4118 122.283 48.3439 122.283Z" fill="#41D9AF"/>
<path d="M60.0001 122.283C60.9321 122.283 61.6877 121.519 61.6877 120.577C61.6877 119.635 60.9321 118.871 60.0001 118.871C59.0681 118.871 58.3125 119.635 58.3125 120.577C58.3125 121.519 59.0681 122.283 60.0001 122.283Z" fill="#41D9AF"/>
<path d="M71.6837 122.283C72.6157 122.283 73.3713 121.519 73.3713 120.577C73.3713 119.635 72.6157 118.871 71.6837 118.871C70.7517 118.871 69.9961 119.635 69.9961 120.577C69.9961 121.519 70.7517 122.283 71.6837 122.283Z" fill="#41D9AF"/>
<path d="M13.3458 122.283C14.2778 122.283 15.0334 121.519 15.0334 120.577C15.0334 119.635 14.2778 118.871 13.3458 118.871C12.4138 118.871 11.6582 119.635 11.6582 120.577C11.6582 121.519 12.4138 122.283 13.3458 122.283Z" fill="#41D9AF"/>
<path d="M1.6876 122.283C2.61964 122.283 3.37521 121.519 3.37521 120.577C3.37521 119.635 2.61964 118.871 1.6876 118.871C0.755566 118.871 0 119.635 0 120.577C0 121.519 0.755566 122.283 1.6876 122.283Z" fill="#41D9AF"/>
<path d="M106.656 138C107.588 138 108.344 137.236 108.344 136.294C108.344 135.352 107.588 134.589 106.656 134.589C105.724 134.589 104.969 135.352 104.969 136.294C104.969 137.236 105.724 138 106.656 138Z" fill="#41D9AF"/>
<path d="M120.002 136.294C120.002 137.239 119.249 138 118.315 138C117.38 138 116.627 137.239 116.627 136.294C116.627 135.35 117.38 134.589 118.315 134.589C119.249 134.615 120.002 135.376 120.002 136.294Z" fill="#41D9AF"/>
<path d="M129.998 138C130.93 138 131.686 137.236 131.686 136.294C131.686 135.352 130.93 134.589 129.998 134.589C129.066 134.589 128.311 135.352 128.311 136.294C128.311 137.236 129.066 138 129.998 138Z" fill="#41D9AF"/>
<path d="M141.654 138C142.586 138 143.342 137.236 143.342 136.294C143.342 135.352 142.586 134.589 141.654 134.589C140.722 134.589 139.967 135.352 139.967 136.294C139.967 137.236 140.722 138 141.654 138Z" fill="#41D9AF"/>
<path d="M153.338 138C154.27 138 155.026 137.236 155.026 136.294C155.026 135.352 154.27 134.589 153.338 134.589C152.406 134.589 151.65 135.352 151.65 136.294C151.65 137.236 152.406 138 153.338 138Z" fill="#41D9AF"/>
<path d="M95.0001 138C95.9321 138 96.6877 137.236 96.6877 136.294C96.6877 135.352 95.9321 134.589 95.0001 134.589C94.0681 134.589 93.3125 135.352 93.3125 136.294C93.3125 137.236 94.0681 138 95.0001 138Z" fill="#41D9AF"/>
<path d="M83.3419 138C84.2739 138 85.0295 137.236 85.0295 136.294C85.0295 135.352 84.2739 134.589 83.3419 134.589C82.4099 134.589 81.6543 135.352 81.6543 136.294C81.6543 137.236 82.4099 138 83.3419 138Z" fill="#41D9AF"/>
<path d="M25.0021 138C25.9341 138 26.6897 137.236 26.6897 136.294C26.6897 135.352 25.9341 134.589 25.0021 134.589C24.07 134.589 23.3145 135.352 23.3145 136.294C23.3145 137.236 24.07 138 25.0021 138Z" fill="#41D9AF"/>
<path d="M38.3479 136.294C38.3479 137.239 37.5949 138 36.6603 138C35.7256 138 34.9727 137.239 34.9727 136.294C34.9727 135.35 35.7256 134.589 36.6603 134.589C37.5949 134.615 38.3479 135.376 38.3479 136.294Z" fill="#41D9AF"/>
<path d="M48.3439 138C49.2759 138 50.0315 137.236 50.0315 136.294C50.0315 135.352 49.2759 134.589 48.3439 134.589C47.4118 134.589 46.6562 135.352 46.6562 136.294C46.6562 137.236 47.4118 138 48.3439 138Z" fill="#41D9AF"/>
<path d="M60.0001 138C60.9321 138 61.6877 137.236 61.6877 136.294C61.6877 135.352 60.9321 134.589 60.0001 134.589C59.0681 134.589 58.3125 135.352 58.3125 136.294C58.3125 137.236 59.0681 138 60.0001 138Z" fill="#41D9AF"/>
<path d="M71.6837 138C72.6157 138 73.3713 137.236 73.3713 136.294C73.3713 135.352 72.6157 134.589 71.6837 134.589C70.7517 134.589 69.9961 135.352 69.9961 136.294C69.9961 137.236 70.7517 138 71.6837 138Z" fill="#41D9AF"/>
<path d="M13.3458 138C14.2778 138 15.0334 137.236 15.0334 136.294C15.0334 135.352 14.2778 134.589 13.3458 134.589C12.4138 134.589 11.6582 135.352 11.6582 136.294C11.6582 137.236 12.4138 138 13.3458 138Z" fill="#41D9AF"/>
<path d="M1.6876 138C2.61964 138 3.37521 137.236 3.37521 136.294C3.37521 135.352 2.61964 134.589 1.6876 134.589C0.755566 134.589 0 135.352 0 136.294C0 137.236 0.755566 138 1.6876 138Z" fill="#41D9AF"/>
</g>
<defs>
<clipPath id="clip0">
<rect width="30" height="30" fill="white" transform="translate(466)"/>
</clipPath>
<clipPath id="clip1">
<rect width="66" height="66" fill="white" transform="translate(431 134)"/>
</clipPath>
<clipPath id="clip2">
<rect width="155" height="82" fill="white" transform="translate(0 56)"/>
</clipPath>
</defs>
</svg>
