<svg width="105" height="105" viewBox="0 0 105 105" fill="none" xmlns="http://www.w3.org/2000/svg">
<path d="M28.728 99.3281L99.3274 28.7287C98.8778 27.851 98.4069 26.9948 97.9359 26.1599L26.1592 97.9153C26.994 98.4076 27.8503 98.8786 28.728 99.3281Z" fill="white" fill-opacity="0.11"/>
<path d="M36.1779 102.409L102.41 36.1769C102.089 35.1922 101.747 34.2075 101.361 33.2656L33.2666 101.36C34.2085 101.746 35.1932 102.088 36.1779 102.409Z" fill="white" fill-opacity="0.11"/>
<path d="M22.1559 95.3449L95.3455 22.1553C94.7889 21.3847 94.2324 20.6355 93.633 19.8862L19.9082 93.6538C20.636 94.2318 21.3853 94.8098 22.1559 95.3449Z" fill="white" fill-opacity="0.11"/>
<path d="M97.9355 78.8203L78.7979 97.9579C86.7397 93.3341 93.333 86.7408 97.9355 78.8203Z" fill="white" fill-opacity="0.11"/>
<path d="M67.3024 102.881L102.88 67.3032C103.373 65.5906 103.801 63.8567 104.122 62.1013L62.1006 104.123C63.8559 103.802 65.6113 103.374 67.3024 102.881Z" fill="white" fill-opacity="0.11"/>
<path d="M44.6968 104.423L104.422 44.6978C104.25 43.5632 104.036 42.4501 103.801 41.3369L41.3359 103.802C42.4491 104.059 43.5622 104.251 44.6968 104.423Z" fill="white" fill-opacity="0.11"/>
<path d="M52.5111 105C53.2389 105 53.9881 104.979 54.716 104.957L104.958 54.7158C104.979 53.988 105 53.2601 105 52.5109C105 51.9115 104.979 51.3121 104.958 50.7341L50.7129 104.957C51.3123 104.979 51.9117 105 52.5111 105Z" fill="white" fill-opacity="0.11"/>
<path d="M16.3766 90.5942L90.5938 16.3771C89.9516 15.692 89.2879 15.0284 88.6029 14.3862L14.4072 88.6248C15.0494 89.2884 15.713 89.952 16.3766 90.5942Z" fill="white" fill-opacity="0.11"/>
<path d="M11.3454 85.0915L85.0916 11.3454C84.3424 10.7674 83.5931 10.1894 82.8225 9.63281L9.6543 82.8438C10.1895 83.6145 10.7674 84.3637 11.3454 85.0915Z" fill="white" fill-opacity="0.11"/>
<path d="M0 52.5107C0 53.1101 0.0214067 53.7095 0.0428135 54.2875L54.2875 0.0428135C53.6881 0.0214067 53.0887 0 52.5107 0C51.7829 0 51.0336 0.0214067 50.3058 0.0428135L0.0428135 50.3058C0.0214067 51.0336 0 51.7615 0 52.5107Z" fill="white" fill-opacity="0.11"/>
<path d="M7.06348 26.1804L26.1797 7.06421C18.2592 11.6667 11.6659 18.2599 7.06348 26.1804Z" fill="white" fill-opacity="0.11"/>
<path d="M0.876953 42.8996L42.8984 0.878174C41.1216 1.19927 39.3877 1.62741 37.6965 2.11976L2.11854 37.6977C1.62619 39.3889 1.19805 41.1442 0.876953 42.8996Z" fill="white" fill-opacity="0.11"/>
<path d="M1.19892 63.6645L63.6638 1.19965C62.5506 0.964179 61.4375 0.750111 60.3029 0.578857L0.578125 60.3036C0.749379 61.4382 0.963446 62.5513 1.19892 63.6645Z" fill="white" fill-opacity="0.11"/>
<path d="M7.0857 78.8416L78.841 7.08626C78.0062 6.59391 77.1499 6.12296 76.2722 5.69482L5.67285 76.2728C6.12239 77.1505 6.59334 78.0067 7.0857 78.8416Z" fill="white" fill-opacity="0.11"/>
<path d="M3.63975 71.7557L71.756 3.63951C70.7927 3.25418 69.8294 2.91168 68.8446 2.59058L2.59082 68.823C2.91192 69.8077 3.25443 70.7924 3.63975 71.7557Z" fill="white" fill-opacity="0.11"/>
</svg>
