<svg width="90" height="90" viewBox="0 0 90 90" fill="none" xmlns="http://www.w3.org/2000/svg">
<mask id="mask0" mask-type="alpha" maskUnits="userSpaceOnUse" x="0" y="0" width="90" height="90">
<rect width="90" height="90" rx="45" fill="white"/>
</mask>
<g mask="url(#mask0)">
<rect width="90" height="90" rx="45" fill="white"/>
<path d="M50.7744 56.0064H38.525V33.9941H50.7744V56.0064Z" fill="#FF5F00"/>
<path d="M39.3018 45C39.3018 40.5341 41.3921 36.5574 44.6486 33.9939C42.1847 32.0508 39.1365 30.9955 35.9977 31C28.2662 31 22 37.2685 22 45C22 52.7315 28.2662 59 35.9977 59C39.1365 59.0045 42.1847 57.9492 44.6486 56.0061C41.3921 53.4426 39.3018 49.4659 39.3018 45Z" fill="#EB001B"/>
<path d="M67.2973 45C67.2973 52.7315 61.0311 59 53.2996 59C50.1608 59.0045 47.1126 57.9492 44.6487 56.0061C47.9052 53.4426 49.9955 49.4659 49.9955 45C49.9955 40.5341 47.9052 36.5574 44.6487 33.9939C47.1126 32.0508 50.1631 30.9955 53.3019 31C61.0311 31 67.2973 37.2685 67.2973 45Z" fill="#F79E1B"/>
</g>
</svg>
