<svg width="40" height="40" viewBox="0 0 40 40" fill="none" xmlns="http://www.w3.org/2000/svg">
<rect width="40" height="40" fill="white"/>
<path d="M16.8056 34.8892C1.27454 34.8892 2.00541 8.30377 2.00541 8.30377L16.8056 2L31.6057 8.30377C31.6057 8.30377 32.2452 34.8892 16.8056 34.8892Z" stroke="#6B38F5" stroke-width="2" stroke-miterlimit="10" stroke-linecap="round" stroke-linejoin="round"/>
<path opacity="0.5" d="M17.6259 32.1486C6.38879 32.1486 6.93695 12.7805 6.93695 12.7805L17.7173 8.21252" fill="#41D9AF"/>
<path d="M16.8051 30.4132C5.47662 30.4132 6.02478 11.0451 6.02478 11.0451L16.8051 6.47717L27.5855 11.0451" stroke="#6B38F5" stroke-width="2" stroke-miterlimit="10" stroke-linecap="round" stroke-linejoin="round"/>
<path d="M29.3043 35.9885C33.3912 35.9885 36.7043 32.6754 36.7043 28.5885C36.7043 24.5016 33.3912 21.1885 29.3043 21.1885C25.2174 21.1885 21.9043 24.5016 21.9043 28.5885C21.9043 32.6754 25.2174 35.9885 29.3043 35.9885Z" fill="white" stroke="#41D9AF" stroke-width="3" stroke-miterlimit="10"/>
<path d="M26.4043 28.0891L29.0043 30.6891L37.4043 22.2891" stroke="#6B38F5" stroke-width="2" stroke-miterlimit="10" stroke-linecap="round" stroke-linejoin="round"/>
</svg>
