<svg width="90" height="90" viewBox="0 0 90 90" fill="none" xmlns="http://www.w3.org/2000/svg">
<mask id="mask0" mask-type="alpha" maskUnits="userSpaceOnUse" x="0" y="0" width="90" height="90">
<rect width="90" height="90" rx="45" fill="white"/>
</mask>
<g mask="url(#mask0)">
<rect width="90" height="90" rx="45" fill="white"/>
<path d="M55.3062 37.7342C55.3338 43.5194 50.6283 48.4453 44.5691 48.4545C38.6619 48.4591 33.809 43.7078 33.8136 37.7204C33.8182 31.6595 38.7678 26.9862 44.5783 27C50.5316 27.0138 55.3338 31.8616 55.3062 37.7342ZM44.9835 33.4975C44.9651 35.2298 46.42 36.6314 48.1236 36.6314C49.7535 36.6314 51.2591 35.3172 51.2637 33.4929C51.2683 31.6503 49.7581 30.3499 48.142 30.3453C46.4661 30.3407 44.9651 31.733 44.9835 33.4975Z" fill="#DB353A"/>
<path d="M65.3753 58.7244C65.3385 58.7106 65.3293 58.7198 65.3201 58.7382C65.0577 59.1839 64.6433 59.4274 64.1552 59.5239C63.2896 59.6939 62.4839 59.5285 61.7702 59.0001C61.1809 58.5636 60.854 57.9616 60.7573 57.2448C60.6514 56.5187 60.7665 55.7789 61.0842 55.1172C61.5492 54.1523 62.3227 53.5687 63.3679 53.3481C63.7915 53.2516 64.2289 53.2287 64.6571 53.2838C65.7299 53.4308 66.4619 54.0098 66.8579 55.007C66.996 55.347 67.0697 55.7054 67.0697 56.073C67.0605 57.1483 67.1065 58.2235 67.125 59.2988C67.1342 59.7215 67.0605 60.1443 66.9132 60.544C66.5678 61.4539 65.9325 62.0788 65.007 62.3867C64.2611 62.6394 63.46 62.6578 62.7003 62.4464C62.4194 62.3729 62.157 62.2488 61.9222 62.0834C61.5216 61.7985 61.3006 61.4217 61.3236 60.9208C61.3328 60.7416 61.3236 60.567 61.3236 60.3878C61.3236 60.351 61.3328 60.3143 61.3697 60.3051C61.4065 60.2959 61.4387 60.3097 61.4618 60.3373C61.6229 60.4889 61.8071 60.613 62.0097 60.7049C62.2859 60.8335 62.5806 60.9254 62.8799 60.9714C63.1883 61.0219 63.5014 61.0403 63.8099 61.0219C64.0631 61.0127 64.3164 60.9622 64.5558 60.8703C65.007 60.6865 65.2787 60.351 65.3753 59.8778C65.426 59.6342 65.4398 59.3861 65.4122 59.1425C65.3892 58.9955 65.3846 58.8576 65.3753 58.7244ZM65.3431 56.4268C65.3431 56.0087 65.2971 55.7514 65.182 55.4986C64.9564 54.9886 64.5236 54.7542 63.9803 54.7818C63.437 54.8094 63.0134 55.0805 62.7463 55.5584C62.4517 56.073 62.401 56.6934 62.6174 57.2494C62.8384 57.8467 63.4001 58.2649 64.2105 58.0949C64.7169 57.9892 65.0392 57.6583 65.2188 57.185C65.3063 56.9415 65.3477 56.6842 65.3431 56.4268Z" fill="#686767"/>
<path d="M27.9246 53.7849C27.8601 53.7803 27.8325 53.7298 27.7957 53.6976C27.3306 53.2657 26.7689 53.0543 26.1473 52.9762C25.7744 52.9302 25.4015 52.9302 25.0331 52.9762C24.7799 52.9992 24.5313 53.0681 24.301 53.1784C23.9235 53.3714 23.7393 53.6792 23.7531 54.102C23.7577 54.2996 23.8452 54.488 23.9972 54.612C24.1123 54.7085 24.2458 54.7912 24.3885 54.851C24.7108 54.9842 25.0423 55.0899 25.3784 55.168C25.6685 55.237 25.9586 55.2967 26.244 55.3748C26.6308 55.4759 26.9945 55.6505 27.3214 55.8803C27.7911 56.2203 28.1041 56.666 28.1732 57.2404C28.3298 58.5133 27.8187 59.7356 26.419 60.2456C25.7882 60.4754 25.1298 60.5305 24.4622 60.48C24.1307 60.4616 23.8038 60.4018 23.4907 60.3053C23.2743 60.2364 23.0625 60.1399 22.8737 60.0159C22.4363 59.7172 22.2061 59.3036 22.1969 58.7752C22.1923 58.5362 22.1969 58.3019 22.1969 58.0629C22.1969 58.0078 22.2383 57.9894 22.2798 58.017C22.335 58.0583 22.3857 58.1043 22.4409 58.1457C23.2513 58.7752 24.1675 59.0187 25.1851 58.8992C25.4061 58.8809 25.6225 58.8257 25.825 58.7476C26.0507 58.6511 26.2348 58.5087 26.3407 58.2789C26.465 58.0032 26.4696 57.7183 26.4006 57.4334C26.3637 57.291 26.2624 57.1807 26.1473 57.0934C26.0138 57.0015 25.8711 56.9234 25.7191 56.8728C25.3278 56.7304 24.9272 56.6201 24.522 56.5374C24.2136 56.4776 23.9097 56.3903 23.615 56.2846C23.2881 56.1698 22.9796 55.9952 22.7126 55.7746C22.1785 55.3381 21.9529 54.7637 22.0081 54.0928C22.1048 52.9118 22.7632 52.1307 23.8314 51.6712C24.209 51.5103 24.6095 51.423 25.0193 51.4093C25.512 51.3909 26.0046 51.4001 26.4881 51.5149C26.7551 51.5747 27.0083 51.6758 27.2432 51.809C27.4872 51.9469 27.6898 52.1537 27.8187 52.4018C27.8924 52.535 27.9384 52.6821 27.9476 52.8383C27.9568 53.1324 27.9568 53.4311 27.9614 53.7252C27.9568 53.7436 27.9384 53.7665 27.9246 53.7849Z" fill="#686767"/>
<path d="M36.7228 57.6173C36.4097 57.6173 36.0967 57.6173 35.779 57.6173C35.6823 57.6173 35.6592 57.6494 35.6777 57.7413C35.7283 57.9757 35.8342 58.1916 35.9861 58.3754C36.267 58.7063 36.6261 58.8947 37.0451 58.9866C37.3904 59.0647 37.7358 59.0509 38.0857 59.0234C38.3481 59.0004 38.606 58.9498 38.8592 58.8717C39.1585 58.7798 39.4393 58.6282 39.6834 58.426C39.734 58.38 39.7893 58.403 39.7893 58.4719C39.7893 58.7155 39.8031 58.9636 39.7616 59.2072C39.711 59.5564 39.513 59.8643 39.2229 60.0618C38.9743 60.2273 38.698 60.3421 38.4034 60.3927C37.8877 60.4938 37.3628 60.5351 36.8333 60.4662C35.5672 60.3008 34.3701 59.391 33.9925 57.9941C33.8774 57.5621 33.836 57.1072 33.8728 56.6615C33.9004 56.2663 33.9741 55.8711 34.0984 55.4943C34.3516 54.7683 34.7752 54.1709 35.4336 53.7574C35.871 53.4817 36.3545 53.3346 36.8656 53.2749C37.3997 53.206 37.9383 53.2841 38.431 53.4955C39.2552 53.8585 39.78 54.4742 39.9734 55.3565C40.0471 55.6643 40.0563 55.9814 40.0057 56.2893C39.9366 56.6569 39.757 56.951 39.4393 57.1577C39.2091 57.3002 38.9559 57.4013 38.6888 57.4564C38.2837 57.5483 37.8693 57.5989 37.4549 57.6081C37.2109 57.6173 36.9622 57.6081 36.7182 57.6081L36.7228 57.6173ZM36.5156 56.395C36.861 56.3904 37.2293 56.395 37.6022 56.3398C37.7772 56.3214 37.9522 56.2755 38.1179 56.2112C38.3067 56.1376 38.4264 55.9538 38.4218 55.7562C38.4264 55.3657 38.2699 55.0164 37.8693 54.8372C37.5102 54.6764 37.105 54.6442 36.7274 54.7453C36.267 54.8648 35.9677 55.1727 35.7836 55.5954C35.6915 55.8022 35.6685 56.0182 35.65 56.2387C35.6362 56.372 35.65 56.3904 35.779 56.3904C36.0138 56.3996 36.2532 56.395 36.5156 56.395Z" fill="#686767"/>
<path d="M59.6526 58.0674C59.6526 58.7107 59.6526 59.354 59.6526 59.9973C59.6526 60.0479 59.6526 60.0984 59.6526 60.149C59.648 60.3419 59.6434 60.3465 59.45 60.3465C59.2475 60.3465 59.0449 60.3557 58.8423 60.3052C58.4049 60.2041 58.0964 59.956 57.9629 59.5148C57.926 59.3816 57.9306 59.2483 57.9306 59.1105C57.9306 58.2558 57.9306 57.4011 57.9306 56.5464C57.9352 56.2845 57.903 56.0225 57.8432 55.7652C57.8109 55.6274 57.7557 55.4895 57.682 55.3654C57.5577 55.1403 57.3551 54.9703 57.1111 54.883C56.8164 54.7681 56.4895 54.7497 56.1856 54.8278C55.9186 54.8922 55.6884 55.0576 55.5364 55.2873C55.4029 55.4849 55.32 55.7101 55.2924 55.949C55.2648 56.1328 55.2556 56.3212 55.2556 56.505C55.2556 57.6906 55.2556 58.8761 55.2556 60.0616C55.2556 60.3741 55.274 60.3465 54.9655 60.3465C54.7951 60.3511 54.6248 60.3419 54.459 60.3144C53.9341 60.2087 53.6072 59.8549 53.5474 59.3264C53.5382 59.2345 53.5336 59.1426 53.5336 59.0461C53.5336 58.1409 53.5336 57.2311 53.5336 56.3258C53.5336 55.9582 53.5704 55.5998 53.6809 55.246C53.9802 54.3407 54.5741 53.7204 55.4858 53.4263C56.1718 53.2057 56.8671 53.1736 57.5669 53.3712C58.6627 53.6882 59.3165 54.4189 59.5697 55.5217C59.6296 55.8066 59.6572 56.0915 59.6526 56.381C59.6526 56.9462 59.6526 57.5068 59.6526 58.0674Z" fill="#676767"/>
<path d="M29.3608 55.7745C29.3608 55.0714 29.3608 54.3684 29.3608 53.6653C29.3562 53.5321 29.3654 53.3942 29.3838 53.261C29.4713 52.6958 29.8074 52.2914 30.2586 51.9789C30.4796 51.8227 30.7375 51.8273 30.9953 51.8503C31.0413 51.8549 31.0736 51.8916 31.0736 51.9376C31.0782 51.9973 31.0782 52.057 31.0782 52.1168C31.0782 52.4568 31.0782 52.7968 31.0782 53.1323C31.0782 53.192 31.0782 53.2518 31.0782 53.3115C31.0736 53.3574 31.1058 53.4034 31.1518 53.408C31.1564 53.408 31.1657 53.408 31.1703 53.408C31.2393 53.408 31.3038 53.4126 31.3728 53.4126H33.1547C33.2053 53.4126 33.256 53.4126 33.3066 53.4126C33.4724 53.4172 33.477 53.4172 33.477 53.5872C33.477 53.7296 33.477 53.8767 33.477 54.0191C33.4724 54.5108 33.1777 54.8554 32.6897 54.9244C32.5654 54.9428 32.4364 54.9474 32.3075 54.9474C31.9944 54.9519 31.6813 54.9474 31.3636 54.9474C31.3038 54.9474 31.2439 54.9474 31.1841 54.9474C31.1012 54.9519 31.0736 54.9749 31.069 55.053C31.0644 55.1036 31.0644 55.1541 31.0644 55.2047C31.0644 56.0088 31.0644 56.813 31.0644 57.6171C31.0598 57.8101 31.0782 58.0077 31.1242 58.1961C31.2439 58.6096 31.4972 58.8394 31.9438 58.8807C32.418 58.9221 32.8923 58.8945 33.3389 58.6878C33.431 58.6418 33.4678 58.6648 33.4678 58.7613C33.4678 58.9451 33.4724 59.1335 33.4678 59.3219C33.4448 59.7676 33.2284 60.0893 32.8186 60.2731C32.662 60.342 32.4963 60.3879 32.3305 60.4063C31.8563 60.4523 31.3821 60.4339 30.917 60.2914C30.1481 60.0571 29.6647 59.547 29.4575 58.7705C29.3838 58.4902 29.347 58.2053 29.3516 57.9158C29.3608 57.1943 29.3608 56.4821 29.3608 55.7745Z" fill="#686868"/>
<path d="M45.7614 54.8877C45.7614 53.7021 45.7614 52.5166 45.7614 51.3311C45.7614 51.0875 45.7522 51.0967 46.0008 51.0967C46.1297 51.0967 46.2541 51.0967 46.383 51.1013C46.5257 51.1059 46.6684 51.1335 46.8066 51.184C47.1519 51.3081 47.3637 51.5562 47.4512 51.9101C47.4834 52.0571 47.4972 52.2133 47.4926 52.365C47.4926 54.2122 47.4926 56.0548 47.4926 57.9021C47.4926 58.0215 47.4926 58.141 47.5018 58.2559C47.5294 58.6143 47.7182 58.8349 48.0589 58.9268C48.2063 58.9681 48.3582 58.9865 48.5101 58.9865C48.6805 58.9865 48.8509 58.9865 49.0212 58.9911C49.0765 58.9911 49.1225 59.0141 49.1225 59.0784C49.1271 59.3082 49.1363 59.5379 49.0765 59.7585C49.012 60.0204 48.8232 60.2318 48.5654 60.3145C48.4457 60.3604 48.3214 60.388 48.1971 60.3972C47.8149 60.4339 47.4327 60.3926 47.0644 60.2823C46.3646 60.0617 45.9686 59.5747 45.8213 58.8716C45.7798 58.6556 45.7614 58.4351 45.766 58.2145C45.7614 57.1071 45.7614 55.9951 45.7614 54.8877Z" fill="#686868"/>
<path d="M42.7913 58.1362C42.7913 58.7979 42.7913 59.4596 42.7913 60.1213C42.7913 60.351 42.7867 60.351 42.5703 60.351C42.3539 60.351 42.1283 60.3556 41.9119 60.3051C41.5206 60.2178 41.2305 60.011 41.1062 59.6158C41.0647 59.4871 41.0463 59.3493 41.0463 59.216C41.0463 58.15 41.0417 57.0793 41.0509 56.0133C41.0463 55.5629 41.143 55.1172 41.3272 54.7037C41.6771 53.9547 42.2664 53.5227 43.0768 53.3895C43.4129 53.3297 43.7536 53.3297 44.0897 53.3941C44.2463 53.4262 44.3982 53.4814 44.5409 53.5641C44.8586 53.7479 45.052 54.0833 45.0566 54.4463C45.0612 54.6163 45.0612 54.7864 45.0566 54.9564C45.0566 55.0805 45.0244 55.0988 44.8955 55.0575C44.8402 55.0391 44.785 55.0161 44.7251 54.9977C44.3982 54.8966 44.0575 54.8645 43.7168 54.9104C43.33 54.961 43.063 55.1724 42.9156 55.5308C42.8512 55.687 42.8143 55.8524 42.8051 56.0224C42.7959 56.2154 42.7913 56.413 42.7913 56.606C42.7867 57.1161 42.7913 57.6261 42.7913 58.1362Z" fill="#686868"/>
<path d="M49.7898 56.1237C49.7898 55.3425 49.7898 54.566 49.7898 53.7848C49.7898 53.5596 49.7898 53.5596 50.0108 53.555C50.2134 53.5459 50.4206 53.5596 50.6186 53.5918C51.0744 53.6837 51.3552 53.9548 51.4657 54.4005C51.5026 54.566 51.521 54.736 51.521 54.906C51.521 55.9215 51.521 56.9416 51.521 57.9571C51.521 58.0674 51.5164 58.1777 51.5302 58.288C51.5624 58.6188 51.7098 58.8716 52.1149 58.9543C52.2991 58.9864 52.4879 58.9956 52.6721 58.991C52.8977 58.991 52.8977 58.991 52.8977 59.2162C52.9023 59.4046 52.8885 59.5884 52.8562 59.7722C52.7826 60.0938 52.5938 60.296 52.2715 60.3695C52.1656 60.3925 52.0551 60.4109 51.9446 60.4109C51.6729 60.4201 51.4013 60.3879 51.1388 60.319C50.4942 60.1444 50.0891 59.7262 49.9003 59.0921C49.8266 58.8302 49.7898 58.5591 49.7944 58.288C49.7898 57.562 49.7898 56.8451 49.7898 56.1237Z" fill="#686868"/>
<path d="M49.638 51.9007C49.638 51.3492 50.0846 50.9035 50.6371 50.8989C51.1942 50.8989 51.6731 51.3676 51.6547 51.9144C51.6455 52.4659 51.1989 52.9116 50.6463 52.9162C50.0938 52.9208 49.638 52.4751 49.6334 51.9236C49.6334 51.919 49.6334 51.9099 49.638 51.9007Z" fill="#686868"/>
<path d="M49.6013 62.7362C49.652 62.6902 49.6934 62.6489 49.7395 62.6167C50.0341 62.3962 50.5038 62.5156 50.5682 62.9292C50.582 62.9889 50.5866 63.0441 50.5912 63.1038C50.5959 63.3473 50.5912 63.5955 50.5912 63.839C50.5912 63.8895 50.5912 63.9447 50.5222 63.9585C50.4623 63.9677 50.4025 63.9401 50.3702 63.8895C50.3472 63.8436 50.338 63.793 50.3426 63.7425C50.3426 63.5587 50.3426 63.3703 50.3426 63.1819C50.3472 63.09 50.3288 62.9935 50.292 62.9108C50.2413 62.7913 50.1492 62.7454 50.0019 62.75C49.8638 62.7546 49.7671 62.8189 49.7349 62.943C49.7164 63.0349 49.7072 63.1268 49.7072 63.2187C49.7026 63.4208 49.7072 63.623 49.7072 63.8298C49.7072 63.8804 49.7118 63.9355 49.652 63.9585C49.5737 63.9768 49.4954 63.9309 49.4724 63.8574C49.4586 63.7976 49.454 63.7425 49.454 63.6828C49.454 63.5311 49.454 63.3795 49.454 63.2233C49.454 63.1405 49.4448 63.0532 49.4264 62.9705C49.3988 62.8327 49.2698 62.7362 49.1271 62.7454C48.9844 62.75 48.9015 62.8143 48.8509 62.9613C48.8278 63.0532 48.8186 63.1451 48.8232 63.237C48.8232 63.4484 48.8232 63.6598 48.8186 63.8712C48.8186 63.9171 48.7818 63.9539 48.7358 63.9585C48.7219 63.9585 48.7081 63.9539 48.6943 63.9493C48.5976 63.9125 48.5746 63.839 48.57 63.7471C48.57 63.5265 48.5654 63.306 48.5746 63.0854C48.5792 63.0027 48.5976 62.92 48.6299 62.8419C48.7496 62.5616 49.0673 62.4283 49.3527 62.5432C49.4586 62.5845 49.5231 62.6627 49.6013 62.7362Z" fill="#706E6E"/>
<path d="M55.0304 63.0162C55.0442 63.0622 55.0856 63.076 55.1178 63.099C55.3941 63.2965 55.3066 63.6825 55.0948 63.848C55.0488 63.8847 54.9935 63.9123 54.9383 63.9307C54.7173 63.995 54.4825 63.9996 54.2614 63.9444C54.1141 63.9123 54.0358 63.802 54.0174 63.6504C54.0128 63.609 54.0128 63.5677 54.0128 63.5217C54.0128 63.1495 54.0128 62.7773 54.0128 62.4051C54.0128 62.2029 54.0128 62.2029 54.22 62.1616C54.4226 62.1248 54.6252 62.1202 54.8278 62.1524C55.0764 62.1891 55.2744 62.3591 55.2468 62.6624C55.2422 62.7543 55.2053 62.8462 55.1363 62.9106C55.104 62.9427 55.0488 62.9611 55.0304 63.0162ZM54.2614 63.3838C54.2614 63.4252 54.2614 63.4666 54.2614 63.5125C54.2614 63.5309 54.2614 63.5447 54.2614 63.5631C54.2707 63.6687 54.3121 63.7285 54.4088 63.7423C54.5561 63.7744 54.7127 63.7698 54.86 63.7193C54.9981 63.6641 55.0534 63.5631 55.0396 63.393C55.0304 63.2552 54.9659 63.1771 54.8278 63.1495C54.7265 63.1311 54.6252 63.1219 54.5285 63.1219C54.2476 63.1173 54.2614 63.1081 54.2614 63.3838ZM54.5469 62.9243C54.639 62.9197 54.7311 62.9106 54.8232 62.8968C54.9383 62.8738 55.0027 62.7819 55.0073 62.6578C55.0119 62.5246 54.9613 62.4419 54.8508 62.3959C54.7495 62.3591 54.639 62.3454 54.5285 62.3546C54.2753 62.3637 54.2614 62.3775 54.2614 62.6303C54.2568 62.9381 54.2384 62.9152 54.5469 62.9243Z" fill="#737070"/>
<path d="M37.6396 63.0948C37.6304 63.2143 37.612 63.3292 37.5752 63.444C37.4462 63.7979 37.17 63.9955 36.8017 63.9863C36.4517 63.9863 36.1432 63.7473 36.0512 63.4119C35.9775 63.1683 35.9821 62.9064 36.0696 62.6629C36.1985 62.2953 36.484 62.1069 36.8937 62.1253C37.2345 62.139 37.5061 62.3642 37.5982 62.7134C37.635 62.8421 37.6488 62.9707 37.6396 63.0948ZM36.2491 63.0305C36.2445 63.1408 36.263 63.251 36.2952 63.3567C36.3689 63.6187 36.5668 63.7611 36.8385 63.7611C37.0917 63.7611 37.2805 63.6141 37.3542 63.3567C37.4094 63.1591 37.4094 62.957 37.3542 62.7594C37.2851 62.4929 37.0963 62.3504 36.8201 62.3458C36.5576 62.3458 36.3689 62.4791 36.2906 62.7318C36.2584 62.8283 36.2445 62.9294 36.2491 63.0305Z" fill="#706E6E"/>
<path d="M40.6048 63.641C40.6509 63.7881 40.5864 63.8662 40.4759 63.9213C40.1168 64.1051 39.6564 63.9351 39.5274 63.5583C39.4308 63.3056 39.463 63.0253 39.6057 62.8001C39.7761 62.5152 40.1398 62.4233 40.4299 62.5842C40.6048 62.6807 40.7061 62.8783 40.6739 63.0758C40.6647 63.1723 40.6048 63.2551 40.5174 63.2918C40.4253 63.3332 40.324 63.3561 40.2181 63.3516C40.0846 63.3516 39.9464 63.3516 39.8129 63.3561C39.7761 63.3607 39.7484 63.3883 39.7484 63.4297C39.7484 63.4343 39.7484 63.4435 39.7531 63.448C39.7991 63.6227 39.9464 63.7375 40.1444 63.7559C40.2733 63.7697 40.3608 63.7467 40.6048 63.641ZM40.0753 63.1586C40.1168 63.154 40.2181 63.154 40.3194 63.1402C40.4069 63.1264 40.4437 63.0621 40.4299 62.9702C40.4253 62.8737 40.3608 62.7909 40.2687 62.7634C40.0661 62.6945 39.8221 62.7588 39.7484 63.0253C39.7254 63.1126 39.7484 63.154 39.8405 63.1586C39.8958 63.1586 39.9556 63.1586 40.0753 63.1586Z" fill="#737070"/>
<path d="M52.0603 63.6229C52.0833 63.8204 51.9958 63.9077 51.8623 63.9491C51.3788 64.0916 51.0105 63.8526 50.9322 63.4299C50.8908 63.2185 50.9276 63.0025 51.0427 62.8187C51.2039 62.5522 51.517 62.4419 51.7932 62.5522C51.9636 62.6119 52.0925 62.7636 52.1201 62.9428C52.1478 63.0944 52.1063 63.2782 51.8807 63.3288C51.8162 63.3425 51.7472 63.3517 51.6827 63.3609C51.5814 63.3655 51.4801 63.3609 51.3788 63.3655C51.3236 63.3655 51.2499 63.3425 51.2177 63.3977C51.1763 63.4758 51.2269 63.5447 51.2775 63.6045C51.3927 63.7423 51.5446 63.7791 51.715 63.7607C51.8301 63.7377 51.9498 63.6918 52.0603 63.6229ZM51.1855 63.145C51.3696 63.1679 51.5538 63.1679 51.738 63.1404C51.8715 63.122 51.9175 63.0209 51.8577 62.8968C51.8255 62.8279 51.7656 62.7728 51.6919 62.7544C51.4203 62.6671 51.1947 62.8417 51.1855 63.145Z" fill="#737070"/>
<path d="M55.6469 62.8784C55.61 62.7773 55.6561 62.7038 55.7297 62.6348C55.9231 62.4648 56.3145 62.4602 56.5125 62.6256C56.5999 62.6946 56.6552 62.7957 56.6644 62.9105C56.6736 63.1403 56.6782 63.3654 56.6644 63.5952C56.6598 63.7514 56.5539 63.8893 56.402 63.9398C56.227 64.0088 56.029 64.0088 55.8587 63.9352C55.6883 63.8663 55.5778 63.7422 55.5824 63.5493C55.5778 63.3746 55.6883 63.2138 55.8541 63.1587C55.9231 63.1311 55.9968 63.1127 56.0751 63.1035C56.1487 63.0943 56.227 63.0943 56.3053 63.0897C56.4066 63.0806 56.4388 63.0392 56.4204 62.9427C56.4066 62.837 56.3191 62.7589 56.2132 62.7497C56.0705 62.7221 55.9231 62.7451 55.7942 62.814C55.7436 62.837 55.7113 62.883 55.6469 62.8784ZM56.2408 63.3011C56.0751 63.3011 56.0014 63.3149 55.9277 63.37C55.8356 63.4298 55.8126 63.5538 55.8725 63.6457C55.8817 63.6549 55.8863 63.6641 55.8955 63.6733C56.006 63.7698 56.1349 63.779 56.273 63.7376C56.402 63.6963 56.425 63.5952 56.425 63.4757C56.425 63.4528 56.425 63.4252 56.425 63.4022C56.4204 63.3241 56.3974 63.3057 56.3145 63.3011C56.2915 63.3011 56.2638 63.3011 56.2408 63.3011Z" fill="#737070"/>
<path d="M58.8142 63.076C58.9063 63.0668 58.9293 63.0163 58.9615 62.9795C59.0674 62.8693 59.1687 62.759 59.2746 62.6441C59.3621 62.5384 59.5094 62.5016 59.6338 62.5522C59.6338 62.6119 59.5877 62.6303 59.5601 62.6579C59.4358 62.7865 59.3069 62.9106 59.1871 63.0393C59.0306 63.2047 59.0306 63.1771 59.1825 63.3701C59.3161 63.5447 59.4542 63.7194 59.643 63.8388C59.6798 63.8618 59.666 63.9261 59.6245 63.9445C59.5371 63.9859 59.4358 63.9721 59.3621 63.9078C59.293 63.8434 59.2286 63.7791 59.1687 63.7056C59.0812 63.6045 58.9984 63.4988 58.9109 63.3931C58.8971 63.3701 58.8694 63.3609 58.8464 63.3701C58.8142 63.3793 58.8188 63.4115 58.8188 63.4345C58.8142 63.5861 58.8142 63.7377 58.8096 63.8894C58.805 63.9307 58.7682 63.9629 58.7267 63.9583C58.7175 63.9583 58.7083 63.9537 58.6991 63.9491C58.6484 63.9353 58.6116 63.8986 58.5978 63.848C58.5886 63.7975 58.584 63.7469 58.584 63.6964C58.584 63.2001 58.584 62.6992 58.584 62.1984C58.584 62.18 58.584 62.1662 58.584 62.1478C58.5886 62.0973 58.5886 62.0421 58.6577 62.0375C58.7175 62.0284 58.7774 62.0651 58.8004 62.1203C58.8142 62.1708 58.8188 62.2213 58.8188 62.2673C58.8188 62.4511 58.8188 62.6395 58.8188 62.8279L58.8142 63.076Z" fill="#706E6E"/>
<path d="M32.6207 63.2505C32.6253 63.3562 32.6069 63.4619 32.57 63.563C32.4826 63.8065 32.3214 63.9582 32.0498 63.9857C31.7781 64.0133 31.5295 63.8938 31.4144 63.6549C31.2763 63.3838 31.2855 63.0621 31.442 62.8048C31.5617 62.5934 31.7643 62.5061 31.9991 62.5153C32.2385 62.5153 32.4503 62.6578 32.5424 62.8737C32.5977 62.9886 32.6253 63.1173 32.6207 63.2505ZM32.3675 63.2643C32.3767 63.1494 32.349 63.0346 32.2938 62.9335C32.1603 62.6945 31.8057 62.6761 31.6538 62.8967C31.5203 63.0897 31.5341 63.4343 31.6814 63.6135C31.7689 63.7192 31.907 63.7744 32.0452 63.7514C32.1925 63.733 32.2846 63.6411 32.3306 63.4987C32.3583 63.4205 32.3721 63.3424 32.3675 63.2643Z" fill="#706E6E"/>
<path d="M48.2521 63.2371C48.2521 63.352 48.2336 63.4669 48.1922 63.5772C48.1047 63.8115 47.9436 63.954 47.6857 63.9816C47.4279 64.0091 47.2207 63.9172 47.0734 63.7013C46.8984 63.4347 46.9168 62.9936 47.1102 62.7409C47.3819 62.3916 47.9574 62.4468 48.16 62.8374C48.2244 62.9614 48.2567 63.0993 48.2521 63.2371ZM48.0034 63.2693C48.008 63.1452 47.9804 63.0258 47.9206 62.9155C47.7824 62.6949 47.4463 62.6811 47.2944 62.8879C47.1609 63.0809 47.1701 63.4255 47.3128 63.6048C47.4831 63.8161 47.8561 63.8207 47.9666 63.5037C47.9942 63.4301 48.0034 63.3474 48.0034 63.2693Z" fill="#706E6E"/>
<path d="M32.9477 62.9983C32.9477 62.8788 32.9477 62.7593 32.9477 62.6444C32.9477 62.5985 32.9569 62.5571 33.0076 62.5434C33.049 62.5342 33.095 62.5434 33.1273 62.5663C33.1641 62.5893 33.1825 62.6307 33.1871 62.672C33.1917 62.7318 33.1963 62.7915 33.1963 62.8466C33.1963 62.9799 33.1917 63.1177 33.2009 63.251C33.2009 63.3337 33.2147 63.421 33.2332 63.4991C33.2792 63.6737 33.4542 63.7794 33.6291 63.7335C33.6383 63.7335 33.6429 63.7289 33.6521 63.7289C33.7442 63.7059 33.8225 63.637 33.8455 63.5451C33.8732 63.4532 33.8824 63.3613 33.8824 63.2694C33.8824 63.058 33.8824 62.8466 33.8824 62.6353C33.8824 62.5939 33.8824 62.548 33.9376 62.5342C33.979 62.5204 34.0251 62.5296 34.0573 62.5571C34.0803 62.5801 34.1034 62.6077 34.1126 62.6399C34.1264 62.6812 34.131 62.7226 34.131 62.7639C34.131 62.9661 34.131 63.1683 34.131 63.3705C34.131 63.4026 34.1264 63.4394 34.1218 63.4716C34.0573 63.8759 33.689 64.0873 33.3068 63.9357C33.1457 63.8759 33.026 63.7381 32.9845 63.5681C32.9615 63.4762 32.9477 63.3843 32.9477 63.2924C32.9385 63.205 32.9431 63.104 32.9477 62.9983Z" fill="#737070"/>
<path d="M42.8881 62.511C42.8329 62.511 42.8052 62.4605 42.7592 62.4375C42.4599 62.2583 42.0685 62.3594 41.8936 62.6581C41.8614 62.7132 41.8337 62.7775 41.8199 62.8419C41.7785 63.0257 41.7969 63.2187 41.8752 63.3887C42.0041 63.6828 42.3264 63.816 42.6395 63.7241C42.7131 63.6965 42.7776 63.6644 42.8421 63.623C42.8559 63.6184 42.8697 63.6184 42.8835 63.623C42.8927 63.6368 42.8973 63.6506 42.8973 63.669C42.8881 63.7655 42.8329 63.8482 42.75 63.8941C42.6947 63.9309 42.6303 63.9539 42.5612 63.9677C42.2251 64.0366 41.8844 63.8941 41.7002 63.6046C41.4884 63.26 41.4792 62.9016 41.6772 62.5432C41.8337 62.2583 42.1468 62.0699 42.5658 62.1342C42.7131 62.148 42.8421 62.2491 42.8927 62.3869C42.9157 62.4283 42.9157 62.4742 42.8881 62.511Z" fill="#737070"/>
<path d="M58.2114 63.4711C58.2114 63.5998 58.2114 63.7239 58.2114 63.8525C58.2114 63.9031 58.2068 63.9582 58.1377 63.9628C58.0778 63.9766 58.018 63.9444 57.9904 63.8847C57.9719 63.8387 57.9673 63.7882 57.9673 63.7376C57.9627 63.5676 57.9673 63.3976 57.9627 63.2322C57.9627 63.1495 57.9535 63.0622 57.9397 62.9795C57.9121 62.8416 57.82 62.7681 57.6727 62.7497C57.5023 62.7313 57.3918 62.7819 57.3274 62.9059C57.2905 62.9841 57.2721 63.0668 57.2767 63.1495C57.2767 63.3517 57.2767 63.5538 57.2767 63.7606C57.2767 63.8112 57.2767 63.8617 57.2675 63.9123C57.2629 63.949 57.2261 63.9628 57.1892 63.9628C57.1294 63.9674 57.0695 63.9306 57.0511 63.8709C57.0373 63.8295 57.0281 63.7882 57.0281 63.7468C57.0281 63.5355 57.0281 63.3241 57.0281 63.1127C57.0373 62.7681 57.3274 62.497 57.6727 62.5108C57.7555 62.5154 57.8338 62.5337 57.9121 62.5659C58.0686 62.6394 58.1745 62.7911 58.1883 62.9657C58.2068 63.1311 58.2068 63.3011 58.216 63.4711H58.2114Z" fill="#706E6E"/>
<path d="M43.1645 63.0211C43.1645 62.8878 43.1645 62.75 43.1645 62.6167C43.1645 62.5616 43.2152 62.534 43.2704 62.5432C43.3395 62.5524 43.3947 62.6121 43.3993 62.681C43.4085 62.75 43.4085 62.8143 43.4085 62.8832C43.4131 63.0624 43.4085 63.2371 43.4177 63.4163C43.4269 63.5725 43.5052 63.6874 43.6618 63.7379C43.8183 63.7977 43.9933 63.7149 44.0531 63.5587C44.0577 63.5495 44.0623 63.5403 44.0623 63.5265C44.0808 63.453 44.09 63.3749 44.0854 63.3014C44.09 63.09 44.0854 62.8786 44.09 62.6673C44.09 62.6167 44.0854 62.5616 44.1498 62.5432C44.2189 62.5294 44.2879 62.5616 44.3156 62.6259C44.3248 62.6489 44.334 62.6719 44.334 62.6994C44.334 62.9522 44.3478 63.2049 44.3294 63.4576C44.3064 63.7885 44.09 63.9769 43.7585 63.9861C43.4408 63.9907 43.2059 63.7977 43.1691 63.476C43.1645 63.3244 43.1599 63.1727 43.1645 63.0211Z" fill="#737070"/>
<path d="M39.1407 63.4389C39.1407 63.5906 39.1453 63.7422 39.1407 63.8939C39.1407 63.9444 39.0947 63.9628 39.0486 63.9536C38.9657 63.9444 38.9197 63.9031 38.9059 63.8295C38.9013 63.779 38.8967 63.7284 38.8967 63.6779C38.8967 63.5263 38.8967 63.3746 38.8967 63.2184C38.8967 63.1586 38.8967 63.0989 38.8921 63.0392C38.8644 62.7819 38.6158 62.6486 38.3856 62.7681C38.2981 62.8094 38.2429 62.8921 38.2291 62.9886C38.2199 63.0667 38.2152 63.1403 38.2152 63.2184C38.2152 63.4206 38.2152 63.6228 38.2152 63.8295C38.2152 63.8801 38.2152 63.9352 38.1508 63.949C38.0817 63.9628 38.0127 63.926 37.985 63.8617C37.9758 63.8295 37.9666 63.7974 37.9666 63.7606C37.9666 63.5308 37.9574 63.3011 37.9666 63.0759C37.9896 62.5337 38.4915 62.4097 38.823 62.5429C39.0256 62.6256 39.1177 62.7956 39.1361 63.0024C39.1545 63.1541 39.1407 63.3011 39.1407 63.4389Z" fill="#747373"/>
<path d="M44.6977 63.6228C44.7944 63.678 44.9003 63.7193 45.0062 63.7469C45.1075 63.7699 45.2088 63.7653 45.3054 63.7285C45.3699 63.7055 45.4159 63.6458 45.4159 63.5769C45.4298 63.5079 45.3883 63.439 45.3239 63.4114C45.2364 63.3793 45.1489 63.3517 45.0614 63.3241C44.9878 63.3057 44.9141 63.2828 44.845 63.2552C44.6839 63.1771 44.624 63.0254 44.6839 62.8508C44.7023 62.7865 44.7391 62.7268 44.7852 62.6762C44.9555 62.5062 45.2824 62.4556 45.4942 62.5751C45.5357 62.6027 45.5771 62.6349 45.6093 62.6762C45.6554 62.7314 45.66 62.8187 45.6231 62.837C45.5771 62.8646 45.5449 62.8278 45.508 62.8095C45.3929 62.7589 45.264 62.7405 45.1351 62.7589C45.0752 62.7635 45.02 62.7911 44.9739 62.8278C44.9141 62.8738 44.9049 62.9611 44.9509 63.0208C44.9647 63.0346 44.9785 63.0484 44.9924 63.0576C45.0476 63.0806 45.1029 63.099 45.1581 63.1173C45.2548 63.1495 45.3515 63.1725 45.4482 63.2092C45.7567 63.3333 45.706 63.7193 45.5311 63.8618C45.3561 64.0042 45.0016 64.0364 44.8128 63.9123C44.7852 63.8939 44.7575 63.8709 44.7391 63.8434C44.7207 63.8158 44.7023 63.7836 44.6977 63.7515C44.6931 63.7055 44.6931 63.6642 44.6977 63.6228Z" fill="#737070"/>
<path d="M31.1436 62.2579C31.1297 62.3315 31.1021 62.4004 31.0607 62.4647C30.9502 62.6761 30.8259 62.8737 30.6831 63.0621C30.6095 63.154 30.5726 63.2735 30.5818 63.3883C30.5864 63.54 30.5818 63.6916 30.5818 63.8433C30.5818 63.8938 30.5772 63.949 30.5082 63.9581C30.4391 63.9719 30.37 63.9306 30.3424 63.8662C30.3332 63.8249 30.3286 63.7835 30.3286 63.7422C30.3286 63.6135 30.324 63.4894 30.3286 63.3608C30.3332 63.2597 30.301 63.1586 30.2411 63.0805C30.0754 62.8461 29.9326 62.5934 29.8175 62.3315C29.7991 62.2947 29.7853 62.2533 29.7761 62.212C29.7715 62.1798 29.7899 62.1523 29.8175 62.1477C29.8221 62.1477 29.8267 62.1477 29.8313 62.1477C29.9188 62.1339 30.0017 62.1752 30.0431 62.2533C30.0892 62.3361 30.1214 62.4234 30.1675 62.5015C30.2457 62.6393 30.3286 62.7818 30.4115 62.915C30.4483 62.9702 30.4898 62.9702 30.5312 62.9105C30.6555 62.7266 30.766 62.5382 30.8581 62.3407C30.8811 62.2855 30.9087 62.235 30.9364 62.1844C30.9686 62.1339 31.0238 62.1385 31.0745 62.1568C31.1251 62.166 31.1482 62.212 31.1436 62.2579Z" fill="#747373"/>
<path d="M46.2495 62.2671C46.3047 62.3453 46.2172 62.4739 46.3185 62.5199C46.3876 62.552 46.4843 62.5337 46.5672 62.5383C46.5902 62.5383 46.6178 62.5383 46.6454 62.5383C46.6961 62.5383 46.7559 62.5383 46.7559 62.6118C46.7652 62.6761 46.7237 62.7312 46.6639 62.7496C46.604 62.7634 46.5488 62.7726 46.4889 62.7726C46.4475 62.7772 46.406 62.7726 46.36 62.7772C46.3139 62.7818 46.2771 62.8048 46.2771 62.8553C46.2771 63.0851 46.2679 63.3102 46.2817 63.54C46.2863 63.6778 46.3784 63.7513 46.5165 63.7559C46.558 63.7559 46.5994 63.7513 46.6408 63.7422C46.7145 63.7376 46.7467 63.7789 46.7283 63.8478C46.7145 63.9076 46.6685 63.9535 46.6086 63.9719C46.337 64.0638 46.0837 63.9214 46.0285 63.6411C46.0193 63.5997 46.0147 63.5584 46.0193 63.517C46.0193 63.2137 46.0193 62.9105 46.0193 62.6026C46.0147 62.5107 46.0423 62.4142 46.0975 62.3407C46.1436 62.2901 46.185 62.2488 46.2495 62.2671Z" fill="#737070"/>
<path d="M52.4609 63.407C52.4609 63.2967 52.4563 63.1864 52.4609 63.0761C52.4655 62.9658 52.4931 62.8556 52.5438 62.7591C52.6451 62.5753 52.8661 62.4879 53.0686 62.5523C53.1515 62.5753 53.2068 62.658 53.1976 62.7453C53.1976 62.7774 53.1838 62.8096 53.1331 62.8004C53.0825 62.7866 53.0364 62.7774 52.9858 62.7728C52.8384 62.7637 52.7602 62.8188 52.7325 62.9612C52.7187 63.044 52.7095 63.1267 52.7095 63.214C52.7049 63.4253 52.7095 63.6367 52.7095 63.8481C52.7095 63.8895 52.7049 63.9354 52.6589 63.9538C52.599 63.9676 52.5392 63.9492 52.4977 63.8986C52.4701 63.8573 52.4563 63.8067 52.4563 63.7562C52.4563 63.6459 52.4563 63.5264 52.4609 63.407Z" fill="#747373"/>
<path d="M34.509 63.4027C34.509 63.2924 34.509 63.1821 34.509 63.0718C34.509 62.9523 34.5458 62.8375 34.6057 62.7364C34.707 62.5709 34.905 62.4974 35.0937 62.548C35.1536 62.5571 35.2042 62.5985 35.2273 62.6536C35.2503 62.6904 35.2549 62.7364 35.2365 62.7777C35.2089 62.8283 35.1674 62.8007 35.126 62.7915C35.103 62.7869 35.0753 62.7823 35.0523 62.7777C34.8681 62.7639 34.7853 62.8329 34.7668 63.0167C34.7576 63.1178 34.7622 63.2188 34.7576 63.3199C34.7576 63.5037 34.7576 63.6921 34.753 63.876C34.753 63.9403 34.7024 63.9725 34.6241 63.9541C34.555 63.9403 34.5044 63.876 34.509 63.807C34.5044 63.6738 34.509 63.5405 34.509 63.4027Z" fill="#747373"/>
<path d="M44.9833 33.4975C44.9649 31.7329 46.4613 30.3406 48.1372 30.3452C49.7579 30.3498 51.2635 31.6502 51.2589 33.4929C51.2543 35.3171 49.7487 36.6313 48.1188 36.6313C46.4198 36.6313 44.9649 35.2298 44.9833 33.4975Z" fill="#FFFEFE"/>
<path d="M36.516 56.3947C36.2489 56.3947 36.0141 56.3947 35.7747 56.3947C35.6458 56.3947 35.6319 56.3717 35.6458 56.2431C35.6642 56.0225 35.6918 55.8065 35.7793 55.5998C35.9635 55.1724 36.2627 54.8645 36.7232 54.7497C37.1053 54.6486 37.5059 54.6807 37.865 54.8416C38.2656 55.0208 38.4221 55.3654 38.4175 55.7606C38.4221 55.9628 38.3024 56.1466 38.1136 56.2155C37.9479 56.2798 37.7775 56.3258 37.598 56.3442C37.2342 56.3993 36.8613 56.3947 36.516 56.3947Z" fill="#FCFCFC"/>
<path d="M54.2608 63.3839C54.2608 63.1082 54.247 63.1174 54.5233 63.122C54.6246 63.122 54.7259 63.1312 54.8225 63.1496C54.9653 63.1772 55.0251 63.2507 55.0343 63.3931C55.0482 63.5631 54.9929 63.6642 54.8548 63.7194C54.712 63.7699 54.5555 63.7745 54.4036 63.7424C54.3115 63.724 54.27 63.6642 54.2562 63.5631C54.2562 63.5448 54.2562 63.531 54.2562 63.5126C54.2608 63.4666 54.2608 63.4253 54.2608 63.3839Z" fill="#F7F8F8"/>
<path d="M54.5466 62.9246C54.2381 62.9154 54.2611 62.9384 54.2611 62.6305C54.2611 62.3778 54.2749 62.3594 54.5282 62.3548C54.6387 62.3456 54.7492 62.3594 54.8505 62.3962C54.961 62.4421 55.0116 62.5248 55.007 62.6581C55.0024 62.7822 54.938 62.8741 54.8228 62.897C54.7262 62.9108 54.6387 62.92 54.5466 62.9246Z" fill="#F7F8F8"/>
<path d="M36.2492 63.03C36.2446 62.9289 36.263 62.8278 36.2953 62.7313C36.3736 62.4786 36.5623 62.3407 36.8248 62.3453C37.1056 62.3499 37.2898 62.4924 37.3589 62.7589C37.4141 62.9565 37.4141 63.1587 37.3589 63.3563C37.2852 63.609 37.0918 63.756 36.8432 63.7606C36.5715 63.7606 36.3736 63.6136 36.2999 63.3563C36.263 63.2506 36.2446 63.1403 36.2492 63.03Z" fill="#F7F8F8"/>
<path d="M40.0755 63.1591C39.9557 63.1591 39.8959 63.1591 39.836 63.1591C39.7486 63.1545 39.7209 63.1132 39.7439 63.0259C39.8176 62.7593 40.0616 62.695 40.2642 62.7639C40.3563 62.7915 40.4208 62.8742 40.4254 62.9707C40.4346 63.058 40.4024 63.1269 40.3149 63.1407C40.2182 63.1545 40.1169 63.1545 40.0755 63.1591Z" fill="#F7F8F8"/>
<path d="M51.1854 63.1448C51.1946 62.8416 51.4156 62.6715 51.6873 62.7543C51.761 62.7772 51.8208 62.8278 51.853 62.8967C51.9129 63.0162 51.8668 63.1219 51.7333 63.1402C51.5538 63.1678 51.3696 63.1678 51.1854 63.1448Z" fill="#F7F8F8"/>
<path d="M56.2406 63.3013C56.2636 63.3013 56.2912 63.3013 56.3142 63.3013C56.3971 63.3059 56.4201 63.3288 56.4247 63.4024C56.4247 63.4253 56.4247 63.4529 56.4247 63.4759C56.4247 63.5908 56.3971 63.6964 56.2728 63.7378C56.1347 63.7791 56.0058 63.77 55.8953 63.6735C55.817 63.5953 55.817 63.4713 55.8953 63.3932C55.9045 63.384 55.9137 63.3748 55.9229 63.3702C56.0011 63.3151 56.0748 63.3013 56.2406 63.3013Z" fill="#F7F8F8"/>
<path d="M32.3678 63.2646C32.3724 63.3427 32.3586 63.4255 32.3356 63.5036C32.2849 63.6414 32.1974 63.7379 32.0501 63.7563C31.912 63.7793 31.7738 63.7241 31.6864 63.6184C31.539 63.4392 31.5252 63.0946 31.6587 62.9016C31.8107 62.6811 32.1652 62.6994 32.2987 62.9384C32.354 63.0349 32.377 63.1498 32.3678 63.2646Z" fill="#F7F8F8"/>
<path d="M48.0039 63.2693C48.0039 63.3474 47.9947 63.4301 47.9671 63.5037C47.8612 63.8253 47.4882 63.8161 47.3133 63.6047C47.1659 63.4255 47.1567 63.0809 47.2949 62.8879C47.4422 62.6765 47.7829 62.6949 47.921 62.9155C47.9809 63.0258 48.0085 63.1452 48.0039 63.2693Z" fill="#F7F8F8"/>
</g>
</svg>
