<svg width="30" height="30" viewBox="0 0 30 30" fill="none" xmlns="http://www.w3.org/2000/svg">
<path d="M15 30C23.2843 30 30 23.2843 30 15C30 6.71573 23.2843 0 15 0C6.71573 0 0 6.71573 0 15C0 23.2843 6.71573 30 15 30Z" fill="#FFDA44"/>
<path d="M11.7402 13.0436H29.8738C28.9152 5.68359 22.6223 0 15.001 0C13.8812 0 12.7902 0.123633 11.7402 0.356836V13.0436Z" fill="#0052B4"/>
<path d="M7.82617 13.0438V1.82422C3.70703 4.07129 0.758594 8.19336 0.126953 13.0438H7.82617Z" fill="#0052B4"/>
<path d="M7.82559 16.9565H0.126953C0.758594 21.8069 3.70703 25.929 7.82617 28.1761L7.82559 16.9565Z" fill="#0052B4"/>
<path d="M11.7402 16.9565V29.6433C12.7902 29.8759 13.8812 30.0001 15.001 30.0001C22.6223 30.0001 28.9152 24.3165 29.8738 16.9565H11.7402Z" fill="#0052B4"/>
</svg>
