<svg width="90" height="90" viewBox="0 0 90 90" fill="none" xmlns="http://www.w3.org/2000/svg">
<mask id="mask0" mask-type="alpha" maskUnits="userSpaceOnUse" x="0" y="0" width="90" height="90">
<rect width="90" height="90" rx="45" fill="white"/>
</mask>
<g mask="url(#mask0)">
<rect width="90" height="90" rx="45" fill="white"/>
<path d="M26.3127 41.9027L24.5304 50.1741C23.9957 51.9592 23.0154 53.2089 20.9361 53.2981C19.1538 53.2981 18.4409 52.108 18.8865 49.6087L20.4608 41.9027H17.8468L16.0348 50.7394C15.708 54.1312 17.6983 55.0833 20.7282 54.994C23.6095 54.9048 25.5998 53.5957 26.7286 50.9774L28.7188 41.9027H26.3127ZM48.3241 46.0681L49.3637 50.3526H45.5021L48.3241 46.0681ZM49.1261 41.9027L40.3631 54.6965H42.7395L44.403 52.227H49.8687L50.4034 54.6965H53.2254L50.1064 41.9027H49.1261ZM57.6514 54.7858H62.6716C67.1867 54.5775 68.167 52.5245 66.7114 49.1029L61.216 38.3621L57.6514 54.7858ZM69.979 35C65.4638 35.2083 64.5133 37.291 65.9688 40.6828L71.4345 51.4237L74.9991 35H69.979ZM32.1646 53.0899L33.0854 48.7757H34.1251C35.6401 48.7757 36.9174 49.3112 36.9174 50.7394C36.9174 52.465 35.2242 53.1791 33.3231 53.1791L32.1646 53.0899ZM34.1548 43.5391H35.4024C36.7688 43.5391 37.6006 43.8664 37.6006 44.9673C37.6006 46.2764 36.353 47.1095 34.4816 47.1095H33.4419L34.1548 43.5391ZM32.1646 41.9027L31.9566 41.9325L29.3129 54.756H34.3924C36.1153 54.756 37.0956 54.28 37.7491 53.8932C38.7888 53.2089 39.5314 52.108 39.7987 50.7691C40.1255 48.9542 38.8779 48.0021 37.3332 47.8533C38.9076 47.4963 40.2443 46.3359 40.3334 44.6697C40.5414 41.9027 37.4224 41.9027 37.4224 41.9027H32.1646Z" fill="#D71920"/>
</g>
</svg>
