<svg width="90" height="90" viewBox="0 0 90 90" fill="none" xmlns="http://www.w3.org/2000/svg">
<mask id="mask0" mask-type="alpha" maskUnits="userSpaceOnUse" x="0" y="0" width="90" height="90">
<rect width="90" height="90" rx="45" fill="white"/>
</mask>
<g mask="url(#mask0)">
<rect width="90" height="90" rx="45" fill="white"/>
</g>
<g clip-path="url(#clip0)">
<path d="M46.0913 35.8657H43.7642V51.9464H46.0913V35.8657Z" fill="#253C4F"/>
<path d="M46.0913 30H43.7642V32.954H46.0913V30Z" fill="#253C4F"/>
<path d="M69 35.9292L61.2179 59.7992L58.8321 59.8309L61.5008 51.5078L56.569 35.9292L59.0562 35.8975L62.7338 47.666L66.5127 35.8975L69 35.9292Z" fill="#253C4F"/>
<path d="M51.92 38.0799V47.666C51.9681 48.6119 52.1068 49.1562 52.363 49.4046C52.694 49.7269 53.532 49.8696 55.0745 49.8696V52.1419C53.1156 52.1419 51.7119 51.9517 50.7565 51.0269C50.0733 50.3663 49.7797 49.4521 49.6676 48.316L49.6196 38.0799H48.0237V35.7759H49.6089L49.5929 32.7373H51.92V35.7759H55.2933V38.0799H51.92Z" fill="#253C4F"/>
<path d="M29.8441 43.3803V35.7125H31.9204V37.7206C31.9204 37.4775 32.3687 37.0389 32.5075 36.8751C33.0359 36.2674 33.6391 35.8499 34.397 35.6068C36.0516 35.0784 37.7436 35.2581 39.0139 36.558C41.7734 39.3852 40.1668 43.8242 40.1455 47.238C40.1348 49.003 40.0814 50.8367 40.5137 51.1485C40.5137 51.1485 38.0585 50.3981 38.1065 46.7412C38.1332 44.9181 38.5709 43.0738 38.3147 41.2507C38.0532 39.3799 36.8896 37.0971 34.6478 37.6731C33.4416 37.9848 32.4168 38.9308 31.6802 39.8873C31.2746 40.4157 30.9276 40.9864 30.6181 41.573C30.3832 42.038 29.8441 42.8519 29.8441 43.3803Z" fill="#80C244"/>
<path d="M31.787 44.2788V51.9466H29.7108V49.9385C29.7108 50.1816 29.2624 50.6202 29.1236 50.784C28.5952 51.3918 27.9921 51.8092 27.2342 52.0523C25.5796 52.5808 23.8876 52.4011 22.6172 51.1011C19.8578 48.2686 21.4644 43.8297 21.4857 40.4159C21.4964 38.6509 21.5498 36.8172 21.1174 36.5054C21.1174 36.5054 23.5727 37.2558 23.5246 40.9126C23.4979 42.7358 23.0603 44.5801 23.3165 46.4032C23.578 48.2739 24.7416 50.5568 26.9833 49.9808C28.1896 49.669 29.2144 48.7231 29.951 47.7666C30.3566 47.2382 30.7035 46.6674 31.0131 46.0808C31.248 45.6211 31.787 44.8073 31.787 44.2788Z" fill="#253C4F"/>
<path d="M38.6403 55.4033H38.9499V57.3216C39.0887 57.0362 39.4089 56.7614 39.9427 56.7614C40.6739 56.7614 41.1489 57.3374 41.1489 58.2886C41.1489 59.2029 40.7753 59.9955 39.8626 59.9955C39.3609 59.9955 39.078 59.7789 38.9499 59.4829C38.9552 59.6256 38.9446 59.7947 38.9285 59.9427H38.6296C38.635 59.7894 38.6403 59.5305 38.6403 59.1025V55.4033ZM40.818 58.3045C40.818 57.5488 40.5031 57.0574 39.9053 57.0574C39.2008 57.0574 38.9285 57.5013 38.9285 58.3362C38.9285 59.1764 39.11 59.7049 39.8786 59.7049C40.5244 59.7049 40.818 59.1025 40.818 58.3045Z" fill="#253C4F"/>
<path d="M45.0027 59.3287C45.0027 59.5453 45.0294 59.8201 45.0508 59.947H44.7519C44.7305 59.8307 44.7092 59.6722 44.7092 59.3974C44.5971 59.7514 44.2608 60.0051 43.7111 60.0051C42.9478 60.0051 42.7396 59.4714 42.7396 59.0645C42.7396 58.6576 42.9905 58.0974 44.1381 58.0974C44.3889 58.0974 44.5437 58.0974 44.6932 58.0974V57.7433C44.6932 57.421 44.6078 57.0458 43.9619 57.0458C43.4442 57.0458 43.236 57.2677 43.1666 57.6905H42.8571C42.9158 57.1515 43.22 56.771 43.9779 56.771C44.5811 56.771 44.9974 57.0405 44.9974 57.7063V59.3287H45.0027ZM44.6985 58.3563C44.5651 58.3563 44.3409 58.3563 44.122 58.3563C43.2307 58.3563 43.0599 58.7157 43.0599 59.0486C43.0599 59.4132 43.2841 59.7092 43.7324 59.7092C44.4316 59.7092 44.6932 59.2388 44.6932 58.4198V58.3563H44.6985Z" fill="#253C4F"/>
<path d="M47.0574 57.8013C47.0574 57.146 47.0521 56.9558 47.0468 56.8237H47.3563C47.3617 56.8871 47.3777 57.2517 47.367 57.368C47.5004 57.0615 47.7727 56.7603 48.3278 56.7603C48.8615 56.7603 49.3365 57.0245 49.3365 57.9493V59.9415H49.0216V57.9757C49.0216 57.4578 48.8241 57.0509 48.3011 57.0509C47.6125 57.0509 47.367 57.5899 47.367 58.3192V59.9362H47.0574V57.8013Z" fill="#253C4F"/>
<path d="M51.7011 58.3827C52.032 58.0392 52.8112 57.2413 53.1955 56.8238H53.5745C53.1955 57.236 52.8273 57.59 52.4376 57.9969C52.8379 58.6152 53.3183 59.3498 53.7186 59.9416H53.3503C53.0674 59.5136 52.539 58.6892 52.2188 58.2083C52.0907 58.351 51.8345 58.5782 51.7011 58.7103V59.9416H51.3915V55.397H51.7011V58.3827Z" fill="#253C4F"/>
</g>
<defs>
<clipPath id="clip0">
<rect width="48" height="30" fill="white" transform="translate(21 30)"/>
</clipPath>
</defs>
</svg>
