<svg width="90" height="90" viewBox="0 0 90 90" fill="none" xmlns="http://www.w3.org/2000/svg">
<mask id="mask0" mask-type="alpha" maskUnits="userSpaceOnUse" x="0" y="0" width="90" height="90">
<rect width="90" height="90" rx="45" fill="white"/>
</mask>
<g mask="url(#mask0)">
<rect width="90" height="90" rx="45" fill="white"/>
<path d="M38.0097 35.322L30.4384 53.7492H25.473L21.7401 39.0432C21.5288 38.1487 21.3175 37.7909 20.6132 37.4331C19.4863 36.8248 17.6199 36.2165 16 35.8587L16.1056 35.322H24.0996C25.1208 35.322 26.0364 36.0019 26.2477 37.1826L28.2198 47.8811L33.0795 35.3578H38.0097V35.322ZM57.4487 47.738C57.4487 42.8718 50.8282 42.6213 50.8634 40.4387C50.8634 39.7946 51.4973 39.079 52.8355 38.9001C53.5046 38.8285 55.371 38.757 57.4487 39.7231L58.2587 35.823C57.1318 35.3936 55.6879 35 53.8567 35C49.2787 35 46.0389 37.5047 46.0036 41.0827C45.9684 43.7305 48.3279 45.1975 50.0886 46.0921C51.9199 46.9866 52.5185 47.5591 52.5185 48.382C52.5185 49.6344 51.0747 50.1711 49.7013 50.1711C47.3418 50.2069 45.9684 49.527 44.8767 48.9903L44.0316 53.0335C45.1233 53.5345 47.1658 53.9996 49.2435 53.9996C54.2089 54.0354 57.4135 51.5665 57.4487 47.738ZM69.6685 53.7492H74L70.2319 35.322H66.2174C65.3018 35.322 64.5622 35.8587 64.2101 36.6817L57.167 53.7492H62.0971L63.0832 50.994H69.105L69.6685 53.7492ZM64.4566 47.237L66.9217 40.3313L68.3303 47.237H64.4566ZM44.7359 35.322L40.8622 53.7492H36.1433L40.017 35.322H44.7359Z" fill="#1A1F71"/>
</g>
</svg>
