<svg width="90" height="90" viewBox="0 0 90 90" fill="none" xmlns="http://www.w3.org/2000/svg">
<mask id="mask0" mask-type="alpha" maskUnits="userSpaceOnUse" x="0" y="0" width="90" height="90">
<rect width="90" height="90" rx="45" fill="white"/>
</mask>
<g mask="url(#mask0)">
<rect width="90" height="90" rx="45" fill="white"/>
<path d="M48.728 58.554C48.7608 58.4884 48.7935 58.4228 48.8181 58.3572L59.8103 34.4274C59.9004 34.2306 59.9904 34.0338 60.0804 33.8452C60.1132 33.7796 60.1459 33.7222 60.2359 33.7222C60.4406 33.7222 60.6452 33.7222 60.8744 33.7222C60.8252 33.8452 60.7925 33.9354 60.7516 34.0256C56.8229 42.5789 52.9023 51.1323 48.9818 59.6939C48.8262 60.0383 48.6625 60.3745 48.5152 60.719C48.3843 61.0224 48.4006 61.3176 48.6216 61.5718C48.8181 61.8179 49.1373 61.9245 49.4401 61.8507C49.7675 61.7851 49.9312 61.5554 50.0622 61.2766C53.9745 52.7561 57.8787 44.2273 61.7911 35.7067C62.1676 34.8949 62.5277 34.0748 62.9124 33.2629C63.1252 32.8119 62.9533 32.1804 62.364 32.0574V32.0082H59.4093C59.4175 32.0246 59.4093 32.041 59.4011 32.0574C59.0819 32.1312 58.91 32.3526 58.779 32.6315C58.3452 33.5827 57.9033 34.534 57.4695 35.4853C54.3674 42.2755 51.2571 49.0575 48.1469 55.8395C48.106 55.9379 48.0569 56.0363 47.9996 56.143C47.8768 56.0609 47.8768 55.9215 47.8113 55.8313C47.5821 55.5033 47.6394 55.1999 47.8031 54.839C51.0034 47.8602 54.1955 40.8814 57.3794 33.8944C57.4776 33.6729 57.584 33.4515 57.6823 33.2383C57.9196 32.7135 57.6659 32.1968 57.1175 32.041C57.1175 32.0246 57.1093 32.0082 57.1011 32H54.2119C54.2201 32.0164 54.2119 32.0328 54.2037 32.0492C53.8845 32.1148 53.6962 32.328 53.5653 32.6069C53.066 33.6976 52.5667 34.7882 52.0674 35.8789L45.495 50.2302C45.4623 50.2958 45.4295 50.3614 45.3968 50.4434C45.2658 50.304 45.2331 50.1236 45.1431 49.976C44.9712 49.7054 45.0039 49.4676 45.1349 49.1805C47.5412 43.9567 49.9476 38.7246 52.3375 33.4925C52.4358 33.2711 52.5176 33.0497 52.4603 32.7955C52.3948 32.4592 52.1247 32.205 51.7892 32.1558C51.6909 32.1476 51.5927 32.1394 51.4945 32.1394C50.7415 32.1394 49.9885 32.1558 49.2437 32.1312C48.7608 32.1148 48.4579 32.328 48.2615 32.7627C46.9437 35.6493 45.6178 38.536 44.2918 41.4226C43.8253 42.4477 43.3506 43.4728 42.884 44.4979C42.8513 44.5717 42.8104 44.6373 42.7613 44.7439C42.6303 44.4569 42.5157 44.2027 42.3929 43.9403C42.352 43.8419 42.4175 43.7681 42.4502 43.6942C42.8349 42.8414 43.2278 41.9803 43.6207 41.1274C44.8075 38.536 45.9861 35.9528 47.1647 33.3613C47.3284 33.0087 47.2793 32.6561 47.0338 32.3854C46.8946 32.2296 46.6982 32.1312 46.4936 32.1312C45.6096 32.1312 44.7256 32.123 43.8335 32.1312C43.457 32.1312 43.2032 32.3608 43.0559 32.6889L42.172 34.616C41.5335 36.0102 40.8951 37.3961 40.2567 38.782C40.224 38.8558 40.2076 38.9378 40.1257 38.987L39.4464 37.5847C38.7261 36.0184 38.0059 34.4438 37.2938 32.8693C37.1301 32.5002 36.9336 32.1722 36.549 32.0082H36.1725C36.107 32.0984 35.9924 32.1148 35.9024 32.1722C35.6241 32.369 35.4849 32.6315 35.5258 32.9841C35.5504 33.1071 35.5913 33.2219 35.6568 33.3367C36.8027 35.8461 37.9486 38.3474 39.0944 40.8568C39.1763 40.9962 39.1763 41.1684 39.1026 41.3078C37.7112 44.3339 36.3198 47.3518 34.9365 50.3778C34.912 50.4434 34.8792 50.5091 34.8301 50.5583C34.7647 50.468 34.7074 50.3696 34.6746 50.263C32.0145 44.4487 29.3463 38.6262 26.678 32.8119C26.6371 32.7135 26.588 32.6151 26.5307 32.5248C26.2851 32.1558 25.8432 32.0328 25.4748 32.2296C25.0492 32.4592 24.8937 32.8857 25.0738 33.3203C25.1065 33.3941 25.1393 33.4679 25.172 33.5417L33.9707 52.7807C34.0035 52.8627 34.0444 52.9447 34.0853 53.0267C34.4209 53.6007 35.1657 53.6171 35.5177 53.0595C35.5831 52.9529 35.6404 52.8381 35.6814 52.7233L39.9784 43.4072C40.0112 43.3088 40.0603 43.2186 40.1257 43.1366C40.2485 43.317 40.3058 43.5302 40.4122 43.7106C40.5022 43.8583 40.4777 43.9895 40.4122 44.1371C40.0439 44.9326 39.6756 45.728 39.3154 46.5235C38.0059 49.3774 36.6963 52.2312 35.3867 55.0933C35.2721 55.3229 35.2721 55.5853 35.3867 55.8149C35.4604 55.9625 35.5258 56.1102 35.5913 56.2578C35.9433 57.0368 36.2952 57.8077 36.639 58.5868C36.7536 58.8492 36.9336 59.0378 37.2119 59.1034C37.6621 59.2182 38.0386 59.0378 38.2432 58.6032C38.6688 57.6847 39.0863 56.7662 39.5119 55.8477C40.5514 53.5843 41.5908 51.3291 42.6303 49.0657C42.663 48.9919 42.6712 48.9017 42.7694 48.8525C42.8595 49.0411 42.925 49.2297 43.0232 49.402C43.1214 49.5742 43.0968 49.7054 43.0232 49.8776C41.378 53.4613 39.7329 57.0532 38.0959 60.637C38.055 60.7272 38.014 60.8174 37.9813 60.9076C37.8258 61.3258 38.0386 61.7851 38.4478 61.9409C38.4806 61.9573 38.5215 61.9655 38.5542 61.9737C38.9553 62.0721 39.3236 61.8917 39.5119 61.4816C39.9457 60.5385 40.3795 59.5955 40.8133 58.6524C41.8446 56.4054 42.8759 54.1666 43.9071 51.9196C43.9481 51.8376 43.9563 51.731 44.0627 51.6818C44.1281 51.8212 44.1854 51.9524 44.2509 52.0836C44.3737 52.3542 44.4883 52.6248 44.6274 52.8873C44.7584 53.1743 45.0448 53.3547 45.3559 53.3547C45.6914 53.3629 45.9288 53.1907 46.1007 52.9119C46.1498 52.8299 46.1907 52.7397 46.2316 52.6494L54.261 35.1245C54.4492 34.7062 54.6457 34.2962 54.8339 33.878C54.8749 33.796 54.8994 33.7058 55.014 33.714C55.2104 33.7222 55.4069 33.6976 55.6033 33.7304C55.6115 33.8698 55.5296 33.9764 55.4805 34.083C52.935 39.6513 50.3814 45.2196 47.8359 50.7879C47.1975 52.1902 46.5509 53.5843 45.9124 54.9867C45.806 55.1835 45.7897 55.4295 45.8797 55.6345C46.3135 56.6104 46.7555 57.5781 47.1975 58.5458C47.3448 58.8738 47.6231 59.0214 47.975 59.0214C48.2942 59.0296 48.5889 58.8492 48.728 58.554ZM41.1325 40.8896C41.4762 40.1433 41.82 39.3971 42.1638 38.6426C42.8677 37.1173 43.5716 35.5919 44.2673 34.0584C44.3491 33.8698 44.4473 33.796 44.6438 33.8206C44.7993 33.8288 44.963 33.8288 45.1185 33.8206L41.4271 41.8901C41.2962 41.6031 41.1898 41.3652 41.0752 41.1356C41.0343 41.0454 41.0997 40.9716 41.1325 40.8896ZM41.7218 46.9991C41.2307 48.0734 40.7396 49.1477 40.2485 50.222C39.3727 52.1328 38.497 54.0436 37.6294 55.9543C37.5802 56.0609 37.5311 56.1594 37.4657 56.2988C37.4493 56.2824 37.4329 56.2578 37.4165 56.2414C37.302 55.9871 37.1219 55.7411 37.0973 55.4787C37.0728 55.2327 37.2774 55.0031 37.3838 54.7652C38.677 51.9196 39.9784 49.0821 41.2798 46.2447C41.3125 46.1381 41.3698 46.0479 41.4435 45.9658C41.5663 46.2365 41.689 46.4907 41.8036 46.7531C41.8364 46.8433 41.7709 46.9171 41.7218 46.9991ZM44.0381 47.606C43.9071 47.319 43.8007 47.0975 43.6943 46.8679C43.637 46.7449 43.7025 46.6629 43.7516 46.5645C44.1691 45.646 44.5947 44.7275 45.0203 43.8091C46.5099 40.5698 47.9914 37.3387 49.481 34.0994C49.5056 34.042 49.5383 33.9846 49.5629 33.9272C49.5874 33.8616 49.6529 33.8124 49.7266 33.8288C49.923 33.8288 50.1195 33.8288 50.3568 33.8288L44.0381 47.606Z" fill="#990D81"/>
</g>
</svg>
