<svg width="283" height="422" viewBox="0 0 283 422" fill="none" xmlns="http://www.w3.org/2000/svg">
<circle cx="220.5" cy="62.5" r="62" stroke="#1DCF9F"/>
<circle cx="3.5" cy="226.5" r="106" stroke="#6B38F5" stroke-opacity="0.22"/>
<circle cx="169.5" cy="210.5" r="5.5" fill="#FFA500"/>
<g clip-path="url(#clip0)">
<path d="M226.656 343.411C227.588 343.411 228.344 342.648 228.344 341.706C228.344 340.764 227.588 340 226.656 340C225.724 340 224.969 340.764 224.969 341.706C224.969 342.648 225.724 343.411 226.656 343.411Z" fill="#19D1A0" fill-opacity="0.5"/>
<path d="M240.002 341.706C240.002 342.65 239.249 343.411 238.315 343.411C237.38 343.411 236.627 342.65 236.627 341.706C236.627 340.761 237.38 340 238.315 340C239.249 340 240.002 340.761 240.002 341.706Z" fill="#19D1A0" fill-opacity="0.5"/>
<path d="M249.998 343.411C250.93 343.411 251.686 342.648 251.686 341.706C251.686 340.764 250.93 340 249.998 340C249.066 340 248.311 340.764 248.311 341.706C248.311 342.648 249.066 343.411 249.998 343.411Z" fill="#19D1A0" fill-opacity="0.5"/>
<path d="M261.654 343.411C262.586 343.411 263.342 342.648 263.342 341.706C263.342 340.764 262.586 340 261.654 340C260.722 340 259.967 340.764 259.967 341.706C259.967 342.648 260.722 343.411 261.654 343.411Z" fill="#19D1A0" fill-opacity="0.5"/>
<path d="M273.338 343.411C274.27 343.411 275.026 342.648 275.026 341.706C275.026 340.764 274.27 340 273.338 340C272.406 340 271.65 340.764 271.65 341.706C271.65 342.648 272.406 343.411 273.338 343.411Z" fill="#19D1A0" fill-opacity="0.5"/>
<path d="M215 343.411C215.932 343.411 216.688 342.648 216.688 341.706C216.688 340.764 215.932 340 215 340C214.068 340 213.312 340.764 213.312 341.706C213.312 342.648 214.068 343.411 215 343.411Z" fill="#19D1A0" fill-opacity="0.5"/>
<path d="M203.342 343.411C204.274 343.411 205.03 342.648 205.03 341.706C205.03 340.764 204.274 340 203.342 340C202.41 340 201.654 340.764 201.654 341.706C201.654 342.648 202.41 343.411 203.342 343.411Z" fill="#19D1A0" fill-opacity="0.5"/>
<path d="M145.002 343.411C145.934 343.411 146.69 342.648 146.69 341.706C146.69 340.764 145.934 340 145.002 340C144.07 340 143.314 340.764 143.314 341.706C143.314 342.648 144.07 343.411 145.002 343.411Z" fill="#19D1A0" fill-opacity="0.5"/>
<path d="M158.348 341.706C158.348 342.65 157.595 343.411 156.66 343.411C155.726 343.411 154.973 342.65 154.973 341.706C154.973 340.761 155.726 340 156.66 340C157.595 340 158.348 340.761 158.348 341.706Z" fill="#19D1A0" fill-opacity="0.5"/>
<path d="M168.344 343.411C169.276 343.411 170.031 342.648 170.031 341.706C170.031 340.764 169.276 340 168.344 340C167.412 340 166.656 340.764 166.656 341.706C166.656 342.648 167.412 343.411 168.344 343.411Z" fill="#19D1A0" fill-opacity="0.5"/>
<path d="M180 343.411C180.932 343.411 181.688 342.648 181.688 341.706C181.688 340.764 180.932 340 180 340C179.068 340 178.312 340.764 178.312 341.706C178.312 342.648 179.068 343.411 180 343.411Z" fill="#19D1A0" fill-opacity="0.5"/>
<path d="M191.684 343.411C192.616 343.411 193.371 342.648 193.371 341.706C193.371 340.764 192.616 340 191.684 340C190.752 340 189.996 340.764 189.996 341.706C189.996 342.648 190.752 343.411 191.684 343.411Z" fill="#19D1A0" fill-opacity="0.5"/>
<path d="M133.346 343.411C134.278 343.411 135.033 342.648 135.033 341.706C135.033 340.764 134.278 340 133.346 340C132.414 340 131.658 340.764 131.658 341.706C131.658 342.648 132.414 343.411 133.346 343.411Z" fill="#19D1A0" fill-opacity="0.5"/>
<path d="M121.688 343.411C122.62 343.411 123.375 342.648 123.375 341.706C123.375 340.764 122.62 340 121.688 340C120.756 340 120 340.764 120 341.706C120 342.648 120.756 343.411 121.688 343.411Z" fill="#19D1A0" fill-opacity="0.5"/>
<path d="M226.656 359.129C227.588 359.129 228.344 358.365 228.344 357.423C228.344 356.481 227.588 355.717 226.656 355.717C225.724 355.717 224.969 356.481 224.969 357.423C224.969 358.365 225.724 359.129 226.656 359.129Z" fill="#19D1A0" fill-opacity="0.5"/>
<path d="M240.002 357.423C240.002 358.368 239.249 359.129 238.315 359.129C237.38 359.129 236.627 358.368 236.627 357.423C236.627 356.478 237.38 355.717 238.315 355.717C239.249 355.717 240.002 356.478 240.002 357.423Z" fill="#19D1A0" fill-opacity="0.5"/>
<path d="M249.998 359.129C250.93 359.129 251.686 358.365 251.686 357.423C251.686 356.481 250.93 355.717 249.998 355.717C249.066 355.717 248.311 356.481 248.311 357.423C248.311 358.365 249.066 359.129 249.998 359.129Z" fill="#19D1A0" fill-opacity="0.5"/>
<path d="M261.654 359.129C262.586 359.129 263.342 358.365 263.342 357.423C263.342 356.481 262.586 355.717 261.654 355.717C260.722 355.717 259.967 356.481 259.967 357.423C259.967 358.365 260.722 359.129 261.654 359.129Z" fill="#19D1A0" fill-opacity="0.5"/>
<path d="M273.338 359.129C274.27 359.129 275.026 358.365 275.026 357.423C275.026 356.481 274.27 355.717 273.338 355.717C272.406 355.717 271.65 356.481 271.65 357.423C271.65 358.365 272.406 359.129 273.338 359.129Z" fill="#19D1A0" fill-opacity="0.5"/>
<path d="M215 359.129C215.932 359.129 216.688 358.365 216.688 357.423C216.688 356.481 215.932 355.717 215 355.717C214.068 355.717 213.312 356.481 213.312 357.423C213.312 358.365 214.068 359.129 215 359.129Z" fill="#19D1A0" fill-opacity="0.5"/>
<path d="M203.342 359.129C204.274 359.129 205.03 358.365 205.03 357.423C205.03 356.481 204.274 355.717 203.342 355.717C202.41 355.717 201.654 356.481 201.654 357.423C201.654 358.365 202.41 359.129 203.342 359.129Z" fill="#19D1A0" fill-opacity="0.5"/>
<path d="M145.002 359.129C145.934 359.129 146.69 358.365 146.69 357.423C146.69 356.481 145.934 355.717 145.002 355.717C144.07 355.717 143.314 356.481 143.314 357.423C143.314 358.365 144.07 359.129 145.002 359.129Z" fill="#19D1A0" fill-opacity="0.5"/>
<path d="M158.348 357.423C158.348 358.368 157.595 359.129 156.66 359.129C155.726 359.129 154.973 358.368 154.973 357.423C154.973 356.478 155.726 355.717 156.66 355.717C157.595 355.717 158.348 356.478 158.348 357.423Z" fill="#19D1A0" fill-opacity="0.5"/>
<path d="M168.344 359.129C169.276 359.129 170.031 358.365 170.031 357.423C170.031 356.481 169.276 355.717 168.344 355.717C167.412 355.717 166.656 356.481 166.656 357.423C166.656 358.365 167.412 359.129 168.344 359.129Z" fill="#19D1A0" fill-opacity="0.5"/>
<path d="M180 359.129C180.932 359.129 181.688 358.365 181.688 357.423C181.688 356.481 180.932 355.717 180 355.717C179.068 355.717 178.312 356.481 178.312 357.423C178.312 358.365 179.068 359.129 180 359.129Z" fill="#19D1A0" fill-opacity="0.5"/>
<path d="M191.684 359.129C192.616 359.129 193.371 358.365 193.371 357.423C193.371 356.481 192.616 355.717 191.684 355.717C190.752 355.717 189.996 356.481 189.996 357.423C189.996 358.365 190.752 359.129 191.684 359.129Z" fill="#19D1A0" fill-opacity="0.5"/>
<path d="M133.346 359.129C134.278 359.129 135.033 358.365 135.033 357.423C135.033 356.481 134.278 355.717 133.346 355.717C132.414 355.717 131.658 356.481 131.658 357.423C131.658 358.365 132.414 359.129 133.346 359.129Z" fill="#19D1A0" fill-opacity="0.5"/>
<path d="M121.688 359.129C122.62 359.129 123.375 358.365 123.375 357.423C123.375 356.481 122.62 355.717 121.688 355.717C120.756 355.717 120 356.481 120 357.423C120 358.365 120.756 359.129 121.688 359.129Z" fill="#19D1A0" fill-opacity="0.5"/>
<path d="M226.656 374.846C227.588 374.846 228.344 374.082 228.344 373.14C228.344 372.198 227.588 371.435 226.656 371.435C225.724 371.435 224.969 372.198 224.969 373.14C224.969 374.082 225.724 374.846 226.656 374.846Z" fill="#19D1A0" fill-opacity="0.5"/>
<path d="M240.002 373.14C240.002 374.085 239.249 374.846 238.315 374.846C237.38 374.846 236.627 374.085 236.627 373.14C236.627 372.196 237.38 371.435 238.315 371.435C239.249 371.435 240.002 372.196 240.002 373.14Z" fill="#19D1A0" fill-opacity="0.5"/>
<path d="M249.998 374.846C250.93 374.846 251.686 374.082 251.686 373.14C251.686 372.198 250.93 371.435 249.998 371.435C249.066 371.435 248.311 372.198 248.311 373.14C248.311 374.082 249.066 374.846 249.998 374.846Z" fill="#19D1A0" fill-opacity="0.5"/>
<path d="M261.654 374.846C262.586 374.846 263.342 374.082 263.342 373.14C263.342 372.198 262.586 371.435 261.654 371.435C260.722 371.435 259.967 372.198 259.967 373.14C259.967 374.082 260.722 374.846 261.654 374.846Z" fill="#19D1A0" fill-opacity="0.5"/>
<path d="M273.338 374.846C274.27 374.846 275.026 374.082 275.026 373.14C275.026 372.198 274.27 371.435 273.338 371.435C272.406 371.435 271.65 372.198 271.65 373.14C271.65 374.082 272.406 374.846 273.338 374.846Z" fill="#19D1A0" fill-opacity="0.5"/>
<path d="M215 374.846C215.932 374.846 216.688 374.082 216.688 373.14C216.688 372.198 215.932 371.435 215 371.435C214.068 371.435 213.312 372.198 213.312 373.14C213.312 374.082 214.068 374.846 215 374.846Z" fill="#19D1A0" fill-opacity="0.5"/>
<path d="M203.342 374.846C204.274 374.846 205.03 374.082 205.03 373.14C205.03 372.198 204.274 371.435 203.342 371.435C202.41 371.435 201.654 372.198 201.654 373.14C201.654 374.082 202.41 374.846 203.342 374.846Z" fill="#19D1A0" fill-opacity="0.5"/>
<path d="M145.002 374.846C145.934 374.846 146.69 374.082 146.69 373.14C146.69 372.198 145.934 371.435 145.002 371.435C144.07 371.435 143.314 372.198 143.314 373.14C143.314 374.082 144.07 374.846 145.002 374.846Z" fill="#19D1A0" fill-opacity="0.5"/>
<path d="M158.348 373.14C158.348 374.085 157.595 374.846 156.66 374.846C155.726 374.846 154.973 374.085 154.973 373.14C154.973 372.196 155.726 371.435 156.66 371.435C157.595 371.435 158.348 372.196 158.348 373.14Z" fill="#19D1A0" fill-opacity="0.5"/>
<path d="M168.344 374.846C169.276 374.846 170.031 374.082 170.031 373.14C170.031 372.198 169.276 371.435 168.344 371.435C167.412 371.435 166.656 372.198 166.656 373.14C166.656 374.082 167.412 374.846 168.344 374.846Z" fill="#19D1A0" fill-opacity="0.5"/>
<path d="M180 374.846C180.932 374.846 181.688 374.082 181.688 373.14C181.688 372.198 180.932 371.435 180 371.435C179.068 371.435 178.312 372.198 178.312 373.14C178.312 374.082 179.068 374.846 180 374.846Z" fill="#19D1A0" fill-opacity="0.5"/>
<path d="M191.684 374.846C192.616 374.846 193.371 374.082 193.371 373.14C193.371 372.198 192.616 371.435 191.684 371.435C190.752 371.435 189.996 372.198 189.996 373.14C189.996 374.082 190.752 374.846 191.684 374.846Z" fill="#19D1A0" fill-opacity="0.5"/>
<path d="M133.346 374.846C134.278 374.846 135.033 374.082 135.033 373.14C135.033 372.198 134.278 371.435 133.346 371.435C132.414 371.435 131.658 372.198 131.658 373.14C131.658 374.082 132.414 374.846 133.346 374.846Z" fill="#19D1A0" fill-opacity="0.5"/>
<path d="M121.688 374.846C122.62 374.846 123.375 374.082 123.375 373.14C123.375 372.198 122.62 371.435 121.688 371.435C120.756 371.435 120 372.198 120 373.14C120 374.082 120.756 374.846 121.688 374.846Z" fill="#19D1A0" fill-opacity="0.5"/>
<path d="M226.656 390.565C227.588 390.565 228.344 389.802 228.344 388.86C228.344 387.918 227.588 387.154 226.656 387.154C225.724 387.154 224.969 387.918 224.969 388.86C224.969 389.802 225.724 390.565 226.656 390.565Z" fill="#19D1A0" fill-opacity="0.5"/>
<path d="M240.002 388.86C240.002 389.804 239.249 390.565 238.315 390.565C237.38 390.565 236.627 389.804 236.627 388.86C236.627 387.915 237.38 387.154 238.315 387.154C239.249 387.18 240.002 387.915 240.002 388.86Z" fill="#19D1A0" fill-opacity="0.5"/>
<path d="M249.998 390.565C250.93 390.565 251.686 389.802 251.686 388.86C251.686 387.918 250.93 387.154 249.998 387.154C249.066 387.154 248.311 387.918 248.311 388.86C248.311 389.802 249.066 390.565 249.998 390.565Z" fill="#19D1A0" fill-opacity="0.5"/>
<path d="M261.654 390.565C262.586 390.565 263.342 389.802 263.342 388.86C263.342 387.918 262.586 387.154 261.654 387.154C260.722 387.154 259.967 387.918 259.967 388.86C259.967 389.802 260.722 390.565 261.654 390.565Z" fill="#19D1A0" fill-opacity="0.5"/>
<path d="M273.338 390.565C274.27 390.565 275.026 389.802 275.026 388.86C275.026 387.918 274.27 387.154 273.338 387.154C272.406 387.154 271.65 387.918 271.65 388.86C271.65 389.802 272.406 390.565 273.338 390.565Z" fill="#19D1A0" fill-opacity="0.5"/>
<path d="M215 390.565C215.932 390.565 216.688 389.802 216.688 388.86C216.688 387.918 215.932 387.154 215 387.154C214.068 387.154 213.312 387.918 213.312 388.86C213.312 389.802 214.068 390.565 215 390.565Z" fill="#19D1A0" fill-opacity="0.5"/>
<path d="M203.342 390.565C204.274 390.565 205.03 389.802 205.03 388.86C205.03 387.918 204.274 387.154 203.342 387.154C202.41 387.154 201.654 387.918 201.654 388.86C201.654 389.802 202.41 390.565 203.342 390.565Z" fill="#19D1A0" fill-opacity="0.5"/>
<path d="M145.002 390.565C145.934 390.565 146.69 389.802 146.69 388.86C146.69 387.918 145.934 387.154 145.002 387.154C144.07 387.154 143.314 387.918 143.314 388.86C143.314 389.802 144.07 390.565 145.002 390.565Z" fill="#19D1A0" fill-opacity="0.5"/>
<path d="M158.348 388.86C158.348 389.804 157.595 390.565 156.66 390.565C155.726 390.565 154.973 389.804 154.973 388.86C154.973 387.915 155.726 387.154 156.66 387.154C157.595 387.18 158.348 387.915 158.348 388.86Z" fill="#19D1A0" fill-opacity="0.5"/>
<path d="M168.344 390.565C169.276 390.565 170.031 389.802 170.031 388.86C170.031 387.918 169.276 387.154 168.344 387.154C167.412 387.154 166.656 387.918 166.656 388.86C166.656 389.802 167.412 390.565 168.344 390.565Z" fill="#19D1A0" fill-opacity="0.5"/>
<path d="M180 390.565C180.932 390.565 181.688 389.802 181.688 388.86C181.688 387.918 180.932 387.154 180 387.154C179.068 387.154 178.312 387.918 178.312 388.86C178.312 389.802 179.068 390.565 180 390.565Z" fill="#19D1A0" fill-opacity="0.5"/>
<path d="M191.684 390.565C192.616 390.565 193.371 389.802 193.371 388.86C193.371 387.918 192.616 387.154 191.684 387.154C190.752 387.154 189.996 387.918 189.996 388.86C189.996 389.802 190.752 390.565 191.684 390.565Z" fill="#19D1A0" fill-opacity="0.5"/>
<path d="M133.346 390.565C134.278 390.565 135.033 389.802 135.033 388.86C135.033 387.918 134.278 387.154 133.346 387.154C132.414 387.154 131.658 387.918 131.658 388.86C131.658 389.802 132.414 390.565 133.346 390.565Z" fill="#19D1A0" fill-opacity="0.5"/>
<path d="M121.688 390.565C122.62 390.565 123.375 389.802 123.375 388.86C123.375 387.918 122.62 387.154 121.688 387.154C120.756 387.154 120 387.918 120 388.86C120 389.802 120.756 390.565 121.688 390.565Z" fill="#19D1A0" fill-opacity="0.5"/>
<path d="M226.656 406.283C227.588 406.283 228.344 405.519 228.344 404.577C228.344 403.635 227.588 402.871 226.656 402.871C225.724 402.871 224.969 403.635 224.969 404.577C224.969 405.519 225.724 406.283 226.656 406.283Z" fill="#19D1A0" fill-opacity="0.5"/>
<path d="M240.002 404.577C240.002 405.522 239.249 406.283 238.315 406.283C237.38 406.283 236.627 405.522 236.627 404.577C236.627 403.632 237.38 402.871 238.315 402.871C239.249 402.898 240.002 403.659 240.002 404.577Z" fill="#19D1A0" fill-opacity="0.5"/>
<path d="M249.998 406.283C250.93 406.283 251.686 405.519 251.686 404.577C251.686 403.635 250.93 402.871 249.998 402.871C249.066 402.871 248.311 403.635 248.311 404.577C248.311 405.519 249.066 406.283 249.998 406.283Z" fill="#19D1A0" fill-opacity="0.5"/>
<path d="M261.654 406.283C262.586 406.283 263.342 405.519 263.342 404.577C263.342 403.635 262.586 402.871 261.654 402.871C260.722 402.871 259.967 403.635 259.967 404.577C259.967 405.519 260.722 406.283 261.654 406.283Z" fill="#19D1A0" fill-opacity="0.5"/>
<path d="M273.338 406.283C274.27 406.283 275.026 405.519 275.026 404.577C275.026 403.635 274.27 402.871 273.338 402.871C272.406 402.871 271.65 403.635 271.65 404.577C271.65 405.519 272.406 406.283 273.338 406.283Z" fill="#19D1A0" fill-opacity="0.5"/>
<path d="M215 406.283C215.932 406.283 216.688 405.519 216.688 404.577C216.688 403.635 215.932 402.871 215 402.871C214.068 402.871 213.312 403.635 213.312 404.577C213.312 405.519 214.068 406.283 215 406.283Z" fill="#19D1A0" fill-opacity="0.5"/>
<path d="M203.342 406.283C204.274 406.283 205.03 405.519 205.03 404.577C205.03 403.635 204.274 402.871 203.342 402.871C202.41 402.871 201.654 403.635 201.654 404.577C201.654 405.519 202.41 406.283 203.342 406.283Z" fill="#19D1A0" fill-opacity="0.5"/>
<path d="M145.002 406.283C145.934 406.283 146.69 405.519 146.69 404.577C146.69 403.635 145.934 402.871 145.002 402.871C144.07 402.871 143.314 403.635 143.314 404.577C143.314 405.519 144.07 406.283 145.002 406.283Z" fill="#19D1A0" fill-opacity="0.5"/>
<path d="M158.348 404.577C158.348 405.522 157.595 406.283 156.66 406.283C155.726 406.283 154.973 405.522 154.973 404.577C154.973 403.632 155.726 402.871 156.66 402.871C157.595 402.898 158.348 403.659 158.348 404.577Z" fill="#19D1A0" fill-opacity="0.5"/>
<path d="M168.344 406.283C169.276 406.283 170.031 405.519 170.031 404.577C170.031 403.635 169.276 402.871 168.344 402.871C167.412 402.871 166.656 403.635 166.656 404.577C166.656 405.519 167.412 406.283 168.344 406.283Z" fill="#19D1A0" fill-opacity="0.5"/>
<path d="M180 406.283C180.932 406.283 181.688 405.519 181.688 404.577C181.688 403.635 180.932 402.871 180 402.871C179.068 402.871 178.312 403.635 178.312 404.577C178.312 405.519 179.068 406.283 180 406.283Z" fill="#19D1A0" fill-opacity="0.5"/>
<path d="M191.684 406.283C192.616 406.283 193.371 405.519 193.371 404.577C193.371 403.635 192.616 402.871 191.684 402.871C190.752 402.871 189.996 403.635 189.996 404.577C189.996 405.519 190.752 406.283 191.684 406.283Z" fill="#19D1A0" fill-opacity="0.5"/>
<path d="M133.346 406.283C134.278 406.283 135.033 405.519 135.033 404.577C135.033 403.635 134.278 402.871 133.346 402.871C132.414 402.871 131.658 403.635 131.658 404.577C131.658 405.519 132.414 406.283 133.346 406.283Z" fill="#19D1A0" fill-opacity="0.5"/>
<path d="M121.688 406.283C122.62 406.283 123.375 405.519 123.375 404.577C123.375 403.635 122.62 402.871 121.688 402.871C120.756 402.871 120 403.635 120 404.577C120 405.519 120.756 406.283 121.688 406.283Z" fill="#19D1A0" fill-opacity="0.5"/>
<path d="M226.656 422C227.588 422 228.344 421.236 228.344 420.294C228.344 419.352 227.588 418.589 226.656 418.589C225.724 418.589 224.969 419.352 224.969 420.294C224.969 421.236 225.724 422 226.656 422Z" fill="#19D1A0" fill-opacity="0.5"/>
<path d="M240.002 420.294C240.002 421.239 239.249 422 238.315 422C237.38 422 236.627 421.239 236.627 420.294C236.627 419.35 237.38 418.589 238.315 418.589C239.249 418.615 240.002 419.376 240.002 420.294Z" fill="#19D1A0" fill-opacity="0.5"/>
<path d="M249.998 422C250.93 422 251.686 421.236 251.686 420.294C251.686 419.352 250.93 418.589 249.998 418.589C249.066 418.589 248.311 419.352 248.311 420.294C248.311 421.236 249.066 422 249.998 422Z" fill="#19D1A0" fill-opacity="0.5"/>
<path d="M261.654 422C262.586 422 263.342 421.236 263.342 420.294C263.342 419.352 262.586 418.589 261.654 418.589C260.722 418.589 259.967 419.352 259.967 420.294C259.967 421.236 260.722 422 261.654 422Z" fill="#19D1A0" fill-opacity="0.5"/>
<path d="M273.338 422C274.27 422 275.026 421.236 275.026 420.294C275.026 419.352 274.27 418.589 273.338 418.589C272.406 418.589 271.65 419.352 271.65 420.294C271.65 421.236 272.406 422 273.338 422Z" fill="#19D1A0" fill-opacity="0.5"/>
<path d="M215 422C215.932 422 216.688 421.236 216.688 420.294C216.688 419.352 215.932 418.589 215 418.589C214.068 418.589 213.312 419.352 213.312 420.294C213.312 421.236 214.068 422 215 422Z" fill="#19D1A0" fill-opacity="0.5"/>
<path d="M203.342 422C204.274 422 205.03 421.236 205.03 420.294C205.03 419.352 204.274 418.589 203.342 418.589C202.41 418.589 201.654 419.352 201.654 420.294C201.654 421.236 202.41 422 203.342 422Z" fill="#19D1A0" fill-opacity="0.5"/>
<path d="M145.002 422C145.934 422 146.69 421.236 146.69 420.294C146.69 419.352 145.934 418.589 145.002 418.589C144.07 418.589 143.314 419.352 143.314 420.294C143.314 421.236 144.07 422 145.002 422Z" fill="#19D1A0" fill-opacity="0.5"/>
<path d="M158.348 420.294C158.348 421.239 157.595 422 156.66 422C155.726 422 154.973 421.239 154.973 420.294C154.973 419.35 155.726 418.589 156.66 418.589C157.595 418.615 158.348 419.376 158.348 420.294Z" fill="#19D1A0" fill-opacity="0.5"/>
<path d="M168.344 422C169.276 422 170.031 421.236 170.031 420.294C170.031 419.352 169.276 418.589 168.344 418.589C167.412 418.589 166.656 419.352 166.656 420.294C166.656 421.236 167.412 422 168.344 422Z" fill="#19D1A0" fill-opacity="0.5"/>
<path d="M180 422C180.932 422 181.688 421.236 181.688 420.294C181.688 419.352 180.932 418.589 180 418.589C179.068 418.589 178.312 419.352 178.312 420.294C178.312 421.236 179.068 422 180 422Z" fill="#19D1A0" fill-opacity="0.5"/>
<path d="M191.684 422C192.616 422 193.371 421.236 193.371 420.294C193.371 419.352 192.616 418.589 191.684 418.589C190.752 418.589 189.996 419.352 189.996 420.294C189.996 421.236 190.752 422 191.684 422Z" fill="#19D1A0" fill-opacity="0.5"/>
<path d="M133.346 422C134.278 422 135.033 421.236 135.033 420.294C135.033 419.352 134.278 418.589 133.346 418.589C132.414 418.589 131.658 419.352 131.658 420.294C131.658 421.236 132.414 422 133.346 422Z" fill="#19D1A0" fill-opacity="0.5"/>
<path d="M121.688 422C122.62 422 123.375 421.236 123.375 420.294C123.375 419.352 122.62 418.589 121.688 418.589C120.756 418.589 120 419.352 120 420.294C120 421.236 120.756 422 121.688 422Z" fill="#19D1A0" fill-opacity="0.5"/>
</g>
<defs>
<clipPath id="clip0">
<rect width="155" height="82" fill="white" transform="translate(120 340)"/>
</clipPath>
</defs>
</svg>
