<svg width="603" height="327" viewBox="0 0 603 327" fill="none" xmlns="http://www.w3.org/2000/svg">
<g clip-path="url(#clip0)">
<path d="M14.7742 324.083L51.0825 287.775C50.8513 287.323 50.6091 286.883 50.3669 286.454L13.4531 323.356C13.8825 323.61 14.3228 323.852 14.7742 324.083Z" fill="#19D1A0" fill-opacity="0.5"/>
<path d="M18.6047 325.668L52.6671 291.605C52.5019 291.099 52.3258 290.592 52.1276 290.108L17.1074 325.128C17.5918 325.326 18.0982 325.503 18.6047 325.668Z" fill="#19D1A0" fill-opacity="0.5"/>
<path d="M11.3942 322.035L49.0346 284.394C48.7484 283.998 48.4621 283.613 48.1539 283.227L10.2383 321.165C10.6126 321.462 10.9979 321.759 11.3942 322.035Z" fill="#19D1A0" fill-opacity="0.5"/>
<path d="M50.3676 313.536L40.5254 323.378C44.6098 321 48.0006 317.61 50.3676 313.536Z" fill="#19D1A0" fill-opacity="0.5"/>
<path d="M34.6127 325.91L52.91 307.613C53.1632 306.732 53.3834 305.841 53.5485 304.938L31.9375 326.549C32.8403 326.384 33.743 326.164 34.6127 325.91Z" fill="#19D1A0" fill-opacity="0.5"/>
<path d="M22.9863 326.703L53.7018 295.987C53.6138 295.404 53.5037 294.831 53.3826 294.259L21.2578 326.384C21.8303 326.516 22.4028 326.615 22.9863 326.703Z" fill="#19D1A0" fill-opacity="0.5"/>
<path d="M27.0048 327C27.3792 327 27.7645 326.989 28.1388 326.978L53.9773 301.14C53.9883 300.765 53.9993 300.391 53.9993 300.006C53.9993 299.697 53.9883 299.389 53.9773 299.092L26.0801 326.978C26.3883 326.989 26.6966 327 27.0048 327Z" fill="#19D1A0" fill-opacity="0.5"/>
<path d="M8.42105 319.591L46.5898 281.422C46.2596 281.07 45.9183 280.729 45.566 280.399L7.4082 318.578C7.73848 318.92 8.07976 319.261 8.42105 319.591Z" fill="#19D1A0" fill-opacity="0.5"/>
<path d="M5.83457 316.761L43.7612 278.835C43.3758 278.538 42.9905 278.24 42.5942 277.954L4.96484 315.605C5.24007 316.002 5.53732 316.387 5.83457 316.761Z" fill="#19D1A0" fill-opacity="0.5"/>
<path d="M0 300.006C0 300.314 0.0110092 300.622 0.0220183 300.919L27.9193 273.022C27.611 273.011 27.3028 273 27.0055 273C26.6312 273 26.2459 273.011 25.8716 273.022L0.0220183 298.872C0.0110092 299.246 0 299.62 0 300.006Z" fill="#19D1A0" fill-opacity="0.5"/>
<path d="M3.63281 286.464L13.464 276.633C9.39061 279 5.99978 282.391 3.63281 286.464Z" fill="#19D1A0" fill-opacity="0.5"/>
<path d="M0.451172 295.063L22.0622 273.452C21.1484 273.617 20.2567 273.837 19.387 274.09L1.0897 292.387C0.836493 293.257 0.616309 294.16 0.451172 295.063Z" fill="#19D1A0" fill-opacity="0.5"/>
<path d="M0.616141 305.742L32.7409 273.617C32.1684 273.496 31.596 273.386 31.0125 273.298L0.296875 304.013C0.384948 304.597 0.49504 305.169 0.616141 305.742Z" fill="#19D1A0" fill-opacity="0.5"/>
<path d="M3.64457 313.547L40.5473 276.644C40.118 276.391 39.6776 276.149 39.2262 275.929L2.91797 312.226C3.14916 312.677 3.39136 313.118 3.64457 313.547Z" fill="#19D1A0" fill-opacity="0.5"/>
<path d="M1.87148 309.903L36.9027 274.872C36.4073 274.674 35.9118 274.497 35.4054 274.332L1.33203 308.395C1.49717 308.901 1.67332 309.408 1.87148 309.903Z" fill="#19D1A0" fill-opacity="0.5"/>
</g>
<g clip-path="url(#clip1)">
<path d="M554.656 3.4112C555.588 3.4112 556.344 2.64758 556.344 1.7056C556.344 0.763623 555.588 0 554.656 0C553.724 0 552.969 0.763623 552.969 1.7056C552.969 2.64758 553.724 3.4112 554.656 3.4112Z" fill="#19D1A0" fill-opacity="0.5"/>
<path d="M568.002 1.7056C568.002 2.65024 567.249 3.4112 566.315 3.4112C565.38 3.4112 564.627 2.65024 564.627 1.7056C564.627 0.76096 565.38 0 566.315 0C567.249 0 568.002 0.76096 568.002 1.7056Z" fill="#19D1A0" fill-opacity="0.5"/>
<path d="M577.998 3.4112C578.93 3.4112 579.686 2.64758 579.686 1.7056C579.686 0.763623 578.93 0 577.998 0C577.066 0 576.311 0.763623 576.311 1.7056C576.311 2.64758 577.066 3.4112 577.998 3.4112Z" fill="#19D1A0" fill-opacity="0.5"/>
<path d="M589.654 3.4112C590.586 3.4112 591.342 2.64758 591.342 1.7056C591.342 0.763623 590.586 0 589.654 0C588.722 0 587.967 0.763623 587.967 1.7056C587.967 2.64758 588.722 3.4112 589.654 3.4112Z" fill="#19D1A0" fill-opacity="0.5"/>
<path d="M601.338 3.4112C602.27 3.4112 603.026 2.64758 603.026 1.7056C603.026 0.763623 602.27 0 601.338 0C600.406 0 599.65 0.763623 599.65 1.7056C599.65 2.64758 600.406 3.4112 601.338 3.4112Z" fill="#19D1A0" fill-opacity="0.5"/>
<path d="M543 3.4112C543.932 3.4112 544.688 2.64758 544.688 1.7056C544.688 0.763623 543.932 0 543 0C542.068 0 541.312 0.763623 541.312 1.7056C541.312 2.64758 542.068 3.4112 543 3.4112Z" fill="#19D1A0" fill-opacity="0.5"/>
<path d="M531.342 3.4112C532.274 3.4112 533.03 2.64758 533.03 1.7056C533.03 0.763623 532.274 0 531.342 0C530.41 0 529.654 0.763623 529.654 1.7056C529.654 2.64758 530.41 3.4112 531.342 3.4112Z" fill="#19D1A0" fill-opacity="0.5"/>
<path d="M473.002 3.4112C473.934 3.4112 474.69 2.64758 474.69 1.7056C474.69 0.763623 473.934 0 473.002 0C472.07 0 471.314 0.763623 471.314 1.7056C471.314 2.64758 472.07 3.4112 473.002 3.4112Z" fill="#19D1A0" fill-opacity="0.5"/>
<path d="M486.348 1.7056C486.348 2.65024 485.595 3.4112 484.66 3.4112C483.726 3.4112 482.973 2.65024 482.973 1.7056C482.973 0.76096 483.726 0 484.66 0C485.595 0 486.348 0.76096 486.348 1.7056Z" fill="#19D1A0" fill-opacity="0.5"/>
<path d="M496.344 3.4112C497.276 3.4112 498.031 2.64758 498.031 1.7056C498.031 0.763623 497.276 0 496.344 0C495.412 0 494.656 0.763623 494.656 1.7056C494.656 2.64758 495.412 3.4112 496.344 3.4112Z" fill="#19D1A0" fill-opacity="0.5"/>
<path d="M508 3.4112C508.932 3.4112 509.688 2.64758 509.688 1.7056C509.688 0.763623 508.932 0 508 0C507.068 0 506.312 0.763623 506.312 1.7056C506.312 2.64758 507.068 3.4112 508 3.4112Z" fill="#19D1A0" fill-opacity="0.5"/>
<path d="M519.684 3.4112C520.616 3.4112 521.371 2.64758 521.371 1.7056C521.371 0.763623 520.616 0 519.684 0C518.752 0 517.996 0.763623 517.996 1.7056C517.996 2.64758 518.752 3.4112 519.684 3.4112Z" fill="#19D1A0" fill-opacity="0.5"/>
<path d="M461.346 3.4112C462.278 3.4112 463.033 2.64758 463.033 1.7056C463.033 0.763623 462.278 0 461.346 0C460.414 0 459.658 0.763623 459.658 1.7056C459.658 2.64758 460.414 3.4112 461.346 3.4112Z" fill="#19D1A0" fill-opacity="0.5"/>
<path d="M449.688 3.4112C450.62 3.4112 451.375 2.64758 451.375 1.7056C451.375 0.763623 450.62 0 449.688 0C448.756 0 448 0.763623 448 1.7056C448 2.64758 448.756 3.4112 449.688 3.4112Z" fill="#19D1A0" fill-opacity="0.5"/>
<path d="M554.656 19.1286C555.588 19.1286 556.344 18.365 556.344 17.423C556.344 16.481 555.588 15.7174 554.656 15.7174C553.724 15.7174 552.969 16.481 552.969 17.423C552.969 18.365 553.724 19.1286 554.656 19.1286Z" fill="#19D1A0" fill-opacity="0.5"/>
<path d="M568.002 17.423C568.002 18.3676 567.249 19.1286 566.315 19.1286C565.38 19.1286 564.627 18.3676 564.627 17.423C564.627 16.4784 565.38 15.7174 566.315 15.7174C567.249 15.7174 568.002 16.4784 568.002 17.423Z" fill="#19D1A0" fill-opacity="0.5"/>
<path d="M577.998 19.1286C578.93 19.1286 579.686 18.365 579.686 17.423C579.686 16.481 578.93 15.7174 577.998 15.7174C577.066 15.7174 576.311 16.481 576.311 17.423C576.311 18.365 577.066 19.1286 577.998 19.1286Z" fill="#19D1A0" fill-opacity="0.5"/>
<path d="M589.654 19.1286C590.586 19.1286 591.342 18.365 591.342 17.423C591.342 16.481 590.586 15.7174 589.654 15.7174C588.722 15.7174 587.967 16.481 587.967 17.423C587.967 18.365 588.722 19.1286 589.654 19.1286Z" fill="#19D1A0" fill-opacity="0.5"/>
<path d="M601.338 19.1286C602.27 19.1286 603.026 18.365 603.026 17.423C603.026 16.481 602.27 15.7174 601.338 15.7174C600.406 15.7174 599.65 16.481 599.65 17.423C599.65 18.365 600.406 19.1286 601.338 19.1286Z" fill="#19D1A0" fill-opacity="0.5"/>
<path d="M543 19.1286C543.932 19.1286 544.688 18.365 544.688 17.423C544.688 16.481 543.932 15.7174 543 15.7174C542.068 15.7174 541.312 16.481 541.312 17.423C541.312 18.365 542.068 19.1286 543 19.1286Z" fill="#19D1A0" fill-opacity="0.5"/>
<path d="M531.342 19.1286C532.274 19.1286 533.03 18.365 533.03 17.423C533.03 16.481 532.274 15.7174 531.342 15.7174C530.41 15.7174 529.654 16.481 529.654 17.423C529.654 18.365 530.41 19.1286 531.342 19.1286Z" fill="#19D1A0" fill-opacity="0.5"/>
<path d="M473.002 19.1286C473.934 19.1286 474.69 18.365 474.69 17.423C474.69 16.481 473.934 15.7174 473.002 15.7174C472.07 15.7174 471.314 16.481 471.314 17.423C471.314 18.365 472.07 19.1286 473.002 19.1286Z" fill="#19D1A0" fill-opacity="0.5"/>
<path d="M486.348 17.423C486.348 18.3676 485.595 19.1286 484.66 19.1286C483.726 19.1286 482.973 18.3676 482.973 17.423C482.973 16.4784 483.726 15.7174 484.66 15.7174C485.595 15.7174 486.348 16.4784 486.348 17.423Z" fill="#19D1A0" fill-opacity="0.5"/>
<path d="M496.344 19.1286C497.276 19.1286 498.031 18.365 498.031 17.423C498.031 16.481 497.276 15.7174 496.344 15.7174C495.412 15.7174 494.656 16.481 494.656 17.423C494.656 18.365 495.412 19.1286 496.344 19.1286Z" fill="#19D1A0" fill-opacity="0.5"/>
<path d="M508 19.1286C508.932 19.1286 509.688 18.365 509.688 17.423C509.688 16.481 508.932 15.7174 508 15.7174C507.068 15.7174 506.312 16.481 506.312 17.423C506.312 18.365 507.068 19.1286 508 19.1286Z" fill="#19D1A0" fill-opacity="0.5"/>
<path d="M519.684 19.1286C520.616 19.1286 521.371 18.365 521.371 17.423C521.371 16.481 520.616 15.7174 519.684 15.7174C518.752 15.7174 517.996 16.481 517.996 17.423C517.996 18.365 518.752 19.1286 519.684 19.1286Z" fill="#19D1A0" fill-opacity="0.5"/>
<path d="M461.346 19.1286C462.278 19.1286 463.033 18.365 463.033 17.423C463.033 16.481 462.278 15.7174 461.346 15.7174C460.414 15.7174 459.658 16.481 459.658 17.423C459.658 18.365 460.414 19.1286 461.346 19.1286Z" fill="#19D1A0" fill-opacity="0.5"/>
<path d="M449.688 19.1286C450.62 19.1286 451.375 18.365 451.375 17.423C451.375 16.481 450.62 15.7174 449.688 15.7174C448.756 15.7174 448 16.481 448 17.423C448 18.365 448.756 19.1286 449.688 19.1286Z" fill="#19D1A0" fill-opacity="0.5"/>
<path d="M554.656 34.846C555.588 34.846 556.344 34.0824 556.344 33.1404C556.344 32.1984 555.588 31.4348 554.656 31.4348C553.724 31.4348 552.969 32.1984 552.969 33.1404C552.969 34.0824 553.724 34.846 554.656 34.846Z" fill="#19D1A0" fill-opacity="0.5"/>
<path d="M568.002 33.1404C568.002 34.0851 567.249 34.846 566.315 34.846C565.38 34.846 564.627 34.0851 564.627 33.1404C564.627 32.1958 565.38 31.4348 566.315 31.4348C567.249 31.4348 568.002 32.1958 568.002 33.1404Z" fill="#19D1A0" fill-opacity="0.5"/>
<path d="M577.998 34.846C578.93 34.846 579.686 34.0824 579.686 33.1404C579.686 32.1984 578.93 31.4348 577.998 31.4348C577.066 31.4348 576.311 32.1984 576.311 33.1404C576.311 34.0824 577.066 34.846 577.998 34.846Z" fill="#19D1A0" fill-opacity="0.5"/>
<path d="M589.654 34.846C590.586 34.846 591.342 34.0824 591.342 33.1404C591.342 32.1984 590.586 31.4348 589.654 31.4348C588.722 31.4348 587.967 32.1984 587.967 33.1404C587.967 34.0824 588.722 34.846 589.654 34.846Z" fill="#19D1A0" fill-opacity="0.5"/>
<path d="M601.338 34.846C602.27 34.846 603.026 34.0824 603.026 33.1404C603.026 32.1984 602.27 31.4348 601.338 31.4348C600.406 31.4348 599.65 32.1984 599.65 33.1404C599.65 34.0824 600.406 34.846 601.338 34.846Z" fill="#19D1A0" fill-opacity="0.5"/>
<path d="M543 34.846C543.932 34.846 544.688 34.0824 544.688 33.1404C544.688 32.1984 543.932 31.4348 543 31.4348C542.068 31.4348 541.312 32.1984 541.312 33.1404C541.312 34.0824 542.068 34.846 543 34.846Z" fill="#19D1A0" fill-opacity="0.5"/>
<path d="M531.342 34.846C532.274 34.846 533.03 34.0824 533.03 33.1404C533.03 32.1984 532.274 31.4348 531.342 31.4348C530.41 31.4348 529.654 32.1984 529.654 33.1404C529.654 34.0824 530.41 34.846 531.342 34.846Z" fill="#19D1A0" fill-opacity="0.5"/>
<path d="M473.002 34.846C473.934 34.846 474.69 34.0824 474.69 33.1404C474.69 32.1984 473.934 31.4348 473.002 31.4348C472.07 31.4348 471.314 32.1984 471.314 33.1404C471.314 34.0824 472.07 34.846 473.002 34.846Z" fill="#19D1A0" fill-opacity="0.5"/>
<path d="M486.348 33.1404C486.348 34.0851 485.595 34.846 484.66 34.846C483.726 34.846 482.973 34.0851 482.973 33.1404C482.973 32.1958 483.726 31.4348 484.66 31.4348C485.595 31.4348 486.348 32.1958 486.348 33.1404Z" fill="#19D1A0" fill-opacity="0.5"/>
<path d="M496.344 34.846C497.276 34.846 498.031 34.0824 498.031 33.1404C498.031 32.1984 497.276 31.4348 496.344 31.4348C495.412 31.4348 494.656 32.1984 494.656 33.1404C494.656 34.0824 495.412 34.846 496.344 34.846Z" fill="#19D1A0" fill-opacity="0.5"/>
<path d="M508 34.846C508.932 34.846 509.688 34.0824 509.688 33.1404C509.688 32.1984 508.932 31.4348 508 31.4348C507.068 31.4348 506.312 32.1984 506.312 33.1404C506.312 34.0824 507.068 34.846 508 34.846Z" fill="#19D1A0" fill-opacity="0.5"/>
<path d="M519.684 34.846C520.616 34.846 521.371 34.0824 521.371 33.1404C521.371 32.1984 520.616 31.4348 519.684 31.4348C518.752 31.4348 517.996 32.1984 517.996 33.1404C517.996 34.0824 518.752 34.846 519.684 34.846Z" fill="#19D1A0" fill-opacity="0.5"/>
<path d="M461.346 34.846C462.278 34.846 463.033 34.0824 463.033 33.1404C463.033 32.1984 462.278 31.4348 461.346 31.4348C460.414 31.4348 459.658 32.1984 459.658 33.1404C459.658 34.0824 460.414 34.846 461.346 34.846Z" fill="#19D1A0" fill-opacity="0.5"/>
<path d="M449.688 34.846C450.62 34.846 451.375 34.0824 451.375 33.1404C451.375 32.1984 450.62 31.4348 449.688 31.4348C448.756 31.4348 448 32.1984 448 33.1404C448 34.0824 448.756 34.846 449.688 34.846Z" fill="#19D1A0" fill-opacity="0.5"/>
<path d="M554.656 50.5652C555.588 50.5652 556.344 49.8016 556.344 48.8596C556.344 47.9176 555.588 47.154 554.656 47.154C553.724 47.154 552.969 47.9176 552.969 48.8596C552.969 49.8016 553.724 50.5652 554.656 50.5652Z" fill="#19D1A0" fill-opacity="0.5"/>
<path d="M568.002 48.8596C568.002 49.8042 567.249 50.5652 566.315 50.5652C565.38 50.5652 564.627 49.8042 564.627 48.8596C564.627 47.9149 565.38 47.154 566.315 47.154C567.249 47.1802 568.002 47.9149 568.002 48.8596Z" fill="#19D1A0" fill-opacity="0.5"/>
<path d="M577.998 50.5652C578.93 50.5652 579.686 49.8016 579.686 48.8596C579.686 47.9176 578.93 47.154 577.998 47.154C577.066 47.154 576.311 47.9176 576.311 48.8596C576.311 49.8016 577.066 50.5652 577.998 50.5652Z" fill="#19D1A0" fill-opacity="0.5"/>
<path d="M589.654 50.5652C590.586 50.5652 591.342 49.8016 591.342 48.8596C591.342 47.9176 590.586 47.154 589.654 47.154C588.722 47.154 587.967 47.9176 587.967 48.8596C587.967 49.8016 588.722 50.5652 589.654 50.5652Z" fill="#19D1A0" fill-opacity="0.5"/>
<path d="M601.338 50.5652C602.27 50.5652 603.026 49.8016 603.026 48.8596C603.026 47.9176 602.27 47.154 601.338 47.154C600.406 47.154 599.65 47.9176 599.65 48.8596C599.65 49.8016 600.406 50.5652 601.338 50.5652Z" fill="#19D1A0" fill-opacity="0.5"/>
<path d="M543 50.5652C543.932 50.5652 544.688 49.8016 544.688 48.8596C544.688 47.9176 543.932 47.154 543 47.154C542.068 47.154 541.312 47.9176 541.312 48.8596C541.312 49.8016 542.068 50.5652 543 50.5652Z" fill="#19D1A0" fill-opacity="0.5"/>
<path d="M531.342 50.5652C532.274 50.5652 533.03 49.8016 533.03 48.8596C533.03 47.9176 532.274 47.154 531.342 47.154C530.41 47.154 529.654 47.9176 529.654 48.8596C529.654 49.8016 530.41 50.5652 531.342 50.5652Z" fill="#19D1A0" fill-opacity="0.5"/>
<path d="M473.002 50.5652C473.934 50.5652 474.69 49.8016 474.69 48.8596C474.69 47.9176 473.934 47.154 473.002 47.154C472.07 47.154 471.314 47.9176 471.314 48.8596C471.314 49.8016 472.07 50.5652 473.002 50.5652Z" fill="#19D1A0" fill-opacity="0.5"/>
<path d="M486.348 48.8596C486.348 49.8042 485.595 50.5652 484.66 50.5652C483.726 50.5652 482.973 49.8042 482.973 48.8596C482.973 47.9149 483.726 47.154 484.66 47.154C485.595 47.1802 486.348 47.9149 486.348 48.8596Z" fill="#19D1A0" fill-opacity="0.5"/>
<path d="M496.344 50.5652C497.276 50.5652 498.031 49.8016 498.031 48.8596C498.031 47.9176 497.276 47.154 496.344 47.154C495.412 47.154 494.656 47.9176 494.656 48.8596C494.656 49.8016 495.412 50.5652 496.344 50.5652Z" fill="#19D1A0" fill-opacity="0.5"/>
<path d="M508 50.5652C508.932 50.5652 509.688 49.8016 509.688 48.8596C509.688 47.9176 508.932 47.154 508 47.154C507.068 47.154 506.312 47.9176 506.312 48.8596C506.312 49.8016 507.068 50.5652 508 50.5652Z" fill="#19D1A0" fill-opacity="0.5"/>
<path d="M519.684 50.5652C520.616 50.5652 521.371 49.8016 521.371 48.8596C521.371 47.9176 520.616 47.154 519.684 47.154C518.752 47.154 517.996 47.9176 517.996 48.8596C517.996 49.8016 518.752 50.5652 519.684 50.5652Z" fill="#19D1A0" fill-opacity="0.5"/>
<path d="M461.346 50.5652C462.278 50.5652 463.033 49.8016 463.033 48.8596C463.033 47.9176 462.278 47.154 461.346 47.154C460.414 47.154 459.658 47.9176 459.658 48.8596C459.658 49.8016 460.414 50.5652 461.346 50.5652Z" fill="#19D1A0" fill-opacity="0.5"/>
<path d="M449.688 50.5652C450.62 50.5652 451.375 49.8016 451.375 48.8596C451.375 47.9176 450.62 47.154 449.688 47.154C448.756 47.154 448 47.9176 448 48.8596C448 49.8016 448.756 50.5652 449.688 50.5652Z" fill="#19D1A0" fill-opacity="0.5"/>
<path d="M554.656 66.2826C555.588 66.2826 556.344 65.519 556.344 64.577C556.344 63.635 555.588 62.8714 554.656 62.8714C553.724 62.8714 552.969 63.635 552.969 64.577C552.969 65.519 553.724 66.2826 554.656 66.2826Z" fill="#19D1A0" fill-opacity="0.5"/>
<path d="M568.002 64.577C568.002 65.5216 567.249 66.2826 566.315 66.2826C565.38 66.2826 564.627 65.5216 564.627 64.577C564.627 63.6324 565.38 62.8714 566.315 62.8714C567.249 62.8976 568.002 63.6586 568.002 64.577Z" fill="#19D1A0" fill-opacity="0.5"/>
<path d="M577.998 66.2826C578.93 66.2826 579.686 65.519 579.686 64.577C579.686 63.635 578.93 62.8714 577.998 62.8714C577.066 62.8714 576.311 63.635 576.311 64.577C576.311 65.519 577.066 66.2826 577.998 66.2826Z" fill="#19D1A0" fill-opacity="0.5"/>
<path d="M589.654 66.2826C590.586 66.2826 591.342 65.519 591.342 64.577C591.342 63.635 590.586 62.8714 589.654 62.8714C588.722 62.8714 587.967 63.635 587.967 64.577C587.967 65.519 588.722 66.2826 589.654 66.2826Z" fill="#19D1A0" fill-opacity="0.5"/>
<path d="M601.338 66.2826C602.27 66.2826 603.026 65.519 603.026 64.577C603.026 63.635 602.27 62.8714 601.338 62.8714C600.406 62.8714 599.65 63.635 599.65 64.577C599.65 65.519 600.406 66.2826 601.338 66.2826Z" fill="#19D1A0" fill-opacity="0.5"/>
<path d="M543 66.2826C543.932 66.2826 544.688 65.519 544.688 64.577C544.688 63.635 543.932 62.8714 543 62.8714C542.068 62.8714 541.312 63.635 541.312 64.577C541.312 65.519 542.068 66.2826 543 66.2826Z" fill="#19D1A0" fill-opacity="0.5"/>
<path d="M531.342 66.2826C532.274 66.2826 533.03 65.519 533.03 64.577C533.03 63.635 532.274 62.8714 531.342 62.8714C530.41 62.8714 529.654 63.635 529.654 64.577C529.654 65.519 530.41 66.2826 531.342 66.2826Z" fill="#19D1A0" fill-opacity="0.5"/>
<path d="M473.002 66.2826C473.934 66.2826 474.69 65.519 474.69 64.577C474.69 63.635 473.934 62.8714 473.002 62.8714C472.07 62.8714 471.314 63.635 471.314 64.577C471.314 65.519 472.07 66.2826 473.002 66.2826Z" fill="#19D1A0" fill-opacity="0.5"/>
<path d="M486.348 64.577C486.348 65.5216 485.595 66.2826 484.66 66.2826C483.726 66.2826 482.973 65.5216 482.973 64.577C482.973 63.6324 483.726 62.8714 484.66 62.8714C485.595 62.8976 486.348 63.6586 486.348 64.577Z" fill="#19D1A0" fill-opacity="0.5"/>
<path d="M496.344 66.2826C497.276 66.2826 498.031 65.519 498.031 64.577C498.031 63.635 497.276 62.8714 496.344 62.8714C495.412 62.8714 494.656 63.635 494.656 64.577C494.656 65.519 495.412 66.2826 496.344 66.2826Z" fill="#19D1A0" fill-opacity="0.5"/>
<path d="M508 66.2826C508.932 66.2826 509.688 65.519 509.688 64.577C509.688 63.635 508.932 62.8714 508 62.8714C507.068 62.8714 506.312 63.635 506.312 64.577C506.312 65.519 507.068 66.2826 508 66.2826Z" fill="#19D1A0" fill-opacity="0.5"/>
<path d="M519.684 66.2826C520.616 66.2826 521.371 65.519 521.371 64.577C521.371 63.635 520.616 62.8714 519.684 62.8714C518.752 62.8714 517.996 63.635 517.996 64.577C517.996 65.519 518.752 66.2826 519.684 66.2826Z" fill="#19D1A0" fill-opacity="0.5"/>
<path d="M461.346 66.2826C462.278 66.2826 463.033 65.519 463.033 64.577C463.033 63.635 462.278 62.8714 461.346 62.8714C460.414 62.8714 459.658 63.635 459.658 64.577C459.658 65.519 460.414 66.2826 461.346 66.2826Z" fill="#19D1A0" fill-opacity="0.5"/>
<path d="M449.688 66.2826C450.62 66.2826 451.375 65.519 451.375 64.577C451.375 63.635 450.62 62.8714 449.688 62.8714C448.756 62.8714 448 63.635 448 64.577C448 65.519 448.756 66.2826 449.688 66.2826Z" fill="#19D1A0" fill-opacity="0.5"/>
<path d="M554.656 82C555.588 82 556.344 81.2364 556.344 80.2944C556.344 79.3524 555.588 78.5888 554.656 78.5888C553.724 78.5888 552.969 79.3524 552.969 80.2944C552.969 81.2364 553.724 82 554.656 82Z" fill="#19D1A0" fill-opacity="0.5"/>
<path d="M568.002 80.2944C568.002 81.239 567.249 82 566.315 82C565.38 82 564.627 81.239 564.627 80.2944C564.627 79.3498 565.38 78.5888 566.315 78.5888C567.249 78.615 568.002 79.376 568.002 80.2944Z" fill="#19D1A0" fill-opacity="0.5"/>
<path d="M577.998 82C578.93 82 579.686 81.2364 579.686 80.2944C579.686 79.3524 578.93 78.5888 577.998 78.5888C577.066 78.5888 576.311 79.3524 576.311 80.2944C576.311 81.2364 577.066 82 577.998 82Z" fill="#19D1A0" fill-opacity="0.5"/>
<path d="M589.654 82C590.586 82 591.342 81.2364 591.342 80.2944C591.342 79.3524 590.586 78.5888 589.654 78.5888C588.722 78.5888 587.967 79.3524 587.967 80.2944C587.967 81.2364 588.722 82 589.654 82Z" fill="#19D1A0" fill-opacity="0.5"/>
<path d="M601.338 82C602.27 82 603.026 81.2364 603.026 80.2944C603.026 79.3524 602.27 78.5888 601.338 78.5888C600.406 78.5888 599.65 79.3524 599.65 80.2944C599.65 81.2364 600.406 82 601.338 82Z" fill="#19D1A0" fill-opacity="0.5"/>
<path d="M543 82C543.932 82 544.688 81.2364 544.688 80.2944C544.688 79.3524 543.932 78.5888 543 78.5888C542.068 78.5888 541.312 79.3524 541.312 80.2944C541.312 81.2364 542.068 82 543 82Z" fill="#19D1A0" fill-opacity="0.5"/>
<path d="M531.342 82C532.274 82 533.03 81.2364 533.03 80.2944C533.03 79.3524 532.274 78.5888 531.342 78.5888C530.41 78.5888 529.654 79.3524 529.654 80.2944C529.654 81.2364 530.41 82 531.342 82Z" fill="#19D1A0" fill-opacity="0.5"/>
<path d="M473.002 82C473.934 82 474.69 81.2364 474.69 80.2944C474.69 79.3524 473.934 78.5888 473.002 78.5888C472.07 78.5888 471.314 79.3524 471.314 80.2944C471.314 81.2364 472.07 82 473.002 82Z" fill="#19D1A0" fill-opacity="0.5"/>
<path d="M486.348 80.2944C486.348 81.239 485.595 82 484.66 82C483.726 82 482.973 81.239 482.973 80.2944C482.973 79.3498 483.726 78.5888 484.66 78.5888C485.595 78.615 486.348 79.376 486.348 80.2944Z" fill="#19D1A0" fill-opacity="0.5"/>
<path d="M496.344 82C497.276 82 498.031 81.2364 498.031 80.2944C498.031 79.3524 497.276 78.5888 496.344 78.5888C495.412 78.5888 494.656 79.3524 494.656 80.2944C494.656 81.2364 495.412 82 496.344 82Z" fill="#19D1A0" fill-opacity="0.5"/>
<path d="M508 82C508.932 82 509.688 81.2364 509.688 80.2944C509.688 79.3524 508.932 78.5888 508 78.5888C507.068 78.5888 506.312 79.3524 506.312 80.2944C506.312 81.2364 507.068 82 508 82Z" fill="#19D1A0" fill-opacity="0.5"/>
<path d="M519.684 82C520.616 82 521.371 81.2364 521.371 80.2944C521.371 79.3524 520.616 78.5888 519.684 78.5888C518.752 78.5888 517.996 79.3524 517.996 80.2944C517.996 81.2364 518.752 82 519.684 82Z" fill="#19D1A0" fill-opacity="0.5"/>
<path d="M461.346 82C462.278 82 463.033 81.2364 463.033 80.2944C463.033 79.3524 462.278 78.5888 461.346 78.5888C460.414 78.5888 459.658 79.3524 459.658 80.2944C459.658 81.2364 460.414 82 461.346 82Z" fill="#19D1A0" fill-opacity="0.5"/>
<path d="M449.688 82C450.62 82 451.375 81.2364 451.375 80.2944C451.375 79.3524 450.62 78.5888 449.688 78.5888C448.756 78.5888 448 79.3524 448 80.2944C448 81.2364 448.756 82 449.688 82Z" fill="#19D1A0" fill-opacity="0.5"/>
</g>
<defs>
<clipPath id="clip0">
<rect width="54" height="54" fill="white" transform="translate(0 273)"/>
</clipPath>
<clipPath id="clip1">
<rect width="155" height="82" fill="white" transform="translate(448)"/>
</clipPath>
</defs>
</svg>
