<svg width="158" height="394" viewBox="0 0 158 394" fill="none" xmlns="http://www.w3.org/2000/svg">
<circle cx="51.5" cy="287.5" r="106" stroke="#6B38F5" stroke-opacity="0.22"/>
<g clip-path="url(#clip0)">
<path d="M88.058 62.4349L132.435 18.0581C132.152 17.5064 131.856 16.9682 131.56 16.4434L86.4434 61.5468C86.9681 61.8563 87.5064 62.1523 88.058 62.4349Z" fill="#C7B3FF"/>
<path d="M92.7401 64.3716L134.372 22.7398C134.17 22.1209 133.955 21.5019 133.713 20.9099L90.9102 63.7123C91.5022 63.9545 92.1212 64.1698 92.7401 64.3716Z" fill="#C7B3FF"/>
<path d="M83.9265 59.9311L129.931 13.9262C129.582 13.4418 129.232 12.9709 128.855 12.4999L82.5137 58.8681C82.9712 59.2314 83.4421 59.5947 83.9265 59.9311Z" fill="#C7B3FF"/>
<path d="M131.559 49.5443L119.529 61.5736C124.521 58.6672 128.666 54.5228 131.559 49.5443Z" fill="#C7B3FF"/>
<path d="M112.305 64.6682L134.668 42.3049C134.978 41.2284 135.247 40.1385 135.449 39.0352L109.035 65.4486C110.139 65.2468 111.242 64.9777 112.305 64.6682Z" fill="#C7B3FF"/>
<path d="M98.095 65.637L135.636 28.0957C135.529 27.3825 135.394 26.6828 135.246 25.9832L95.9824 65.2468C96.6821 65.4082 97.3818 65.5293 98.095 65.637Z" fill="#C7B3FF"/>
<path d="M103.007 66.0001C103.465 66.0001 103.936 65.9866 104.393 65.9732L135.974 34.3928C135.987 33.9353 136 33.4778 136 33.0068C136 32.6301 135.987 32.2533 135.974 31.89L101.877 65.9732C102.254 65.9866 102.63 66.0001 103.007 66.0001Z" fill="#C7B3FF"/>
<path d="M80.2946 56.9448L126.945 10.294C126.542 9.86346 126.125 9.44633 125.694 9.04266L79.0566 55.7069C79.4603 56.124 79.8774 56.5411 80.2946 56.9448Z" fill="#C7B3FF"/>
<path d="M77.1314 53.4862L123.486 7.13145C123.015 6.76814 122.544 6.40484 122.06 6.05499L76.0684 52.0733C76.4048 52.5577 76.7681 53.0287 77.1314 53.4862Z" fill="#C7B3FF"/>
<path d="M70 33.0067C70 33.3835 70.0135 33.7602 70.0269 34.1235L104.124 0.0269113C103.747 0.0134557 103.37 0 103.007 0C102.549 0 102.078 0.0134557 101.621 0.0269113L70.0269 31.6208C70.0135 32.0783 70 32.5358 70 33.0067Z" fill="#C7B3FF"/>
<path d="M74.4395 16.4563L86.4554 4.44037C81.4768 7.33333 77.3324 11.4777 74.4395 16.4563Z" fill="#C7B3FF"/>
<path d="M70.5508 26.9654L96.9642 0.551941C95.8474 0.753776 94.7575 1.02289 93.6945 1.33237L71.3312 23.6957C71.0217 24.7587 70.7526 25.862 70.5508 26.9654Z" fill="#C7B3FF"/>
<path d="M70.7535 40.0177L110.017 0.754045C109.317 0.606032 108.618 0.471476 107.905 0.363831L70.3633 37.9051C70.4709 38.6183 70.6055 39.318 70.7535 40.0177Z" fill="#C7B3FF"/>
<path d="M74.4545 49.5575L119.558 4.45415C119.033 4.14467 118.495 3.84864 117.943 3.57953L73.5664 47.9428C73.849 48.4945 74.145 49.0327 74.4545 49.5575Z" fill="#C7B3FF"/>
<path d="M72.2882 45.1036L115.104 2.28775C114.499 2.04554 113.893 1.83025 113.274 1.62842L71.6289 43.2602C71.8307 43.8792 72.046 44.4981 72.2882 45.1036Z" fill="#C7B3FF"/>
</g>
<defs>
<clipPath id="clip0">
<rect width="66" height="66" fill="white" transform="translate(70)"/>
</clipPath>
</defs>
</svg>
