<svg width="90" height="90" viewBox="0 0 90 90" fill="none" xmlns="http://www.w3.org/2000/svg">
<mask id="mask0" mask-type="alpha" maskUnits="userSpaceOnUse" x="0" y="0" width="90" height="90">
<rect width="90" height="90" rx="45" fill="white"/>
</mask>
<g mask="url(#mask0)">
<rect width="90" height="90" rx="45" fill="white"/>
<path d="M28.8669 36.0231L28.9336 35.7591L29.0003 35.429L31.9341 25L63.1391 25.066L28.6669 52.8547L44.4027 34.0429H32.6008L31.9341 34.1089C30.5338 34.1749 29.267 35.033 28.8669 36.0231Z" fill="#808285"/>
<path d="M61.4732 44.0755C61.4732 43.9435 60.4731 49.9501 58.8061 56.1547L26.2009 56.3527L61.4066 28.168L45.604 47.1118H57.4726L58.1394 47.0458C59.5396 46.9798 61.0065 45.0656 61.4732 44.0755Z" fill="#ED1C24"/>
<path d="M30.5342 65.0001H25L28.8006 59.8516H26.2669L26.4669 58.3994H31.7344L27.9338 63.5479H30.7343L30.5342 65.0001ZM31.6011 65.0001L32.4679 58.3994H36.2685L36.0684 59.8516H33.9348L33.8014 60.9737H35.8017L35.6684 62.4258H33.6014L33.468 63.5479H35.6017L35.4017 65.0001H31.6011ZM36.5352 65.0001L37.402 58.3994H39.0689L41.0026 61.8318L41.1359 62.2278L41.4026 62.9539C41.4093 62.538 41.4293 62.1156 41.4693 61.6997L41.8694 58.3994H43.5363L42.6695 65.0001H41.0692L39.1356 61.6337L38.9356 61.1717L38.6689 60.4456C38.6622 60.8879 38.6422 61.3301 38.6022 61.7658L38.2021 65.0001H36.5352ZM44.0697 65.0001L44.9365 58.3994H46.6701L45.8033 65.0001H44.0697ZM48.0704 65.0001L48.7371 59.9836H47.3369L47.5369 58.3994H52.071L51.871 59.9836H50.4707L49.804 65.0001H48.0704ZM52.0043 65.0001L52.8711 58.3994H54.6047L54.2714 60.9737H56.5384L56.8718 58.3994H58.6054L57.7386 65.0001H56.005L56.3384 62.2938H54.0713L53.7379 65.0001H52.0043Z" fill="#808285"/>
</g>
</svg>
